<svg width="24" height="24" viewBox="0 0 24 24" fill="none" xmlns="http://www.w3.org/2000/svg">
<circle cx="12" cy="12" r="12" fill="#336AF3"/>
<path d="M11.9999 17.7142C12.3491 17.7142 12.6349 17.4285 12.6349 17.0793V12.6349H17.0793C17.4285 12.6349 17.7142 12.3491 17.7142 11.9999C17.7142 11.6507 17.4285 11.365 17.0793 11.365H12.6349V6.92057C12.6349 6.57136 12.3491 6.28564 11.9999 6.28564C11.6507 6.28564 11.365 6.57136 11.365 6.92057V11.365H6.92057C6.57136 11.365 6.28564 11.6507 6.28564 11.9999C6.28564 12.3491 6.57136 12.6349 6.92057 12.6349H11.365V17.0793C11.365 17.4285 11.6507 17.7142 11.9999 17.7142Z" fill="white" stroke="white" stroke-width="0.24"/>
</svg>
