<svg width="23" height="26" viewBox="0 0 23 26" fill="none" xmlns="http://www.w3.org/2000/svg">
<path d="M11.038 0.0112967C5.86922 0.265127 1.90874 4.89525 1.90874 10.2537V15.0988L0.214032 18.6535C0.211051 18.66 0.208136 18.6665 0.20529 18.6731C-0.476496 20.1847 0.62716 21.9999 2.2297 21.9999H7.66352C7.66352 24.1972 9.3926 26 11.5 26C13.6075 26 15.3366 24.1972 15.3366 21.9999H20.7691C22.3717 21.9999 23.4767 20.1851 22.7948 18.6731C22.7919 18.6665 22.789 18.66 22.786 18.6535L21.0913 15.0988V9.99974C21.0913 4.32885 16.528 -0.258184 11.038 0.0112967ZM11.1279 2.00872C15.5527 1.79153 19.1731 5.44113 19.1731 9.99974V15.3332C19.1729 15.4877 19.2071 15.6401 19.273 15.7785L21.0589 19.5259C21.1737 19.7826 21.0408 19.9999 20.7691 19.9999H2.2297C1.958 19.9999 1.8262 19.7829 1.94121 19.5259V19.5246L3.72709 15.7785C3.79294 15.6401 3.82713 15.4877 3.827 15.3332V10.2537C3.827 5.91989 7.01096 2.2109 11.1279 2.00872ZM9.58178 21.9999H13.4183C13.4183 23.116 12.5705 24 11.5 24C10.4296 24 9.58178 23.116 9.58178 21.9999Z" fill="#3364F3"/>
</svg>
