<svg width="39" height="39" viewBox="0 0 39 39" fill="none" xmlns="http://www.w3.org/2000/svg">
<path d="M32.487 6.72167L31.7188 5.95346C28.4547 2.88139 24.2308 1.11513 19.738 1H18.7014C8.90942 1.30723 0.999023 9.3712 0.999023 19.24C0.999023 23.9248 2.76556 28.3408 5.99109 31.7584L6.7593 32.5266C10.1386 35.7521 14.5929 37.5187 19.2777 37.5187C29.3385 37.5187 37.5177 29.3395 37.5177 19.2787C37.4791 14.5553 35.7126 10.1395 32.4871 6.72187L32.487 6.72167ZM12.0198 26.4593C10.0998 24.5393 9.02462 21.9665 9.02462 19.2401C9.02462 13.6335 13.5943 9.06407 19.2006 9.06407C21.9272 9.06407 24.4999 10.1393 26.4198 12.0593C28.3398 13.9793 29.415 16.5521 29.415 19.2785C29.415 24.885 24.8454 29.4545 19.239 29.4545C16.5125 29.4159 13.9398 28.3793 12.0198 26.4593ZM30.9894 6.72167L26.8039 10.9072C24.8456 9.14066 22.388 8.10407 19.7767 7.98887V2.07513C24.0008 2.19031 27.9175 3.84167 30.9895 6.72167H30.9894ZM2.07422 19.2401C2.07422 9.94727 9.48542 2.34407 18.7014 2.07527V7.98873C12.7494 8.25766 7.98782 13.2111 7.98782 19.2399C7.98782 22.0816 9.02469 24.731 10.9062 26.8047L6.72062 30.9903C3.72542 27.8031 2.07409 23.6559 2.07409 19.2399L2.07422 19.2401ZM19.239 36.4049C14.8232 36.4049 10.6758 34.7538 7.48862 31.7583L11.6742 27.5728C13.7476 29.4545 16.4358 30.4911 19.239 30.4911C25.4597 30.4911 30.4902 25.4608 30.4902 19.2399C30.4902 16.3983 29.4533 13.7489 27.5718 11.6751L31.7574 7.4896C34.7526 10.6768 36.4039 14.8624 36.4039 19.24C36.4039 28.7248 28.7239 36.4048 19.2391 36.4048L19.239 36.4049Z" fill="#132660" stroke="#132660"/>
</svg>
