<svg width="68" height="68" viewBox="0 0 68 68" fill="none" xmlns="http://www.w3.org/2000/svg">
<path d="M34 0C15.2342 0 0 15.2339 0 34C0 52.7661 15.2339 68 34 68C50.7873 68 64.7417 55.7959 67.4974 39.7847L65.6384 39.4896C63.0347 54.6083 49.8729 66.1111 33.9995 66.1111C16.2541 66.1111 1.88838 51.7461 1.88838 34C1.88838 16.2539 16.2534 1.88889 33.9995 1.88889C51.7456 1.88889 66.1106 16.2539 66.1106 34H68C68 15.2342 52.7661 0 34 0ZM19.5679 18.2109L18.2101 19.539L32.6422 34.0008L18.2101 48.433L19.5679 49.7611L34 35.329L48.4321 49.7611L49.7899 48.433L35.3578 34.0008L49.7899 19.539L48.4321 18.2109L34 32.643L19.5679 18.2109Z" fill="#336AF3"/>
</svg>
