<svg width="1020" height="252" viewBox="0 0 1020 252" fill="none" xmlns="http://www.w3.org/2000/svg">
<g opacity="0.5">
<path d="M971.991 241.78C965.337 245.115 965.522 249.346 966.446 251.044H1105.53C1102.57 236.593 1078.11 230.819 1066.25 229.738C1063.48 222.79 1049.16 212.137 1038.53 210.284C1027.9 208.432 1013.11 215.842 1007.11 226.495C1001.1 237.149 980.308 237.612 971.991 241.78Z" fill="#FFF1E0"/>
<path d="M252.619 22.2648C247.922 24.5992 248.053 27.5605 248.705 28.7493H346.88C344.792 18.6335 327.527 14.5915 319.156 13.835C317.199 8.97163 307.088 1.51442 299.586 0.217525C292.084 -1.07938 281.647 4.10822 277.407 11.5654C273.167 19.0226 258.49 19.3468 252.619 22.2648Z" fill="#FFF1E0"/>
<path fill-rule="evenodd" clip-rule="evenodd" d="M45.4378 172.403L0.407057 172.403C-0.281313 171.197 -0.418993 168.19 4.53726 165.821C6.56621 164.851 9.59186 164.163 12.9009 163.411C19.696 161.866 27.6862 160.05 30.6953 154.959C35.1697 147.389 46.1836 142.123 54.0999 143.44C61.4038 144.655 71.0517 151.193 74.1225 156.075C80.7418 154.003 86.7808 151.08 89.6717 146.014C96.2062 134.562 112.291 126.595 123.852 128.587C135.414 130.578 150.996 142.031 154.012 149.499C166.913 150.661 193.521 156.868 196.738 172.403L45.4378 172.403Z" fill="#FFF1E0"/>
<path d="M835.583 108.274C839.35 110.191 839.245 112.624 838.722 113.6H759.978C761.652 105.291 775.5 101.971 782.214 101.349C783.784 97.3543 791.894 91.2288 797.911 90.1634C803.928 89.0981 812.299 93.3594 815.7 99.4849C819.101 105.61 830.874 105.877 835.583 108.274Z" fill="#FFF1E0"/>
</g>
</svg>
