<svg width="246" height="283" fill="none" xmlns="http://www.w3.org/2000/svg">
  <path d="M173.696 73.92c14.862 9.782 30.217 18.184 45.445 32.017 15.228 13.833 30.338 33.076 25.383 47.848-5.016 14.713-30.09 24.952-49.847 30.434-19.818 5.475-34.315 6.12-46.794 6.591-12.475.413-22.995.648-44.526 7.768-21.463 7.181-53.948 21.377-68.75 15.127-14.802-6.25-11.99-32.902-17.74-59.5-5.81-26.543-20.242-53.087-16.146-75.453C4.882 56.39 27.513 38.086 52.161 32.67c24.72-5.47 51.38 1.942 71.868 11.178 20.488 9.235 34.865 20.37 49.667 30.072Z" fill="#F8F3E7"/>
  <path d="M178.241 213.583V283H99.168l10.132-75.384c0 3.049 15.428 6.853 34.462 8.492 19.035 1.656 34.479.525 34.479-2.525Z" fill="#D7DCE0"/>
  <path d="M177.88 211.796c0 3.05-15.297 4.181-34.151 2.525-18.854-1.656-34.151-5.459-34.151-8.492 0-3.05 15.297-4.181 34.151-2.525 18.871 1.639 34.151 5.443 34.151 8.492Z" fill="#AFBBC5"/>
  <path d="m188.849 57.913 4.787 3.099c4.787 3.705-1.836 20.264-14.788 36.954-12.952 16.706-27.331 27.232-32.118 23.527l-2.361-2.23" stroke="#4756DF" stroke-width="3" stroke-miterlimit="10"/>
  <path d="m122.366 135.691 54.35-49.743 19.001-57.857-58.005 52.71-15.346 54.89Z" fill="#FFCE50"/>
  <path d="m119.596 141.724 59.153-54.136 19.297-58.776" stroke="#4756DF" stroke-width="6" stroke-miterlimit="10" stroke-linecap="round"/>
  <path d="M150.878 85.784 99.267 135.15c-2.509 2.393-6.608.131-5.903-3.279l1.443-7.001c.656-3.164-2.935-5.476-5.541-3.574l-17.051 12.411" stroke="#4756DF" stroke-width="3" stroke-miterlimit="10"/>
  <path d="M58.328 151.381a66.112 66.112 0 0 1-4.525 3.492 14.271 14.271 0 0 1-5.656-6.722 70.57 70.57 0 0 1 4.213-3.869c7.624-6.411 15.133-10.034 16.788-8.066 1.64 1.967-3.197 8.755-10.82 15.165Z" fill="#FFCE50"/>
  <path d="M70.624 136.888a1.984 1.984 0 1 0 0-3.967 1.984 1.984 0 0 0 0 3.967Z" stroke="#4756DF" stroke-width="6" stroke-miterlimit="10"/>
  <path d="M153.322 161.333v53.611a212.95 212.95 0 0 1-9.591-.623c-12.28-1.066-23.035-3.066-29.052-5.164l.902-5.935 3.017-19.92h-3.902a10.04 10.04 0 0 1-10.05-10.05v-19.74c0-3.902 1.409-7.656 3.983-10.591l12.838-14.674c.836-.95 2.41-.36 2.41.902v19.953a10.03 10.03 0 0 1-2.41 6.525l-1.148 1.344h13.936c2.016 0 3.197-2.246 2.066-3.918a99.57 99.57 0 0 1-6.132-10.214c-4.279-8.181 3.148-12.755 3.148-12.755l17.001 22.051a15.712 15.712 0 0 1 2.984 9.198Z" fill="#FFC0AF"/>
  <path d="M123.876 128.083v21.019c0 2.394-.852 4.705-2.41 6.525l-1.148 1.344M120.32 156.955l-9.214 10.345" stroke="#fff" stroke-width="5" stroke-miterlimit="10" stroke-linecap="round"/>
  <path d="M123.878 139.969c0 2.394-.852 4.706-2.41 6.526l-1.147 1.344-9.198 10.329M123.878 130.854c0 2.394-.852 4.705-2.41 6.525l-1.147 1.345-9.198 10.328M118.599 183.843h7.066" stroke="#fff" stroke-width="5" stroke-miterlimit="10" stroke-linecap="round"/>
  <path d="m52.535 46.046 3.149-2.657c4.101-3.455 9.594-.039 9.98 6.2l.686 11.046c.378 6.06 5.612 9.515 9.714 6.415l1.986-1.506" stroke="#FFCE50" stroke-width="3" stroke-miterlimit="10"/>
  <path d="m6.78 5.012 40.452 29.912 20.37 58.268-23.37-20.056-25.395-37.908L6.78 5.012Z" fill="#4756DF"/>
  <path d="m6.89 3 41.306 30.557 20.807 59.495" stroke="#FFCF2D" stroke-width="6" stroke-miterlimit="10"/>
  <path d="M43.811 74.423c1.89-2.033-2.357-12.403-9.487-23.163S19.88 33.427 17.99 35.46c-1.89 2.033 2.357 12.404 9.487 23.163 7.13 10.76 14.443 17.833 16.333 15.8Z" fill="#fff"/>
  <path d="M42.662 75.045c1.852-1.992-2.314-12.16-9.306-22.712-6.992-10.551-14.162-17.489-16.014-15.496-1.853 1.992 2.314 12.16 9.306 22.712 6.991 10.55 14.161 17.489 16.014 15.496Z" fill="#fff" stroke="#FFCF2D" stroke-width="3" stroke-miterlimit="10"/>
  <path d="m47.59 70.327-3.853 4.138c.715-.772.556-2.72-.308-5.441-1.42-4.48-4.748-11.021-9.177-17.727-4.44-6.694-8.949-11.97-12.177-14.5-1.956-1.544-3.446-2.076-4.16-1.304l3.853-4.138c1.887-2.037 9.534 4.619 16.665 15.387 7.131 10.768 11.054 21.56 9.157 23.585ZM88.757 54.498a36.246 36.246 0 0 1 3.178-1.758c.606.81 1.132 1.758 1.54 2.821a13.15 13.15 0 0 1 .784 3.277 41.438 41.438 0 0 1-3.049 2.088c-5.432 3.353-10.379 4.631-11.054 2.86-.685-1.784 3.168-5.935 8.601-9.288Z" fill="#FFCE50"/>
  <path d="M79.163 66.19c.663 0 1.201-.686 1.201-1.531 0-.846-.538-1.531-1.201-1.531-.664 0-1.202.685-1.202 1.53 0 .846.538 1.532 1.202 1.532Z" stroke="#4756DF" stroke-width="6" stroke-miterlimit="10"/>
</svg>