<svg width="309" height="280" fill="none" xmlns="http://www.w3.org/2000/svg">
  <path d="M85.136 52.402c-17.597 11.572-35.78 21.511-53.81 37.875-18.03 16.363-35.921 39.125-30.054 56.599 5.939 17.405 35.628 29.517 59.022 36.001 23.464 6.476 40.629 7.239 55.405 7.796 14.771.489 27.228.768 52.721 9.189 25.413 8.495 63.877 25.287 81.403 17.894 17.526-7.393 14.196-38.92 21.004-70.383 6.879-31.398 23.969-62.797 19.118-89.253-4.927-26.453-31.722-48.105-60.907-54.513-29.27-6.471-60.836 2.298-85.095 13.222-24.258 10.925-41.281 24.096-58.807 35.573Z" fill="#F8F3E7"/>
  <path d="M34.925 48.065c0-8.572 5.47-15.523 12.212-15.523 6.74 0 12.19 6.951 12.19 15.523 0 4.505-1.508 8.572-3.915 11.392.842 6 3.014 14.4 3.384 15.905 0 0-19.81 13.286-19.81 1.187 0-9.18-.664-15-1.266-18.567a18.189 18.189 0 0 1-2.795-9.917Z" fill="#FFC0AF"/>
  <path d="M43.06 33.595H59.83c.933 0 1.69.727 1.69 1.625v22.068c0 .897-.757 1.624-1.69 1.624H43.06c-.933 0-1.69-.727-1.69-1.624V35.22c0-.898.757-1.625 1.69-1.625Z" fill="#EFEFEF"/>
  <path d="M130.176 105.119c-4.213-1.449-34.928-1.449-59.918 13.603-1.507-5.79-7.227-47.354-7.227-47.354l-25.596 1.607s-5.72 53.839 5.72 81.625c5.422 11.002 67.769-11.868 67.769-11.868l19.252-37.613Z" fill="#D7DCE0"/>
  <path d="M155.993 96.17c-77.35-2.418-73.73 170.428-65.383 177.757 8.346 7.328 112.206 8.511 119.103.857 6.898-7.655 22.868-176.219-53.72-178.615Z" fill="#AFBBC5"/>
  <path d="M143.84 97.233c7.883-2.028 17.464-.952 22.877.428-3.335 9.583-19.172 126.588-20.683 182.249-5.537-.09-13.688-.279-20.353-.664.424-42.521 3.331-136.292 18.159-182.013Z" fill="#fff"/>
  <path d="M151.17 112.623c-7.508 36.464-15.016 119.461-16.149 157.014" stroke="#AFBBC5" stroke-width="2" stroke-miterlimit="10" stroke-linecap="round"/>
  <path d="M143.658 104.849c0 3.429 20.697 3.429 20.697-.317s2.782-31.536 2.782-31.536l-20.607-1.628s-2.867 31.304-2.872 33.481Z" fill="#FFC0AF"/>
  <path d="M118.377 78.486a64.586 64.586 0 0 1-.268-5.855c0-26.448 16.269-47.894 36.337-47.894 20.067 0 36.336 21.429 36.336 47.894 0 2.966-.209 5.929-.624 8.868l-71.781-3.013Z" fill="#333"/>
  <path d="M125.311 51.875c4.459-1.689 8.779-3.506 12.292-6.883 9.193 9.72 25.32 21.13 31.187 24.806-2.345 14.573-11.32 25.442-22.038 25.442-12.506 0-22.645-14.774-22.645-33.002a46.951 46.951 0 0 1 1.142-10.342l.062-.021Z" fill="#FFC0AF"/>
  <path d="M170.064 28.14c-5.36 0-9.706-4.178-9.706-9.33 0-5.154 4.346-9.331 9.706-9.331 5.361 0 9.707 4.177 9.707 9.33 0 5.153-4.346 9.33-9.707 9.33Z" fill="#333"/>
  <path d="M166.195 71.44c-2.905 0-5.261-2.264-5.261-5.057 0-2.793 2.356-5.057 5.261-5.057 2.906 0 5.261 2.264 5.261 5.057 0 2.793-2.355 5.057-5.261 5.057Z" fill="#FFC0AF"/>
  <path d="m125.416 173.777 45.152-16.167 24.773 63.931-45.152 16.168-24.773-63.932Z" fill="#fff"/>
  <path d="m135.933 166.602 21.793-7.804 2.441 6.302-21.792 7.803-2.442-6.301Z" fill="#336AF3"/>
  <path d="m131.203 175.466 36.14-12.941 21.909 56.542-36.14 12.941-21.909-56.542Z" fill="#FFCE50"/>
  <path d="M152.784 198.123c-6.05-.305-12.537-5.829-18.632-5.829-7.294 0-12.416 4.44-12.416 9.994 0 11.722 9.527 15.13 13.139 15.13 6.063 0 7.084-.896 8.212-1.663 1.837.428 4.539 2.635 11.739 2.635 7.201 0-2.042-20.267-2.042-20.267Z" fill="#FFC0AF"/>
  <path d="M195.269 110.836c31.495-7.119 42.953 98.147 37.933 107.25-5.02 9.103-76.333 6.09-80.328 5.362-1.15-4.286-2.51-24.4-1.115-26.813 1.962-.741 36.355-1.149 36.355-1.149-.892-3.428-12.069-46.896-12.448-51.859-1.757-23.294 1.943-28.797 19.603-32.791Z" fill="#D7DCE0"/>
  <path d="M42.267 28.62H61.18c1.864 0 3.375 1.452 3.375 3.244v.005c0 1.791-1.511 3.244-3.375 3.244H42.267c-1.864 0-3.375-1.453-3.375-3.244v-.005c0-1.792 1.51-3.244 3.375-3.244Z" fill="#AFBBC5"/>
  <path d="m44.206 52.94 5.56 3.086c.582.323.782 1.039.446 1.599l-.003.003c-.336.56-1.08.752-1.662.429l-5.56-3.086a1.146 1.146 0 0 1-.446-1.599l.003-.003c.336-.56 1.08-.752 1.662-.428ZM42.788 49.002l5.804-2.638c.608-.276 1.333-.027 1.62.557l.003.004c.287.584.027 1.282-.58 1.558l-5.804 2.639c-.608.276-1.334.026-1.62-.558l-.003-.004c-.287-.584-.027-1.282.58-1.558Z" fill="#4756DF"/>
  <path d="m60.785 51.355-1.837 5.914c-.192.619-.87.971-1.515.786l-.004-.001c-.644-.185-1.01-.837-.818-1.456l1.838-5.914c.192-.619.87-.97 1.514-.786l.004.001c.645.185 1.01.837.818 1.456Z" fill="#479FDF"/>
  <path d="m57.466 52.35-4.11 4.742a1.251 1.251 0 0 1-1.714.15l-.003-.003a1.14 1.14 0 0 1-.156-1.648l4.11-4.742a1.251 1.251 0 0 1 1.713-.15l.004.003a1.14 1.14 0 0 1 .156 1.648Z" fill="#4756DF"/>
  <path d="m52.579 52.93-6.406.418c-.67.044-1.25-.444-1.296-1.088v-.005c-.046-.644.46-1.203 1.131-1.246l6.406-.418c.67-.044 1.251.444 1.297 1.088v.005c.045.644-.462 1.203-1.132 1.246Z" fill="#479FDF"/>
  <path d="m163.814 107.767-9.367 3.352-3.281-2.585-3.38 2.585-4.694-4.595" stroke="#AFBBC5" stroke-width="2" stroke-miterlimit="10" stroke-linecap="round"/>
  <path d="M302.433 153.386c-3.627 0-6.568-2.826-6.568-6.313 0-3.486 2.941-6.313 6.568-6.313s6.567 2.827 6.567 6.313c0 3.487-2.94 6.313-6.567 6.313Z" fill="#FFCE50"/>
  <path d="M292.304 136.74c-1.433 0-2.595-1.117-2.595-2.495 0-1.377 1.162-2.494 2.595-2.494 1.433 0 2.594 1.117 2.594 2.494 0 1.378-1.161 2.495-2.594 2.495Z" fill="#479FDF"/>
  <path d="M15.999 177.28c-1.433 0-2.595-1.116-2.595-2.494 0-1.378 1.162-2.494 2.595-2.494 1.433 0 2.595 1.116 2.595 2.494 0 1.378-1.162 2.494-2.595 2.494Z" fill="#F2F2F2"/>
  <path d="M93.005 22.535c-4.666 0-8.448-3.636-8.448-8.121 0-4.486 3.782-8.122 8.448-8.122s8.449 3.636 8.449 8.122c0 4.485-3.782 8.121-8.449 8.121Z" fill="#4756DF"/>
  <path d="M74.257 8.117c-2.332 0-4.222-1.817-4.222-4.058 0-2.242 1.89-4.059 4.222-4.059 2.332 0 4.222 1.817 4.222 4.059 0 2.241-1.89 4.058-4.222 4.058Z" fill="#FFCE50"/>
  <path d="M227.847 12.033h51.41c2.955 0 5.35 2.303 5.35 5.144v23.936c0 2.84-2.395 5.143-5.35 5.143h-51.41c-2.955 0-5.351-2.302-5.351-5.143V17.177c0-2.84 2.396-5.144 5.351-5.144Z" fill="#fff" stroke="#AFBBC5" stroke-width="2" stroke-miterlimit="10"/>
  <path d="M253.555 22.217v13.856M260.759 29.147h-14.41" stroke="#AFBBC5" stroke-width="8" stroke-miterlimit="10"/>
  <path d="M235.422 21.78c-.546 0-.989-.426-.989-.952 0-.525.443-.951.989-.951.547 0 .99.426.99.951 0 .526-.443.952-.99.952ZM228.68 20.635c-1.152 0-2.087-.898-2.087-2.006 0-1.107.935-2.006 2.087-2.006 1.152 0 2.087.899 2.087 2.006 0 1.108-.935 2.006-2.087 2.006ZM231.949 40.029c-.722 0-1.307-.562-1.307-1.256 0-.693.585-1.256 1.307-1.256.721 0 1.306.563 1.306 1.256 0 .694-.585 1.256-1.306 1.256ZM279.707 23.948h-13.951M279.707 26.545h-13.951M279.707 29.147h-13.951M279.707 31.744h-13.951M279.707 34.346h-8.542M227.191 26.038a1.196 1.196 0 0 1 .36-1.697 1.306 1.306 0 0 1 1.765.349l4.843 7.053a1.196 1.196 0 0 1-.359 1.697 1.306 1.306 0 0 1-1.765-.349l-4.844-7.053ZM230.995 27.133l-2.127 1.35M231.948 46.256l-30.942 12.657" stroke="#AFBBC5" stroke-width="2" stroke-miterlimit="10"/>
</svg>