<svg class="scene" width="527" height="420" fill="none" xmlns="http://www.w3.org/2000/svg">
  <path d="M5.74 31.326C.495 34.09.641 37.593 1.37 39H111c-2.331-11.971-21.61-16.754-30.959-17.65-2.185-5.755-13.476-14.58-21.853-16.115-8.377-1.534-20.032 4.605-24.767 13.43-4.735 8.824-21.125 9.208-27.68 12.661Z" fill="#FFF1E0" stroke="#FFF1E0" stroke-width="1.5"/>
  <path d="M52.895 41.264c-7.629 4.225-7.417 9.584-6.358 11.736H206c-3.391-18.309-31.433-25.624-45.031-26.994-3.179-8.802-19.602-22.299-31.786-24.646C116.998-.987 100.045 8.402 93.158 21.9 86.27 35.395 62.43 35.982 52.895 41.264Z" fill="#FFF1E0" stroke="#FBD7AD" stroke-width="1.5"/>
  <path fill-rule="evenodd" clip-rule="evenodd" d="M35.197 263.477c2.342-4.476 6.69-53.399 9.742-62.656 3.247-9.846 8.142-18.933 14.635-27.331 39.623-51.249 68.529-14.402 104.024-42.52 9.513-7.536 17.139-16.974 27.393-23.753 33.319-22.03 76.215-16.112 109.736 1.789 16.873 9.01 28.605 27.365 47.947 31.975 29.781 7.099 59.354-15.436 89.265-16.102 77.143-1.717 89.33 80.418 89.057 134.183-.064 12.424-1.742 24.945-5.712 36.849-2.714 8.134-6.756 15.79-11.758 22.954-37.724 54.033-83.816 10.381-132.292 24.666-39.246 11.567-68.018 63.042-117.279 53.234-38.025-7.571-43.201-34.044-81.493-40.724-37.298-6.507-60.14-9.194-96.332 2.032-64.73 20.078-69.365-51.723-46.934-94.596Z" fill="#FFF1E0"/>
  <path stroke="#DFB079" d="M361 418.5h131"/>
  <path d="M198.8 192.7H156v15.4h42.8v-15.4ZM241.6 192.7h-42.8v15.4h42.8v-15.4Z" fill="#FBD7AD" stroke="#FBD7AD" stroke-width="1.5" stroke-miterlimit="10"/>
  <path d="M219.9 208.1h-42.8v15.4h42.8v-15.4Z" fill="#FBD7AD" stroke="#F0C18B" stroke-width="1.5" stroke-miterlimit="10"/>
  <path d="M473.6 249.498h-42.8v-15.4h42.8v15.4ZM78.8 269.7H36v15.4h42.8v-15.4Z" fill="#FBD7AD" stroke="#FBD7AD" stroke-width="1.5" stroke-miterlimit="10"/>
  <path d="M43.8 236.7H80" stroke="#FBD7AD" stroke-width="1.5" stroke-miterlimit="10"/>
  <path d="M120.2 173.8H77.4v15.4h42.8v-15.4Z" fill="#FBD7AD" stroke="#FBD7AD" stroke-width="1.5" stroke-miterlimit="10"/>
  <path d="M59.7 254.3H16.9v15.4h42.8v-15.4Z" fill="#FBD7AD" stroke="#F0C18B" stroke-width="1.5" stroke-miterlimit="10"/>
  <path fill-rule="evenodd" clip-rule="evenodd" d="M462.053 336.361c-.027-.968-.421-53.259-22.737-66.722 0 0 15.617 62.424 15.362 66.722h7.375Z" fill="#6A9253"/>
  <path fill-rule="evenodd" clip-rule="evenodd" d="M461.603 333.542c1.277-2.501-10.141-47.325 15.608-69.542 0 0-12.72 57.491-6.564 61.964.07.052-9.044 7.578-9.044 7.578Z" fill="#5D8E41"/>
  <path fill-rule="evenodd" clip-rule="evenodd" d="M461.931 324.824c1.292-10.56 2.82-21.195 5.431-31.527 2.503-9.906 6.5-19.333 9.784-28.997l.065-.3c-21.41 18.701-17.124 53.225-15.806 65.783.146-1.656.325-3.309.526-4.959ZM427 289.373s25.029 39.442 28.244 51.224c.464 1.703 6.809-1.837 6.809-1.837s-7.19-43.492-35.053-49.387Z" fill="#5D8E41"/>
  <path fill-rule="evenodd" clip-rule="evenodd" d="M489.526 283.735s-21.282 48.59-19.268 53.611l-9.153 1.835s2.061-27.323 28.421-55.446Z" fill="#4C7539"/>
  <path fill-rule="evenodd" clip-rule="evenodd" d="M479.724 284.675s13.317 24.004 7.288 55.888l-9.802 3.317s3.537-42.166 2.514-59.205Z" fill="#6A9253"/>
  <path fill-rule="evenodd" clip-rule="evenodd" d="M475.316 347.639s.067-36.233 41.684-51.687c0 0-33.579 38.232-30.857 51.687h-10.827Z" fill="#6A9253"/>
  <path fill-rule="evenodd" clip-rule="evenodd" d="M515.105 297.831a104.904 104.904 0 0 0-4.244 2.46c-8.406 5.108-16.635 11.154-22.748 18.918-2.842 3.61-5.122 7.668-6.884 11.896-2.029 4.865-2.923 10.105-4.539 15.104-.248.768-.771 1.228-1.374 1.43h10.391c-2.362-11.573 22.161-41.334 29.398-49.808Z" fill="#6A9253"/>
  <path fill-rule="evenodd" clip-rule="evenodd" d="M465.842 312.867s17.9 9.92 13.521 36.621l-10.897.03s8.206-20.79-2.624-36.651Z" fill="#5D8E41"/>
  <path fill-rule="evenodd" clip-rule="evenodd" d="M466.401 313.09c-.327-.149-.507-.223-.507-.223.291.312.571.625.844.94a2.58 2.58 0 0 1-.337-.717Z" fill="#517B3B"/>
  <path fill-rule="evenodd" clip-rule="evenodd" d="M480.053 349.288c1.163-2.26 5.136-31.428 26.526-31.722 0 0-20.708 24.637-15.278 33.035 1.535 2.374-11.248-1.313-11.248-1.313ZM468.684 351.022s-4.179-31.06-37.894-25.202c0 0 24.368 9.165 25.223 27.457l12.671-2.255Z" fill="#5E8447"/>
  <path fill-rule="evenodd" clip-rule="evenodd" d="M458.36 352.337s-3.403-31.574 30.219-33.831c0 0-21.11 14.824-17.571 33.036l-12.648.795Z" fill="#5E8447"/>
  <path fill-rule="evenodd" clip-rule="evenodd" d="M484.301 420h-25.549c-10.036 0-17.774-8.841-16.445-18.789l7.53-56.392h43.379l7.53 56.392c1.329 9.948-6.41 18.789-16.445 18.789Z" fill="#94AEB0"/>
  <path fill-rule="evenodd" clip-rule="evenodd" d="M484.301 420h-25.549c-10.036 0-17.774-8.841-16.445-18.789l7.53-56.392h43.379l7.53 56.392c1.329 9.948-6.41 18.789-16.445 18.789Z" fill="#D7DCE0"/>
  <path fill-rule="evenodd" clip-rule="evenodd" d="M449.445 382.41a6.183 6.183 0 1 1-12.367 0 6.183 6.183 0 0 1 12.367 0Z" fill="#fff"/>
  <path d="M471.526 388.093a5.683 5.683 0 1 1 0-11.366 5.683 5.683 0 0 1 0 11.366Z" fill="#fff" stroke="#A3B3C0"/>
  <path fill-rule="evenodd" clip-rule="evenodd" d="M505.974 382.41a6.183 6.183 0 1 1-12.365 0 6.183 6.183 0 0 1 12.365 0ZM494.263 350.458l-.755-5.639h-43.963l-.755 5.639h45.473Z" fill="#fff"/>
</svg>