<svg width="41" height="25" fill="none" xmlns="http://www.w3.org/2000/svg">
  <path d="m15.376 6.2-.002-.003a.705.705 0 0 0-1.036-.005l-.005.005-5.177 5.572a.773.773 0 0 0-.204.53c0 .194.068.384.204.53l5.177 5.572c.283.305.76.31 1.042-.001a.783.783 0 0 0-.001-1.055L10.689 12.3l4.685-5.041a.789.789 0 0 0 .002-1.058ZM32.456 12.302a.77.77 0 0 0-.2-.524L27.32 6.21a.667.667 0 0 0-1.017-.01.77.77 0 0 0-.2.529c0 .194.072.38.197.52l4.474 5.053L26.3 17.35a.79.79 0 0 0 0 1.046.672.672 0 0 0 1.022 0l4.937-5.571a.767.767 0 0 0 .196-.523Z" fill="#fff" stroke="#fff" stroke-width=".59"/>
</svg>