<svg width="41" height="36" viewBox="0 0 41 36" fill="none" xmlns="http://www.w3.org/2000/svg">
<path d="M32.6314 13.7663C32.1882 13.7663 31.8299 14.1418 31.8299 14.6051V31.5714C31.8266 31.6024 31.8132 31.6293 31.8132 31.6609C31.8132 32.5676 31.109 33.3047 30.2437 33.3047C30.2136 33.3047 30.1879 33.3187 30.1582 33.3222H28.6738L28.6732 21.645C28.6732 21.1811 28.315 20.8062 27.8718 20.8062H22.0859C21.6427 20.8062 21.2844 21.1811 21.2844 21.645L21.285 33.3222H11.0873C11.0577 33.3187 11.032 33.3047 11.0018 33.3047C10.1355 33.3047 9.43123 32.5676 9.43123 31.6609C9.43123 31.6299 9.41782 31.6041 9.41447 31.5737V14.6045C9.41447 14.1418 9.05565 13.7656 8.61299 13.7656C8.17091 13.7656 7.81152 14.1412 7.81152 14.6045V31.6606C7.81152 31.7226 7.83332 31.777 7.84506 31.8349C7.93057 33.523 9.21773 34.8713 10.8307 34.9627C10.8877 34.9761 10.9414 34.9989 11.0012 34.9989H21.8327C21.8774 34.9989 21.9159 34.9796 21.9595 34.972C22.002 34.9796 22.0411 34.9989 22.0864 34.9989C22.5296 34.9989 22.8879 34.624 22.8879 34.1601L22.8873 22.4839H27.0707V34.1612C27.0707 34.625 27.4289 35 27.8722 35H30.2435C30.3045 35 30.3581 34.9772 30.4151 34.9637C32.0248 34.8713 33.3108 33.5265 33.399 31.8401C33.4119 31.7805 33.4337 31.7243 33.4337 31.6606L33.4331 14.6044C33.432 14.1412 33.0732 13.7656 32.6311 13.7656L32.6314 13.7663Z" fill="#132660" stroke="#132660" stroke-width="0.4"/>
<path d="M39.9674 16.5979L22.6434 1.72388C22.5975 1.68468 22.5433 1.66713 22.4919 1.63906C21.3814 0.787956 19.8673 0.786788 18.7551 1.63672C18.702 1.66421 18.6467 1.68293 18.5997 1.72329L1.29288 16.5979C0.950838 16.8921 0.90109 17.4204 1.18222 17.7789C1.34095 17.9807 1.57009 18.0849 1.80148 18.0849C1.98089 18.0849 2.1603 18.0229 2.30953 17.8948L19.542 3.08451C19.5694 3.0658 19.6007 3.05936 19.6264 3.03772C20.2043 2.54285 21.0404 2.54402 21.6172 3.03772C21.6468 3.06287 21.682 3.07457 21.7133 3.09446L38.9501 17.8948C39.0993 18.0229 39.2787 18.0849 39.457 18.0849C39.6884 18.0849 39.9186 17.9802 40.0774 17.7778C40.3585 17.4198 40.3099 16.8916 39.9667 16.598L39.9674 16.5979Z" fill="#132660" stroke="#132660" stroke-width="0.4"/>
</svg>
