<svg width="50" height="50" fill="none" xmlns="http://www.w3.org/2000/svg">
  <path fill-rule="evenodd" clip-rule="evenodd" d="M21.656 42.712h6.689V29.43h-6.689v13.282Z" fill="#FFD565"/>
  <path fill-rule="evenodd" clip-rule="evenodd" d="M19.742 29.43a2.04 2.04 0 0 1-2.038-2.038 2.04 2.04 0 0 1 2.038-2.038h10.517a2.04 2.04 0 0 1 2.037 2.038 2.04 2.04 0 0 1-2.037 2.037h-1.124v13.283h2.59c.429-1.94 1.409-5.274 3.574-9.033a12.473 12.473 0 0 0 2.25-7.172c0-6.92-5.63-12.549-12.55-12.549-6.918 0-12.548 5.63-12.548 12.55a12.513 12.513 0 0 0 1.95 6.723 33.548 33.548 0 0 1 3.433 7.885c.172.604.304 1.139.405 1.596h2.626V29.429h-1.123Z" fill="#FFCE50"/>
  <path fill-rule="evenodd" clip-rule="evenodd" d="M17.679 48.26v.09a24.45 24.45 0 0 0 7.32 1.114c2.551 0 5.01-.39 7.323-1.114v-.09H17.679ZM17.679 47.47h14.643v-1.776H17.679v1.776ZM17.679 44.904h14.643v-1.401H17.679v1.401ZM31.466 29.4c.846 0 1.534-.898 1.534-2 0-1.104-.688-2-1.534-2H18.534c-.845 0-1.533.896-1.533 2 0 1.102.688 2 1.534 2h12.933Z" fill="#fff"/>
  <path fill-rule="evenodd" clip-rule="evenodd" d="M25 7.152a.396.396 0 0 0-.395.396v2.855a.396.396 0 0 0 .79 0V7.548A.395.395 0 0 0 25 7.152ZM19.12 8.752a.396.396 0 0 0-.685.396l1.428 2.473a.396.396 0 0 0 .684-.395L19.12 8.752ZM16.627 13.868l-2.474-1.428a.395.395 0 0 0-.395.685l2.473 1.428a.394.394 0 0 0 .54-.145.395.395 0 0 0-.144-.54ZM35.847 12.44l-2.474 1.428a.394.394 0 1 0 .396.685l2.473-1.428a.396.396 0 0 0-.395-.685ZM31.42 8.608a.395.395 0 0 0-.539.144l-1.428 2.474a.395.395 0 0 0 .685.395l1.428-2.473a.395.395 0 0 0-.145-.54ZM18.24 42.712c-.102-.457-.234-.992-.406-1.595a33.543 33.543 0 0 0-3.447-7.912 12.513 12.513 0 0 1-1.935-6.697c0-6.92 5.63-12.55 12.548-12.55 6.92 0 12.55 5.63 12.55 12.55a12.473 12.473 0 0 1-2.25 7.172c-2.165 3.759-3.146 7.092-3.575 9.032h.81c.434-1.9 1.392-5.06 3.441-8.623a13.262 13.262 0 0 0 2.364-7.581c0-7.356-5.984-13.34-13.34-13.34-7.355 0-13.339 5.984-13.339 13.34 0 2.522.709 4.977 2.048 7.103l.005.008c2.229 3.735 3.256 7.113 3.712 9.093h.813ZM17.283 47.47h.395v-1.776h-.395a.395.395 0 0 1-.395-.395v2.566c0-.218.177-.395.395-.395Z" fill="#333"/>
  <path fill-rule="evenodd" clip-rule="evenodd" d="m33.017 48.12.095-.034v-.22a.387.387 0 0 1-.095.253Z" fill="#594A42"/>
  <path fill-rule="evenodd" clip-rule="evenodd" d="M32.718 45.694h-.396v1.776h.395c.219 0 .396.177.396.395v-2.566a.395.395 0 0 1-.395.395Z" fill="#333"/>
  <path fill-rule="evenodd" clip-rule="evenodd" d="m16.888 48.086.095.033a.387.387 0 0 1-.095-.254v.22Z" fill="#594A42"/>
  <path fill-rule="evenodd" clip-rule="evenodd" d="M17.283 44.904h.395v-1.402h3.582a.395.395 0 0 1-.395-.395v-.395h-3.582a.395.395 0 0 0-.395.395V45.3c0-.218.177-.395.395-.395ZM31.725 42.712h-2.59v.395a.395.395 0 0 1-.395.395h3.582v1.402h.395c.219 0 .396.176.396.395v-2.192a.395.395 0 0 0-.395-.395h-.993Z" fill="#333"/>
  <path fill-rule="evenodd" clip-rule="evenodd" d="m17.402 48.26.276.09v-.09h-.276ZM32.322 48.35l.276-.09h-.276v.09Z" fill="#594A42"/>
  <path fill-rule="evenodd" clip-rule="evenodd" d="M28.345 43.107v-.395h-6.689v.395a.395.395 0 0 1-.395.395h7.479a.395.395 0 0 1-.395-.395ZM17.283 45.695h15.434a.395.395 0 1 0 0-.79H17.283a.395.395 0 1 0 0 .79ZM32.717 47.47H17.283a.395.395 0 0 0-.395.395c0 .097.036.186.095.254.139.048.28.095.42.141h15.194l.42-.141a.387.387 0 0 0 .095-.254.395.395 0 0 0-.395-.395Z" fill="#333"/>
  <path fill-rule="evenodd" clip-rule="evenodd" d="M21.656 43.108V29.43h-.79v13.678a.395.395 0 1 0 .79 0ZM28.345 29.43v13.678a.395.395 0 1 0 .79 0V29.43h-.79ZM31.435 1.86a.486.486 0 0 1-.13-.018 23.981 23.981 0 0 0-2.485-.535.495.495 0 0 1 .156-.975c.87.139 1.74.326 2.589.557a.494.494 0 0 1-.13.97Z" fill="#333"/>
  <path fill-rule="evenodd" clip-rule="evenodd" d="M25 49.958c-6.67 0-12.941-2.598-17.657-7.313A24.808 24.808 0 0 1 .029 24.988c0-6.67 2.598-12.94 7.314-17.658C12.059 2.614 18.33.017 25 .017a.494.494 0 1 1 0 .988A23.826 23.826 0 0 0 8.042 8.029a23.826 23.826 0 0 0-7.025 16.959 23.825 23.825 0 0 0 7.025 16.957A23.823 23.823 0 0 0 25 48.97a23.822 23.822 0 0 0 16.958-7.025 23.826 23.826 0 0 0 7.025-16.957c0-4.494-1.25-8.876-3.616-12.67a24.07 24.07 0 0 0-9.422-8.676.493.493 0 1 1 .452-.879 25.061 25.061 0 0 1 9.81 9.033 24.913 24.913 0 0 1 3.764 13.192c0 6.67-2.598 12.94-7.314 17.657C37.94 47.36 31.67 49.958 25 49.958Z" fill="#333"/>
  <path fill-rule="evenodd" clip-rule="evenodd" d="M34.466 2.132a.629.629 0 1 1-1.258 0 .629.629 0 0 1 1.258 0Z" fill="#333"/>
</svg>