<svg width="1056" height="629" fill="none" xmlns="http://www.w3.org/2000/svg">
  <g opacity=".6">
    <rect x="344.095" y="205.484" width="37.671" height="15.089" rx="2.7" fill="#FBF2E4"/>
    <rect x="609.412" y="104.361" width="37.672" height="15.089" rx="2.7" fill="#FBF2E4"/>
    <rect x="268.275" y="258.27" width="37.672" height="15.089" rx="2.7" fill="#FBF2E4"/>
    <rect x="634.526" y="125.486" width="37.672" height="15.089" rx="2.7" fill="#FBF2E4"/>
    <rect x="908.439" y="484.104" width="45.68" height="18.467" rx="2" fill="#FFF1E0"/>
    <rect x="877.114" y="509.613" width="45.68" height="18.467" rx="2" fill="#FFF1E0"/>
    <rect x="938.42" y="509.613" width="45.68" height="18.467" rx="2" fill="#F8F3E7"/>
    <rect x="769.742" y="456.391" width="45.68" height="18.467" rx="2" transform="rotate(180 769.742 456.391)" fill="#FFF1E0"/>
    <rect x="985.587" y="175.627" width="30.508" height="13.034" rx="2" transform="rotate(180 985.587 175.627)" fill="#FFF1E0"/>
    <rect x="801.067" y="430.883" width="45.68" height="18.467" rx="2" transform="rotate(180 801.067 430.883)" fill="#FFF1E0"/>
    <rect x="1007.06" y="158.248" width="30.508" height="11.948" rx="2" transform="rotate(180 1007.06 158.248)" fill="#FFF1E0"/>
    <rect x="739.746" y="430.883" width="45.68" height="18.467" rx="2" transform="rotate(180 739.746 430.883)" fill="#F8F3E7"/>
    <rect x="966.379" y="158.248" width="30.508" height="11.948" rx="2" transform="rotate(180 966.379 158.248)" fill="#F8F3E7"/>
    <rect x="166.394" y="44.199" width="45.68" height="18.467" rx="2" fill="#FFF1E0"/>
    <rect x="284.779" y="44.199" width="45.68" height="18.467" rx="2" fill="#F8F3E7"/>
    <rect x="716.624" y="51.578" width="45.68" height="18.467" rx="2" fill="#F8F3E7"/>
    <rect x="197.268" y="70.156" width="45.68" height="18.467" rx="2" fill="#F8F3E7"/>
    <rect x="634.182" y=".752" width="45.68" height="18.467" rx="2" fill="#FFF1E0"/>
    <rect x="353.104" y="502.568" width="45.68" height="18.467" rx="2" fill="#FFF1E0"/>
    <rect x="321.193" y="551.447" width="45.68" height="18.467" rx="2" fill="#FFF1E0"/>
    <rect x="264.697" y="528.078" width="45.68" height="18.467" rx="2" fill="#FFF1E0"/>
    <rect x="510.001" y="610.342" width="45.68" height="18.467" rx="2" fill="#F8F3E7"/>
    <rect x="190.122" y="561.223" width="45.68" height="18.467" rx="2" fill="#F8F3E7"/>
    <g opacity=".8">
      <rect x="141.552" y="443.797" width="168.785" height="10.036" rx="2.418" fill="#FBD7AD"/>
      <path d="M196.247 404.123c2.301 5.366-.359 11.51-5.942 13.721l-5.509 2.183c-2.301-5.366.359-11.509 5.942-13.721l5.509-2.183Z" fill="#FFF1E0"/>
      <path d="M182.146 393.867c5.582 2.212 8.242 8.355 5.941 13.722l-2.271 5.296c-5.582-2.212-8.242-8.355-5.941-13.722l2.271-5.296Z" fill="#FBD7AD"/>
      <path d="m184.799 420.017-5.51-2.183c-5.582-2.211-8.242-8.355-5.942-13.721l5.51 2.183c5.582 2.212 8.243 8.355 5.942 13.721ZM203.859 424.986c-.228 10.236-8.925 18.42-19.576 18.42s-19.348-8.184-19.576-18.42c.006-1.562.207-3.118.6-4.634h37.951a18.75 18.75 0 0 1 .601 4.634Z" fill="#FFF1E0"/>
      <rect x="162.331" y="415.432" width="44.869" height="4.927" rx="1.188" fill="#FBD7AD"/>
      <path d="M203.751 422.815h-38.883c.097-.83.252-1.653.466-2.463h37.951c.214.81.37 1.633.466 2.463Z" fill="#FBD7AD"/>
      <path d="M224.129 374.625h9.302c2.876 0 5.207 2.241 5.207 5.005v64.168h-19.715v-64.211c.024-2.747 2.348-4.962 5.206-4.962Z" fill="#FFF1E0"/>
      <ellipse cx="228.77" cy="409.194" rx="6.354" ry="6.108" fill="#FBD7AD"/>
      <path d="M242.498 392.189h6.927c2.143 0 3.881 1.67 3.881 3.73v47.879h-14.688v-47.879c0-2.06 1.737-3.73 3.88-3.73Z" fill="#FBD7AD"/>
      <ellipse cx="245.958" cy="417.989" rx="4.74" ry="4.557" fill="#FFF1E0"/>
    </g>
    <g opacity=".8">
      <path d="M815.576 104.584h4.899c11.137 0 21.817 4.253 29.692 11.823s12.299 17.837 12.299 28.542v79.639h-88.88v-79.639c0-10.705 4.424-20.972 12.299-28.542 7.874-7.57 18.555-11.823 29.691-11.823Z" fill="#FFFAF4"/>
      <path d="M835.208 176.188h-41.527v10.467h41.527v-10.467Z" fill="#FFF1E0"/>
      <path d="M793.482 150.883v75.198h-23.785v-75.198h23.785Zm1.022-.983h-25.829v77.163h25.829V149.9ZM866.788 135.668v90.159h-31.38v-90.159h31.38Zm1.022-.982h-33.424v92.123h33.424v-92.123Z" fill="#FFF1E0"/>
      <path d="M847.877 146.979h.489c1.11 0 2.174.423 2.959 1.178a3.944 3.944 0 0 1 1.227 2.845v9.363h-8.861v-9.363c0-1.067.441-2.09 1.226-2.845a4.271 4.271 0 0 1 2.96-1.178ZM847.877 170.994h.489a4.27 4.27 0 0 1 2.959 1.179 3.942 3.942 0 0 1 1.227 2.845v9.367h-8.861v-9.364c0-1.068.441-2.091 1.226-2.846a4.276 4.276 0 0 1 2.96-1.178v-.003ZM847.877 195.014h.489c1.11 0 2.174.424 2.959 1.178a3.944 3.944 0 0 1 1.227 2.846v9.362h-8.861v-9.362c0-1.068.441-2.091 1.226-2.846a4.276 4.276 0 0 1 2.96-1.178ZM847.877 219.023h.489a4.27 4.27 0 0 1 2.959 1.179 3.944 3.944 0 0 1 1.227 2.845v8.599h-8.861v-8.599c0-1.067.441-2.09 1.226-2.845a4.272 4.272 0 0 1 2.96-1.179ZM776.323 166.877h.488c1.11 0 2.175.424 2.96 1.179a3.945 3.945 0 0 1 1.226 2.845v9.362h-8.86v-9.362c0-1.067.441-2.091 1.226-2.845a4.272 4.272 0 0 1 2.96-1.179ZM776.323 190.893h.488c1.11 0 2.175.424 2.96 1.178a3.947 3.947 0 0 1 1.226 2.846v9.367h-8.86v-9.365a3.866 3.866 0 0 1 .318-1.541c.21-.488.518-.932.907-1.306s.85-.671 1.358-.873a4.342 4.342 0 0 1 1.603-.306ZM776.323 214.91h.488c1.11 0 2.175.424 2.96 1.179a3.945 3.945 0 0 1 1.226 2.845v9.362h-8.86v-9.362c0-1.067.441-2.091 1.226-2.845a4.272 4.272 0 0 1 2.96-1.179ZM867.81 134.686h-33.424v4.016h33.424v-4.016ZM794.504 147.951h-25.829v4.017h25.829v-4.017ZM810.015 196.148h-8.863v10.955h8.863v-10.955ZM810.015 215.93h-8.863v10.954h8.863V215.93ZM826.725 196.148h-8.863v10.955h8.863v-10.955ZM826.725 215.93h-8.863v10.954h8.863V215.93ZM799.568 134.321c3.635 0 6.583-2.834 6.583-6.329 0-3.495-2.948-6.328-6.583-6.328-3.636 0-6.584 2.833-6.584 6.328s2.948 6.329 6.584 6.329Z" fill="#FFF1E0"/>
      <path d="M873.862 224.627H762.191v7.304h111.671v-7.304Z" fill="#FBD7AD"/>
      <path d="M819.792 97.32h-3.529c-27.756 0-50.271 21.638-50.271 48.327v86.285h104.073v-86.285c0-26.689-22.51-48.327-50.273-48.327Zm-5.564 127.308h-40.633v-60.853h40.633v60.853Zm0-68.157h-40.633v-10.576c0-10.563 4.213-20.724 11.772-28.391 7.559-7.666 17.889-12.255 28.861-12.821v51.788Zm48.239 68.157h-40.633v-60.853h40.633v60.853Zm0-68.157h-40.633v-51.788c10.972.566 21.302 5.155 28.861 12.821 7.559 7.667 11.772 17.828 11.772 28.391v10.576Z" fill="#FBD7AD"/>
    </g>
    <rect x="72.61" y="302.711" width="37.287" height="15.207" rx="2.7" fill="#FFF1E0"/>
    <rect x=".295" y="324.436" width="37.288" height="15.207" rx="2.7" fill="#F8F3E7"/>
  </g>
  <rect x="585.344" y="306.553" width="47.089" height="18.107" rx="2.7" fill="#FBF8F1"/>
  <rect x="550.812" y="332.707" width="48.136" height="20.119" rx="2.7" fill="#FFF7EC"/>
  <rect x="491.165" y="332.707" width="48.136" height="20.119" rx="2.7" fill="#FBF8F1"/>
  <rect x="616.736" y="332.707" width="47.089" height="20.119" rx="2.7" fill="#FBF8F1"/>
  <rect x="523.604" y="360.873" width="48.136" height="19.113" rx="2.7" fill="#FFF7EC"/>
  <path d="M1029.17 511.245c4.22-.199 12.76 2.27 13.22 13.739-4.4 0-13.22-2.748-13.22-13.739Z" fill="#A1AF63"/>
  <path d="M1055.62 511.245c-4.22-.199-12.77 2.27-13.23 13.739 4.41 0 13.23-2.748 13.23-13.739Z" fill="#A1AF63"/>
  <rect x="56.897" y="416.199" width="34.532" height="14.083" rx="2.7" fill="#FFF1E0"/>
</svg>