<svg width="24" height="23" viewBox="0 0 24 23" fill="none" xmlns="http://www.w3.org/2000/svg">
<path d="M15.9292 4.88318L15.892 4.92845L15.8641 4.98008C15.8707 4.96797 15.8645 4.97742 15.8357 5.0217C15.8185 5.048 15.7934 5.08658 15.7581 5.14022C15.6779 5.26242 15.5625 5.43713 15.4168 5.65722C15.1254 6.09723 14.7141 6.71664 14.2225 7.45582C13.2394 8.93407 11.9361 10.8902 10.6318 12.8457C9.32758 14.8012 8.02247 16.7557 7.03571 18.2307C6.54229 18.9683 6.12866 19.5857 5.83459 20.0233C5.6875 20.2421 5.57066 20.4155 5.48883 20.5363C5.44783 20.5968 5.4162 20.6432 5.39417 20.6752C5.38278 20.6918 5.37601 20.7015 5.37271 20.7062L5.34713 20.7372L5.31918 20.7892C4.94695 21.4814 4.30372 21.9175 3.58809 21.9458C2.46554 21.9902 1.40344 20.9904 1.34702 19.5626C1.31933 18.8619 1.54852 18.2288 1.92621 17.7702L1.96361 17.7248L1.99147 17.673C1.98488 17.6852 1.991 17.6758 2.01994 17.6314C2.03705 17.6051 2.06214 17.5666 2.09731 17.5131C2.17758 17.3909 2.29295 17.2162 2.43867 16.9961C2.73001 16.556 3.14136 15.9366 3.63295 15.1974C4.61605 13.7192 5.91933 11.763 7.2236 9.80759C8.52787 7.85214 9.83297 5.89762 10.8197 4.42261C11.3132 3.68506 11.7268 3.06768 12.0209 2.63011C12.1679 2.41123 12.2848 2.23787 12.3666 2.11711C12.4076 2.0566 12.4392 2.01016 12.4613 1.97813C12.4727 1.96156 12.4794 1.95189 12.4827 1.94717L12.5083 1.91617L12.5362 1.86425C12.9085 1.17212 13.5518 0.735835 14.2674 0.707558C15.3899 0.663197 16.452 1.66301 16.5084 3.09051C16.5361 3.79174 16.3069 4.42457 15.9292 4.88318Z" fill="#3364F3" stroke="white" stroke-width="1.2"/>
<path d="M20.0545 12.0137L20.0255 12.052L20.0042 12.095C20.0046 12.0942 19.9999 12.1022 19.9897 12.1192C19.962 12.1656 19.894 12.2796 19.7794 12.4691C19.6338 12.7098 19.4302 13.0446 19.1877 13.4423C18.7027 14.2375 18.063 15.2828 17.4223 16.3275C16.7816 17.3722 16.1402 18.4158 15.6517 19.2077C15.4074 19.6038 15.2017 19.9364 15.0535 20.1746C14.9793 20.2939 14.92 20.3887 14.8777 20.4558C14.8562 20.4899 14.8418 20.5123 14.8331 20.5258C14.821 20.5448 14.8199 20.5465 14.8256 20.5391L14.7964 20.5774L14.7752 20.6205C14.4138 21.3532 13.7958 21.7959 13.1262 21.8223C12.0777 21.8638 11.0299 20.8351 10.9695 19.306C10.9401 18.5605 11.1634 17.8907 11.5292 17.4094L11.5582 17.3711L11.5795 17.3281C11.5791 17.3289 11.5838 17.3209 11.594 17.3039C11.6217 17.2575 11.6897 17.1435 11.8043 16.954C11.9499 16.7133 12.1535 16.3785 12.396 15.9808C12.881 15.1856 13.5207 14.1403 14.1613 13.0957C14.802 12.051 15.4434 11.0074 15.9319 10.2154C16.1761 9.8194 16.3819 9.48673 16.53 9.2485C16.6042 9.12928 16.6635 9.03441 16.7058 8.96732C16.7275 8.93308 16.7418 8.91063 16.7505 8.89704C16.7626 8.87824 16.7638 8.87639 16.7582 8.88374L16.7871 8.8456L16.8083 8.80266C17.1699 8.06991 17.788 7.6272 18.4575 7.60074C19.506 7.55931 20.5538 8.588 20.6142 10.1168C20.6437 10.8626 20.4204 11.5324 20.0545 12.0137Z" fill="#3364F3" stroke="white"/>
<path fill-rule="evenodd" clip-rule="evenodd" d="M24 3.5C24 4.88084 22.8807 6 21.5 6C20.1192 6 19 4.88084 19 3.5C19 2.11935 20.1192 1 21.5 1C22.8807 1 24 2.11935 24 3.5Z" fill="#3364F3"/>
<path fill-rule="evenodd" clip-rule="evenodd" d="M9 3.5C9 4.88084 7.88065 6 6.5 6C5.11935 6 4 4.88084 4 3.5C4 2.11935 5.11935 1 6.5 1C7.88065 1 9 2.11935 9 3.5Z" fill="#3364F3"/>
</svg>
