<svg width="28" height="23" viewBox="0 0 28 23" fill="none" xmlns="http://www.w3.org/2000/svg">
<path d="M4.18868 0.585938C2.42264 0.585938 1 2.00858 1 3.77462V18.9822C1 20.7482 2.42264 22.1708 4.18868 22.1708H23.8113C25.5038 22.1708 27 20.7973 27 19.2274V3.77462C27 2.00858 25.5774 0.585938 23.8113 0.585938H4.18868ZM4.18868 2.05764H23.8113C24.7679 2.05764 25.5283 2.81801 25.5283 3.77462V19.2274C25.5283 19.9142 24.7679 20.6991 23.8113 20.6991H4.18868C3.23208 20.6991 2.4717 19.9388 2.4717 18.9822V3.77462C2.4717 2.81801 3.23208 2.05764 4.18868 2.05764ZM5.00453 6.661C4.86435 6.66311 4.72769 6.70521 4.61062 6.78235C4.49356 6.8595 4.40096 6.96848 4.34374 7.09646C4.28652 7.22445 4.26704 7.36612 4.28761 7.5048C4.30817 7.64348 4.36793 7.7734 4.45983 7.87927C4.45983 7.87927 5.74495 9.40533 7.54503 10.9338C9.34511 12.4623 11.6468 14.0765 14 14.0765C16.3532 14.0765 18.6549 12.4623 20.455 10.9338C22.255 9.40533 23.5402 7.87927 23.5402 7.87927C23.6036 7.80553 23.6517 7.71996 23.6818 7.6275C23.7119 7.53504 23.7234 7.43753 23.7156 7.34061C23.7078 7.24368 23.6809 7.14926 23.6364 7.0628C23.5919 6.97634 23.5307 6.89956 23.4564 6.83689C23.382 6.77422 23.296 6.7269 23.2032 6.69768C23.1105 6.66845 23.0129 6.6579 22.916 6.66662C22.8192 6.67535 22.725 6.70318 22.639 6.74851C22.553 6.79384 22.4768 6.85577 22.4148 6.93072C22.4148 6.93072 21.1978 8.3724 19.5026 9.81184C17.8074 11.2513 15.6204 12.6048 14 12.6048C12.3796 12.6048 10.1926 11.2513 8.49742 9.81184C6.80222 8.3724 5.58516 6.93072 5.58516 6.93072C5.51495 6.84493 5.42626 6.77612 5.32571 6.72941C5.22517 6.68271 5.11538 6.65932 5.00453 6.661Z" fill="#3364F3" stroke="#3364F3" stroke-width="0.4"/>
</svg>
