<svg width="129" height="420" fill="none" xmlns="http://www.w3.org/2000/svg">
  <path fill-rule="evenodd" clip-rule="evenodd" d="m125.578 215.761 3.131 16.957c.034 2.243-1.005 4.265-2.775 5.4l-6.629 4.248c-2.31 1.482-5.335 1.435-7.855-.119l-5.773-3.562c-2.149-1.326-3.571-3.665-3.746-6.168l-.371-5.276c-.128-1.823 1.475-3.099 3.184-2.537.495.162.925.514 1.201.978l1.137 1.916.815-11.737s9.557 3.794 17.681-.1ZM36.33 419.161l-16.318-.112.122-21.712 18.914.129-.106 18.858c-.01 1.577-1.178 2.847-2.613 2.837Z" fill="#FFC0AF"/>
  <path fill-rule="evenodd" clip-rule="evenodd" d="m.046 418.937 38.88.24.073-11.881-28.085-.173C4.952 407.086.09 411.878.054 417.824l-.008 1.113Z" fill="#333"/>
  <path fill-rule="evenodd" clip-rule="evenodd" d="m73.925 419.161 16.319-.112-.121-21.712-18.916.129.106 18.858c.01 1.577 1.178 2.847 2.612 2.837Z" fill="#FFC0AF"/>
  <path fill-rule="evenodd" clip-rule="evenodd" d="m110.21 418.937-38.88.24-.073-11.881 28.086-.173c5.961-.037 10.822 4.755 10.861 10.701l.006 1.113ZM105.493 199.825l-.624-4.478c-.175-1.26-1.243-2.195-2.496-2.187l-71.302.459c-1.302.008-2.381 1.028-2.482 2.346l-12.705 205.62c-.114 1.476 1.037 2.739 2.497 2.739h23.082c1.28 0 2.356-.981 2.492-2.275l18.62-139.809c.134-1.284 2.005-1.191 2.014.099l3.128 140.281c.012 1.396 1.13 2.521 2.506 2.521h21.5c1.356 0 2.469-1.097 2.504-2.475l11.949-193.088-.006-.248-.659-9.331-.018-.174Z" fill="#333"/>
  <path fill-rule="evenodd" clip-rule="evenodd" d="m105.502 221.556-68.647-3.26-.675-5.614 69.21 1.558.112 7.316Z" fill="#91A5B4"/>
  <path fill-rule="evenodd" clip-rule="evenodd" d="m19.656 220.88.908 11.96s2.125 25.916 12.294 21.935c0 0 3.848-.52 3.546-2.685-1.822-13.098-1.086-15.708-1.086-15.711-.076.537 1.102 2.059 1.389 2.528.532.867 1.132 1.694 1.883 2.387 1.28 1.181 3.164 1.58 4.644.454.254-.194.494-.449.528-.768.03-.283-.108-.555-.245-.806-1.314-2.409-2.902-4.662-4.163-7.1 0 0 .948-4.183-1.733-7.803a10.458 10.458 0 0 1-.262-.368c-2.124-3.091-5.766-4.785-9.515-4.546l-8.188.523Z" fill="#FFC0AF"/>
  <path fill-rule="evenodd" clip-rule="evenodd" d="m29.088 153.813 1.781-4.233-.278 16.712-1.503-12.479Zm99.153 60.865-1.298-106.319c-.142-11.638-7.173-22.091-17.914-26.63L81.388 70.044l-25.76 1.707-30.533 13.075A22.243 22.243 0 0 0 13.648 99.07l-12.01 46.396a23.932 23.932 0 0 0-.215 11.09l14.255 65.418a2.569 2.569 0 0 0 2.735 2.011l16.111-1.407a2.733 2.733 0 0 0 2.48-3.049l-.824-6.847 69.211 1.558.286-4.068.222 5.871a2.756 2.756 0 0 0 2.861 2.648l16.24-.613a3.363 3.363 0 0 0 3.241-3.399Z" fill="#4756DF"/>
  <path fill-rule="evenodd" clip-rule="evenodd" d="m30.87 167.362 5.31 45.32 3.557-.049-8.868-45.271ZM111.094 117.286l-5.079 13.936-.513 81.411 5.592-95.347Z" fill="#434862"/>
  <path fill-rule="evenodd" clip-rule="evenodd" d="M95.77 8.985c-3.222-4.014-7.79-3.257-11.031-1.752-.74.342-1.564-.297-1.404-1.093.392-1.939.07-4.509-3.8-5.578-5.309-1.47-6.57 1.882-8.197 3.666a8.92 8.92 0 0 0-2.635-.577 8.904 8.904 0 0 0-7.508 3.294c-.622-.007-1.29-.03-2.023-.077a10.016 10.016 0 0 0-1.451.021 8.907 8.907 0 0 0-6.69 3.606c-2.135 2.72-3.184 6.905-2.14 12.41l.09.347c-.006.266-.01.539-.013.82-.891 1.03-1.45 2.355-1.45 3.823 0 1.71.744 3.237 1.914 4.31a5.809 5.809 0 0 0-1.223 3.55c0 1.933.947 3.634 2.393 4.705v1.3H88.9V30.119c3.64.002 6.707-2.811 6.946-6.488a6.92 6.92 0 0 0-2.262-5.582c2.092-1.917 5.01-5.544 2.186-9.063Z" fill="#333"/>
  <path fill-rule="evenodd" clip-rule="evenodd" d="m88.856 22.387-.144.022c-1.945 2.919-5.399 4.754-9.215 4.507a10.296 10.296 0 0 1-6.783-3.143l-.846.008c-1.963 2.462-5.1 3.96-8.533 3.74a10.119 10.119 0 0 1-5.516-2.064c.131 1.993-.506 4.064-3.418 4.668v2.728h-2.317a4.984 4.984 0 0 0-4.99 4.977v1.729a4.983 4.983 0 0 0 4.99 4.977H54.4v6.416c0 4.16 1.809 7.889 4.67 10.479v11.618c0 7.02 5.758 12.765 12.795 12.765 7.036 0 12.794-5.744 12.794-12.764V61.705c3.041-2.597 4.974-6.447 4.974-10.754V22.858c-.271-.306-.538-.51-.778-.471Z" fill="#FFC0AF"/>
  <path d="M75 53.48c.692.46 3.5 1.084 5-.48" stroke="#333" stroke-width=".863" stroke-miterlimit="10" stroke-linecap="round"/>
  <path fill-rule="evenodd" clip-rule="evenodd" d="m58.506 93.535.482.796c5.224 8.644 17.61 9.123 23.492.91L71.42 80.64 58.505 93.535Z" fill="#FFCE50"/>
  <path fill-rule="evenodd" clip-rule="evenodd" d="m58.782 70.052 11.46 9.914a2.525 2.525 0 0 1 .321 3.488l-8.082 10.102a2.538 2.538 0 0 1-3.976-.02l-7.786-9.93a2.525 2.525 0 0 1-.327-2.568l4.41-10.086a2.535 2.535 0 0 1 3.98-.9Z" fill="#fff"/>
  <path fill-rule="evenodd" clip-rule="evenodd" d="m71.034 82.977 8.599 12.334a1.707 1.707 0 0 0 2.846-.07l9.171-14.654a1.698 1.698 0 0 0 .118-1.582l-3.58-8.176a1.707 1.707 0 0 0-2.578-.685L71.419 80.64a1.7 1.7 0 0 0-.385 2.337Z" fill="#fff"/>
</svg>