<svg width="100" height="101" viewBox="0 0 100 101" fill="none" xmlns="http://www.w3.org/2000/svg">
<path d="M100 50.2539C100 77.8681 77.6142 100.254 50 100.254C22.3858 100.254 0 77.8681 0 50.2539C0 22.6397 22.3858 0.253906 50 0.253906C77.6142 0.253906 100 22.6397 100 50.2539Z" fill="white"/>
<path d="M63.488 37.7217L62.7198 36.9535C59.4557 33.8814 55.2318 32.1151 50.739 32H49.7024C39.9104 32.3072 32 40.3712 32 50.24C32 54.9248 33.7665 59.3408 36.9921 62.7584L37.7603 63.5266C41.1395 66.7521 45.5939 68.5187 50.2787 68.5187C60.3395 68.5187 68.5187 60.3395 68.5187 50.2787C68.4801 45.5553 66.7136 41.1395 63.4881 37.7219L63.488 37.7217ZM43.0208 57.4593C41.1008 55.5393 40.0256 52.9665 40.0256 50.2401C40.0256 44.6335 44.5953 40.0641 50.2016 40.0641C52.9281 40.0641 55.5009 41.1393 57.4208 43.0593C59.3407 44.9793 60.416 47.5521 60.416 50.2785C60.416 55.885 55.8463 60.4545 50.24 60.4545C47.5135 60.4159 44.9407 59.3793 43.0208 57.4593ZM61.9904 37.7217L57.8049 41.9072C55.8465 40.1407 53.389 39.1041 50.7777 38.9889V33.0751C55.0018 33.1903 58.9185 34.8417 61.9905 37.7217H61.9904ZM33.0752 50.2401C33.0752 40.9473 40.4864 33.3441 49.7024 33.0753V38.9887C43.7503 39.2577 38.9888 44.2111 38.9888 50.2399C38.9888 53.0816 40.0257 55.731 41.9071 57.8047L37.7216 61.9903C34.7264 58.8031 33.0751 54.6559 33.0751 50.2399L33.0752 50.2401ZM50.24 67.4049C45.8241 67.4049 41.6768 65.7538 38.4896 62.7583L42.6751 58.5728C44.7486 60.4545 47.4368 61.4911 50.2399 61.4911C56.4607 61.4911 61.4911 56.4608 61.4911 50.2399C61.4911 47.3983 60.4543 44.7489 58.5728 42.6751L62.7583 38.4896C65.7535 41.6768 67.4049 45.8624 67.4049 50.24C67.4049 59.7248 59.7249 67.4048 50.2401 67.4048L50.24 67.4049Z" fill="#132660" stroke="#132660"/>
</svg>
