<svg width="368" height="380" fill="none" xmlns="http://www.w3.org/2000/svg">
  <path fill-rule="evenodd" clip-rule="evenodd" d="M8.61 198.933c1.653-3.041 4.723-36.28 6.877-42.569 2.292-6.689 5.748-12.863 10.331-18.569 27.97-34.819 48.376-9.784 73.433-28.888 6.716-5.12 12.099-11.533 19.338-16.138 23.52-14.967 53.802-10.947 77.465 1.215 11.911 6.122 20.193 18.592 33.848 21.725 21.022 4.823 41.899-10.488 63.014-10.941 54.457-1.167 63.06 54.637 62.867 91.166-.044 8.441-1.229 16.948-4.032 25.035-1.916 5.526-4.769 10.728-8.3 15.596-26.63 36.71-59.168 7.052-93.388 16.758-27.705 7.859-48.016 42.832-82.791 36.168-26.843-5.144-30.497-23.13-57.528-27.669-26.33-4.421-42.454-6.246-68.003 1.381-45.695 13.641-48.966-35.141-33.131-64.27Z" fill="#FFF1E0"/>
  <path fill-rule="evenodd" clip-rule="evenodd" d="m196.506 192.044 2.892 15.058c.032 1.992-.928 3.788-2.563 4.795l-6.123 3.773c-2.135 1.316-4.929 1.274-7.257-.106l-5.333-3.163c-1.985-1.177-3.298-3.255-3.46-5.478l-.343-4.685c-.118-1.618 1.363-2.752 2.942-2.252.456.144.854.456 1.109.868l1.05 1.701.753-10.422s8.829 3.369 16.333-.089ZM114.06 372.667l-15.074-.099.113-19.281 17.473.114-.098 16.747c-.009 1.4-1.089 2.528-2.414 2.519Z" fill="#FFC0AF"/>
  <path fill-rule="evenodd" clip-rule="evenodd" d="m80.543 372.471 35.916.212.068-10.55-25.945-.153c-5.506-.033-9.997 4.222-10.032 9.502l-.007.989Z" fill="#333"/>
  <path fill-rule="evenodd" clip-rule="evenodd" d="m148.79 372.667 15.075-.099-.112-19.281-17.474.114.099 16.747c.008 1.4 1.088 2.528 2.412 2.519Z" fill="#FFC0AF"/>
  <path fill-rule="evenodd" clip-rule="evenodd" d="m182.309 372.471-35.916.212-.068-10.55 25.945-.153c5.507-.033 9.998 4.222 10.033 9.502l.006.989ZM177.952 177.893l-.576-3.977c-.162-1.119-1.149-1.949-2.306-1.941l-65.867.407c-1.203.007-2.2.913-2.293 2.083L95.173 357.059c-.105 1.311.958 2.432 2.307 2.432h21.322c1.183 0 2.177-.871 2.302-2.02l17.201-124.153c.124-1.139 1.852-1.057 1.861.089l2.89 124.571c.01 1.24 1.043 2.239 2.314 2.239h19.861c1.254 0 2.281-.974 2.314-2.198l11.038-171.465-.006-.221-.608-8.285-.017-.155Z" fill="#333"/>
  <path fill-rule="evenodd" clip-rule="evenodd" d="m177.96 197.19-63.414-2.894-.624-4.986 63.935 1.383.103 6.497Z" fill="#91A5B4"/>
  <path fill-rule="evenodd" clip-rule="evenodd" d="m98.658 196.591.839 10.62s1.963 23.014 11.357 19.479c0 0 3.554-.462 3.275-2.385-1.683-11.631-1.002-13.949-1.002-13.951-.072.476 1.017 1.828 1.282 2.245.491.77 1.045 1.504 1.74 2.119 1.182 1.049 2.922 1.403 4.29.404.235-.173.456-.4.488-.682.028-.252-.101-.494-.227-.716-1.214-2.14-2.68-4.14-3.846-6.305 0 0 .876-3.715-1.6-6.929-.085-.11-.165-.218-.243-.327-1.962-2.745-5.326-4.249-8.789-4.037l-7.564.465Z" fill="#FFC0AF"/>
  <path fill-rule="evenodd" clip-rule="evenodd" d="m107.371 137.035 1.646-3.76-.258 14.841-1.388-11.081Zm91.595 54.049-1.199-94.413c-.131-10.335-6.627-19.617-16.549-23.649l-25.534-10.375-23.796 1.516-28.206 11.612c-5.25 2.57-9.1 7.173-10.574 12.646l-11.094 41.201a20.451 20.451 0 0 0-.199 9.848l13.168 58.092c.253 1.121 1.336 1.885 2.527 1.786l14.883-1.25c1.424-.119 2.462-1.346 2.29-2.708l-.761-6.079 63.935 1.383.265-3.612.205 5.213c.053 1.35 1.236 2.403 2.643 2.352l15.002-.545c1.686-.06 3.014-1.399 2.994-3.018Z" fill="#4756DF"/>
  <path fill-rule="evenodd" clip-rule="evenodd" d="m109.017 149.067 4.905 40.245 3.287-.043-8.192-40.202ZM183.126 104.598l-4.693 12.375-.473 72.294 5.166-84.669Z" fill="#434862"/>
  <path fill-rule="evenodd" clip-rule="evenodd" d="M168.969 8.425c-2.976-3.564-7.195-2.893-10.19-1.556-.682.304-1.444-.264-1.296-.97.362-1.722.064-4.004-3.51-4.954-4.905-1.305-6.069 1.672-7.572 3.256a8.529 8.529 0 0 0-2.435-.512c-2.774-.173-5.311.997-6.936 2.924a36.016 36.016 0 0 1-1.869-.068 9.622 9.622 0 0 0-1.34.019c-2.515.128-4.754 1.349-6.18 3.202-1.972 2.416-2.941 6.131-1.978 11.02l.084.309c-.005.235-.008.478-.011.728-.824.914-1.34 2.091-1.34 3.394 0 1.52.687 2.875 1.768 3.828-.699.878-1.13 1.961-1.13 3.151 0 1.718.875 3.228 2.211 4.18v1.154h35.378V27.192c3.363.002 6.196-2.497 6.416-5.762.132-1.947-.695-3.737-2.089-4.957 1.932-1.703 4.628-4.923 2.019-8.048Z" fill="#333"/>
  <path fill-rule="evenodd" clip-rule="evenodd" d="m162.582 20.325-.132.02c-1.797 2.592-4.988 4.222-8.512 4.003-2.489-.155-4.683-1.207-6.267-2.791l-.781.007c-1.814 2.186-4.711 3.517-7.883 3.32a9.578 9.578 0 0 1-5.096-1.832c.122 1.77-.467 3.609-3.156 4.145v2.422h-2.141c-2.546 0-4.609 1.98-4.609 4.42v1.536c0 2.44 2.063 4.42 4.609 4.42h2.141v5.697c0 3.695 1.67 7.005 4.314 9.305v10.318c0 6.234 5.318 11.335 11.819 11.335 6.5 0 11.818-5.1 11.818-11.335V55.242c2.81-2.306 4.596-5.725 4.596-9.55V20.744c-.251-.271-.498-.453-.72-.419Z" fill="#FFC0AF"/>
  <path d="M149.783 47.938c.639.407 3.233.962 4.619-.427" stroke="#333" stroke-width=".633" stroke-miterlimit="10" stroke-linecap="round"/>
  <path fill-rule="evenodd" clip-rule="evenodd" d="m134.547 83.507.445.707c4.826 7.676 16.269 8.101 21.701.807l-10.217-12.965-11.929 11.451Z" fill="#FFCE50"/>
  <path fill-rule="evenodd" clip-rule="evenodd" d="m134.802 62.654 10.587 8.804a2.18 2.18 0 0 1 .296 3.097l-7.465 8.97c-.944 1.133-2.742 1.124-3.674-.017l-7.193-8.818a2.171 2.171 0 0 1-.302-2.28l4.074-8.957c.63-1.389 2.486-1.792 3.677-.799Z" fill="#fff"/>
  <path fill-rule="evenodd" clip-rule="evenodd" d="m146.12 74.13 7.944 10.952c.645.891 2.029.857 2.629-.062l8.472-13.013c.276-.422.316-.947.109-1.404l-3.308-7.261c-.405-.89-1.567-1.187-2.381-.609l-13.109 9.321a1.471 1.471 0 0 0-.356 2.076Z" fill="#fff"/>
  <g clip-path="url(#a)">
    <path fill-rule="evenodd" clip-rule="evenodd" d="M227.141 28.91s10.274-12.866 21.598-1.738c11.323 11.13-5.462 32.598-1.473 43.343 3.989 10.746 17.409 0 17.409 0s-6.592 14.408-17.409 14.133c-17.02-.433-16.605-32.717-16.605-32.717s3.91-26.047-3.52-23.021Z" fill="#434862"/>
    <path fill-rule="evenodd" clip-rule="evenodd" d="M225.716 66.391h6.541c5.706 0 10.774-3.601 12.693-8.973l.036-.1c6.822-19.012-8.278-31.973-23.469-28.99-15.189 2.982-14.55 18.875-14.55 18.875v.45c0 10.349 8.394 18.738 18.749 18.738Z" fill="#434862"/>
    <path fill-rule="evenodd" clip-rule="evenodd" d="M232.88 77.845c-9.447 10.154-15.847 5.068-15.847 5.068l-1.297-12.23 10.921-6.832 2.813-1.758.087.405.158.74 3.165 14.607ZM215.741 45.762s-5.603-3.649-8.653 1.756c-3.051 5.404 1.33 9.993 6.883 8.857l1.77-10.613Z" fill="#FFC0AF"/>
    <path fill-rule="evenodd" clip-rule="evenodd" d="M237.962 52.069c-1.221 2.127-2.926 4.708-4.921 7.287a67.22 67.22 0 0 1-2.326 2.838c-6.655 7.647-15.596 10.52-19.921 5.473-3.131-3.655-4.204-8.819-3.72-13.367a31.49 31.49 0 0 1 .317-2.219c1.457-8.241 5.748-15.302 5.748-15.302 4.695-6.702 10.399-8.24 16.58-6.416 5.577 1.64 14.581 10.66 8.243 21.706Z" fill="#FFC0AF"/>
    <path d="M213.268 59.03c.366.315 1.852.743 2.646-.33" stroke="#333" stroke-width=".633" stroke-miterlimit="10" stroke-linecap="round"/>
    <path fill-rule="evenodd" clip-rule="evenodd" d="M239.522 55.172c-.186 2.66-1.435 4.44-3.117 5.285a5.349 5.349 0 0 1-1.017.385c-2.069.55-4.54-.116-6.493-2.067l4.371-9.833s6.689.04 6.256 6.23Z" fill="#FFC0AF"/>
    <path fill-rule="evenodd" clip-rule="evenodd" d="M230.272 38.27s-3.358 3.55-6.582 3.124c-3.224-.426 1.786-5.184 1.786-5.184s-4.474 3.621-6.695 3.48c-2.223-.142.406-4.656.406-4.656s-3.979 4.868-6.252 3.804c-2.274-1.066 1.307-5.824 5.343-7.954s15.974-4.56 21.039 3.267c4.141 6.4 1.882 14.482-1.187 17.057 0 0-3.638-2.63-5.962-.4-2.322 2.232-2.82 4.759-4.312 3.744-1.492-1.015 3.054-6.696 3.126-10.957.072-4.261-.71-5.325-.71-5.325Z" fill="#434862"/>
    <path fill-rule="evenodd" clip-rule="evenodd" d="M200.266 170.809s.781 3.215-.14 6.243c-.922 3.027 1.97 3.633 2.199.119.194-2.963-2.059-6.362-2.059-6.362Z" fill="#E5767A"/>
    <path fill-rule="evenodd" clip-rule="evenodd" d="M201.458 153.545s1.284-2.072 4.073-.65c2.788 1.422 4.771 5.645 3.717 6.807-1.055 1.164-3.207-3.066-4.722-2.451-1.515.613 1.206 9.455 1.773 11.968.565 2.514.888 12.48-1.423 11.598-2.31-.882-1.778-3.24-3.758-7.373-2.024-4.226-4.142-7.996-5.244-10.409-1.92-4.206 5.584-9.49 5.584-9.49Z" fill="#FFC0AF"/>
    <path fill-rule="evenodd" clip-rule="evenodd" d="M196.228 161.695s-15.246-6.764-19.969-10.332l8.409-8.61 16.808 10.473s2.023 9.377-5.248 8.469Z" fill="#FFC0AF"/>
    <path fill-rule="evenodd" clip-rule="evenodd" d="M199.067 169.055s2.201 6.051 1.904 8.917c-.321 3.107 1.85 4.905 2.67-.117.819-5.022-4.574-8.8-4.574-8.8Z" fill="#EFA593"/>
    <path fill-rule="evenodd" clip-rule="evenodd" d="M203.519 89.119c-1.251-.787-1.625-5.76-5.544-3.761-1.351.689-4.882 4.068-5.675 5.36l-26.991 43.969a9.37 9.37 0 0 0 2.278 12.203l12.674 11.495 12.56-15.598-7.158-5.581.35-.583.295-.496 20.536-33.204c2.66-4.444 1.058-11.044-3.325-13.804Z" fill="#FFCE50"/>
    <path fill-rule="evenodd" clip-rule="evenodd" d="M199.212 113.729c.169.53.338 1.057.501 1.579 1.941 6.199 3.568 12.027 3.38 15.876-.523 10.67-2.753 34.269-2.753 34.269 16.402 10.132 47.294-2.099 47.294-2.099-2.945-11.423-3.774-20.143-2.073-32.887.393-2.943 1.274-6.409 2.297-10.083.134-.48.272-.964.411-1.452 3.367-11.902 7.692-25.484 1.443-30.354-6.002-4.675-11.063-7.739-15.053-9.552-1.628-.744-2.63-1.152-2.63-1.152l-13.822.62s-1.09.103-2.794.364c-5.453.832-17.761 4.65-20.66 8.963-2.782 4.14 1.111 15.357 4.459 25.908Z" fill="#FFCE50"/>
    <path fill-rule="evenodd" clip-rule="evenodd" d="M215.736 78.853c.077.893.351 1.966.741 3.125 1.817 5.359 6.256 12.56 6.256 12.56l9.601-12.161v-.009l.009-.01 2.633-3.335c-1.625-.75-2.633-1.149-2.633-1.149l-13.813.617s-1.093.096-2.794.362Z" fill="#FFC0AF"/>
    <path fill-rule="evenodd" clip-rule="evenodd" d="M216.613 82.258c1.817 5.358 6.256 12.56 6.256 12.56l9.602-12.161v-.009c-.381.17-9.755 4.446-15.858-.39Z" fill="#fff"/>
    <path fill-rule="evenodd" clip-rule="evenodd" d="M225.471 340.019s-4.245 1.728-4.401 7.697c-.158 5.971 0 21.367 0 21.367h2.165l1.175-5.429s.747 5.901 3.734 9.672c2.987 3.771 9.432 3.928 13.677 3.299 4.244-.629 1.1-8.484-.629-12.884-1.73-4.398-5.347-14.924-5.347-14.924l-10.374-8.798Z" fill="#434862"/>
    <path fill-rule="evenodd" clip-rule="evenodd" d="M226.921 331.251s.135 7.28-1.123 8.538c-1.257 1.256-2.987 5.342-1.729 10.369 1.257 5.027 2.096 12.359 5.031 15.501 2.934 3.143 10.585 3.248 11.214.733.629-2.514-3.878-11.835-4.088-16.654-.209-4.818-1.047-17.806-1.047-17.806l-8.258-.681Z" fill="#FFC0AF"/>
    <path fill-rule="evenodd" clip-rule="evenodd" d="M225.62 271.438c-1.37 4.652-1.856 24.282-1.837 35.997.01 4.654 2.565 22.349 2.503 29.98l9.019.379c1.981-14.988 7.07-39.248 9.387-52.307.103-.574.199-1.126.288-1.655.404-2.351.691-4.239.819-5.513.214-2.139.479-5.421.772-9.475.039-.527.078-1.073.121-1.62.326-4.576.685-9.997 1.053-15.789.171-2.684.341-5.447.518-8.246 1.48-23.972 2.953-50.462 2.953-50.462l-27.584 2.453s1.339 28.057 1.985 50.191c.066 2.184.126 4.312.171 6.35.248 10.258.274 18.219-.168 19.717Z" fill="#FFC0AF"/>
    <path fill-rule="evenodd" clip-rule="evenodd" d="M162.486 362.164c2.084-3.36 20.767-21.269 20.767-21.269s3.82 2.991 3.635 6.287c-.176 3.137-.044 19.649-.09 21.389h-2.267l-1.278-7.533s-5.165 8.258-9.043 11.086c-3.878 2.828-16.982 2.32-20.126 1.901-3.144-.419 6.318-8.501 8.402-11.861Z" fill="#434862"/>
    <path fill-rule="evenodd" clip-rule="evenodd" d="m185.431 333.488-2.482 7.368s1.05 2.408 0 5.971c-1.047 3.56-6.497 9.112-8.803 13.406-2.305 4.294-10.271 7.227-12.366 6.285-2.097-.942 3.982-8.17 5.764-11.941 1.781-3.771 3.197-7.724 4.506-10.684 1.164-2.63 4.076-10.888 4.076-10.888l9.305.483Z" fill="#FFC0AF"/>
    <path fill-rule="evenodd" clip-rule="evenodd" d="M174.505 337.704c4.818.835 4.598-.187 9.452.379 4.194-12.618 16.773-38.155 19.07-44.1 4.485-11.573 5.071-27.869 5.071-27.869l24.012-70.899-30.073-3.365-13.013 69.774-.272 1.501-14.247 74.579Z" fill="#FFC0AF"/>
    <path fill-rule="evenodd" clip-rule="evenodd" d="M180.646 245.02s7.602 1.451 18.142 2.834c.561.074 1.13.146 1.706.219 19.291 2.438 47.097 4.395 57.15-2.715 0 0 7.585-47.031-7.769-82.534a78.963 78.963 0 0 0-3.868-7.797c-16.58 5.01-31.546 7.551-44.969 4.117 0 0-.8 3.3-2.083 8.61-.112.47-.228.955-.351 1.455-5.181 21.473-16.926 70.273-17.958 75.811Z" fill="#4756DF"/>
    <path fill-rule="evenodd" clip-rule="evenodd" d="M254.937 171.686s.15 3.306 1.883 5.954c1.733 2.649-.873 4.04-2.078.73-1.016-2.79.195-6.684.195-6.684Z" fill="#FFC0AF"/>
    <path fill-rule="evenodd" clip-rule="evenodd" d="M248.477 155.62s-1.812-1.63-4.091.516-3 6.755-1.662 7.576c1.338.821 2.221-3.842 3.846-3.676 1.627.166 1.491 9.415 1.652 11.986.161 2.571 2.644 12.23 4.615 10.736 1.971-1.494.799-3.608 1.541-8.13.76-4.623 1.738-8.835 2.119-11.46.664-4.575-8.02-7.548-8.02-7.548Z" fill="#FFC0AF"/>
    <path fill-rule="evenodd" clip-rule="evenodd" d="M252.29 163.199s14.835-7.621 19.346-11.452l-8.884-8.118-16.185 11.413s-1.485 9.478 5.723 8.157ZM255.149 169.055s-.418 6.424.672 9.093c1.178 2.893-.402 5.227-2.596.635-2.194-4.592 1.924-9.728 1.924-9.728Z" fill="#FFC0AF"/>
    <path fill-rule="evenodd" clip-rule="evenodd" d="M241.788 90.886c1.204-.857 3.845-3.692 7.871-1.92 1.388.61 1.691.388 2.556 1.633l30.318 43.608a9.367 9.367 0 0 1-1.578 12.312l-11.999 12.198-13.427-14.858 6.049-5.299.702-.614.077-.067-.383-.563-.323-.477-22.394-31.982c-2.91-4.285-1.686-10.966 2.531-13.97Z" fill="#FFCE50"/>
  </g>
  <path d="M43.96 325.593c-1.34 5.471-6.863 8.901-12.335 7.662-5.47-1.239-8.819-6.679-7.477-12.15 1.34-5.472 6.863-8.902 12.335-7.663 5.47 1.24 8.819 6.68 7.477 12.151ZM15.945 290.549c-.657 2.683-3.453 4.346-6.245 3.713-2.791-.632-4.52-3.32-3.863-6.003.658-2.683 3.454-4.346 6.245-3.714 2.792.633 4.521 3.321 3.863 6.004Z" fill="#FFCE50"/>
  <path d="M75.65 48.845c3.13-.538 6.122 1.466 6.681 4.474.56 3.01-1.524 5.885-4.654 6.423-3.13.538-6.121-1.465-6.681-4.474-.56-3.01 1.524-5.885 4.654-6.423ZM22.922 80.954c-6.515 0-11.797-4.686-11.797-10.467 0-5.782 5.282-10.468 11.797-10.468 6.515 0 11.797 4.686 11.797 10.468 0 5.78-5.282 10.467-11.797 10.467Z" fill="#4756DF"/>
  <path d="M303.198 54.85c-4.51 0-8.167-3.515-8.167-7.85 0-4.337 3.657-7.852 8.167-7.852 4.511 0 8.167 3.515 8.167 7.851s-3.656 7.851-8.167 7.851Z" fill="#FFCE50"/>
  <path d="M357.646 279.912c-5.513 0-9.982-4.296-9.982-9.596 0-5.299 4.469-9.595 9.982-9.595 5.513 0 9.982 4.296 9.982 9.595 0 5.3-4.469 9.596-9.982 9.596Z" fill="#4756DF"/>
  <defs>
    <clipPath id="a">
      <path fill="#fff" transform="translate(147.311 22.64)" d="M0 0h136.853v356.832H0z"/>
    </clipPath>
  </defs>
</svg>