<svg width="33" height="40" viewBox="0 0 33 40" fill="none" xmlns="http://www.w3.org/2000/svg">
<path d="M16.5498 8.84976C12.1171 8.84976 8.45564 12.4471 8.45564 16.9439C8.45564 21.441 12.1171 24.9743 16.5498 24.9743C20.9824 24.9743 24.6439 21.377 24.6439 16.8802C24.6439 12.3831 20.9824 8.84976 16.5498 8.84976ZM16.5498 23.6892C12.8238 23.6892 9.74044 20.6699 9.74044 16.8799C9.74044 13.154 12.7597 10.0706 16.5498 10.0706C20.2757 10.0706 23.3591 13.0898 23.3591 16.8799C23.3591 20.6704 20.2757 23.6892 16.5498 23.6892ZM16.5498 0.948242C7.94172 0.948242 0.939453 7.95029 0.939453 16.5586C0.939453 30.9483 16.0358 39.3638 16.2286 39.428C16.3567 39.4925 16.4208 39.4925 16.5494 39.4925C16.678 39.4925 16.7421 39.4925 16.8707 39.4285C16.9993 39.3644 32.1598 30.8845 32.1598 16.559C32.1594 7.95051 25.1573 0.94869 16.5495 0.94869L16.5498 0.948242ZM16.5498 38.079C14.4298 36.7943 2.22425 29.021 2.22425 16.4943C2.22425 8.65704 8.64825 2.23304 16.5498 2.23304C24.4513 2.23304 30.8753 8.65704 30.8753 16.5586C30.8753 29.0211 18.6697 36.8584 16.5498 38.079Z" fill="white" stroke="white" stroke-width="0.6"/>
</svg>
