<svg width="32" height="35" viewBox="0 0 32 35" fill="none" xmlns="http://www.w3.org/2000/svg">
<path d="M30.5666 33.5803C30.5666 33.8344 30.366 34.0404 30.1191 34.0404C29.8716 34.0404 29.671 33.8344 29.671 33.5803C29.671 25.7048 23.4529 21.3201 15.7828 21.3201C8.11274 21.3201 1.89465 25.7048 1.89465 33.5803C1.89465 33.8344 1.69403 34.0404 1.44653 34.0404C1.19965 34.0404 0.999023 33.8344 0.999023 33.5803C0.999023 25.1966 7.61775 20.4 15.7827 20.4C23.9477 20.4 30.5666 25.1966 30.5666 33.5803ZM15.7829 18.4803C11.0817 18.4803 7.2711 14.567 7.2711 9.74049C7.2711 4.91328 11.0817 1 15.7829 1C20.4842 1 24.2948 4.91328 24.2948 9.74049C24.2948 14.567 20.4842 18.4803 15.7829 18.4803ZM15.7829 17.5601C19.9892 17.5601 23.3993 14.0593 23.3993 9.74039C23.3993 5.42148 19.9893 1.92007 15.7829 1.92007C11.5765 1.92007 8.16661 5.42132 8.16661 9.74039C8.16661 14.0593 11.5765 17.5601 15.7829 17.5601Z" fill="#132660" stroke="#132660" stroke-width="1.1"/>
</svg>
