<svg width="355" height="85" viewBox="0 0 355 85" fill="none" xmlns="http://www.w3.org/2000/svg">
<mask id="mask0_132_4478" style="mask-type:alpha" maskUnits="userSpaceOnUse" x="0" y="0" width="350" height="85">
<rect x="0.5" y="0.5" width="349" height="84" rx="42" fill="#19CA75" stroke="black"/>
</mask>
<g mask="url(#mask0_132_4478)">
<rect y="-7" width="507" height="98" rx="49" fill="#F4E9CD"/>
<path fill-rule="evenodd" clip-rule="evenodd" d="M119.256 -198.806C221.191 -135.602 259.197 -212.871 300.287 -152.801C334.153 -103.292 466.116 163.455 336.092 150.4C270.811 143.847 240.581 95.1382 179.673 59.1712C107.851 16.7605 -17.7319 32.7906 -39.0741 -38.0111C-61.5001 -112.41 44.6913 -245.039 119.256 -198.806Z" fill="#F8F3E7"/>
<rect x="0.5" y="0.5" width="349" height="84" rx="42" stroke="#999999"/>
</g>
<path d="M89.866 25.268C89.866 26.8367 89.4197 28.0197 88.527 28.817C87.643 29.6057 86.3993 30 84.796 30H82.17V20.718H85.082C86.0527 20.718 86.8933 20.8913 87.604 21.238C88.3233 21.5847 88.878 22.096 89.268 22.772C89.6667 23.4393 89.866 24.2713 89.866 25.268ZM87.825 25.32C87.825 24.2887 87.5997 23.5347 87.149 23.058C86.6983 22.5727 86.044 22.33 85.186 22.33H84.133V28.375H84.978C86.876 28.375 87.825 27.3567 87.825 25.32ZM98.085 26.438C98.085 27.6167 97.773 28.5267 97.149 29.168C96.5337 29.8093 95.693 30.13 94.627 30.13C93.9684 30.13 93.379 29.987 92.859 29.701C92.3477 29.415 91.9447 28.999 91.65 28.453C91.3554 27.8983 91.208 27.2267 91.208 26.438C91.208 25.2593 91.5157 24.3537 92.131 23.721C92.7464 23.0883 93.5914 22.772 94.666 22.772C95.3334 22.772 95.9227 22.915 96.434 23.201C96.9454 23.487 97.3484 23.903 97.643 24.449C97.9377 24.9863 98.085 25.6493 98.085 26.438ZM93.184 26.438C93.184 27.14 93.2967 27.673 93.522 28.037C93.756 28.3923 94.133 28.57 94.653 28.57C95.1644 28.57 95.5327 28.3923 95.758 28.037C95.992 27.673 96.109 27.14 96.109 26.438C96.109 25.736 95.992 25.2117 95.758 24.865C95.5327 24.5097 95.16 24.332 94.64 24.332C94.1287 24.332 93.756 24.5097 93.522 24.865C93.2967 25.2117 93.184 25.736 93.184 26.438ZM102.049 22.902H104.168L105.507 26.893C105.576 27.0837 105.628 27.283 105.663 27.491C105.697 27.6903 105.723 27.9027 105.741 28.128H105.78C105.806 27.9027 105.84 27.6903 105.884 27.491C105.936 27.283 105.992 27.0837 106.053 26.893L107.366 22.902H109.446L106.443 30.91C106.174 31.6467 105.78 32.197 105.26 32.561C104.748 32.9337 104.155 33.12 103.479 33.12C103.262 33.12 103.071 33.107 102.907 33.081C102.751 33.0637 102.612 33.042 102.491 33.016V31.482C102.586 31.4993 102.699 31.5167 102.829 31.534C102.967 31.5513 103.11 31.56 103.258 31.56C103.665 31.56 103.986 31.4343 104.22 31.183C104.462 30.9403 104.64 30.6457 104.753 30.299L104.87 29.948L102.049 22.902ZM116.912 26.438C116.912 27.6167 116.6 28.5267 115.976 29.168C115.361 29.8093 114.52 30.13 113.454 30.13C112.796 30.13 112.206 29.987 111.686 29.701C111.175 29.415 110.772 28.999 110.477 28.453C110.183 27.8983 110.035 27.2267 110.035 26.438C110.035 25.2593 110.343 24.3537 110.958 23.721C111.574 23.0883 112.419 22.772 113.493 22.772C114.161 22.772 114.75 22.915 115.261 23.201C115.773 23.487 116.176 23.903 116.47 24.449C116.765 24.9863 116.912 25.6493 116.912 26.438ZM112.011 26.438C112.011 27.14 112.124 27.673 112.349 28.037C112.583 28.3923 112.96 28.57 113.48 28.57C113.992 28.57 114.36 28.3923 114.585 28.037C114.819 27.673 114.936 27.14 114.936 26.438C114.936 25.736 114.819 25.2117 114.585 24.865C114.36 24.5097 113.987 24.332 113.467 24.332C112.956 24.332 112.583 24.5097 112.349 24.865C112.124 25.2117 112.011 25.736 112.011 26.438ZM125.026 22.902V30H123.544L123.284 29.09H123.18C122.955 29.454 122.643 29.7183 122.244 29.883C121.854 30.0477 121.438 30.13 120.996 30.13C120.233 30.13 119.622 29.9263 119.163 29.519C118.704 29.103 118.474 28.44 118.474 27.53V22.902H120.411V27.049C120.411 27.5517 120.502 27.933 120.684 28.193C120.866 28.453 121.156 28.583 121.555 28.583C122.144 28.583 122.547 28.3837 122.764 27.985C122.981 27.5777 123.089 26.997 123.089 26.243V22.902H125.026ZM132.371 24.54C132.371 24.8087 132.358 25.0773 132.332 25.346C132.315 25.606 132.293 25.8703 132.267 26.139H132.293C132.423 25.957 132.557 25.775 132.696 25.593C132.835 25.4023 132.982 25.2247 133.138 25.06L135.127 22.902H137.311L134.49 25.983L137.48 30H135.244L133.203 27.127L132.371 27.79V30H130.434V20.12H132.371V24.54ZM142.525 22.772C143.288 22.772 143.899 22.98 144.358 23.396C144.818 23.8033 145.047 24.462 145.047 25.372V30H143.11V25.853C143.11 25.3417 143.019 24.9603 142.837 24.709C142.655 24.449 142.365 24.319 141.966 24.319C141.377 24.319 140.974 24.5227 140.757 24.93C140.541 25.3287 140.432 25.905 140.432 26.659V30H138.495V22.902H139.977L140.237 23.812H140.341C140.567 23.448 140.874 23.1837 141.264 23.019C141.663 22.8543 142.083 22.772 142.525 22.772ZM153.487 26.438C153.487 27.6167 153.175 28.5267 152.551 29.168C151.936 29.8093 151.095 30.13 150.029 30.13C149.371 30.13 148.781 29.987 148.261 29.701C147.75 29.415 147.347 28.999 147.052 28.453C146.758 27.8983 146.61 27.2267 146.61 26.438C146.61 25.2593 146.918 24.3537 147.533 23.721C148.149 23.0883 148.994 22.772 150.068 22.772C150.736 22.772 151.325 22.915 151.836 23.201C152.348 23.487 152.751 23.903 153.045 24.449C153.34 24.9863 153.487 25.6493 153.487 26.438ZM148.586 26.438C148.586 27.14 148.699 27.673 148.924 28.037C149.158 28.3923 149.535 28.57 150.055 28.57C150.567 28.57 150.935 28.3923 151.16 28.037C151.394 27.673 151.511 27.14 151.511 26.438C151.511 25.736 151.394 25.2117 151.16 24.865C150.935 24.5097 150.562 24.332 150.042 24.332C149.531 24.332 149.158 24.5097 148.924 24.865C148.699 25.2117 148.586 25.736 148.586 26.438ZM160.125 27.517C160.091 27.3697 160.039 27.153 159.969 26.867C159.909 26.5723 159.839 26.2603 159.761 25.931C159.683 25.593 159.61 25.2853 159.54 25.008C159.471 24.722 159.423 24.514 159.397 24.384H159.345C159.319 24.514 159.272 24.722 159.202 25.008C159.142 25.2853 159.072 25.593 158.994 25.931C158.916 26.2603 158.843 26.5723 158.773 26.867C158.704 27.1617 158.652 27.387 158.617 27.543L158.045 30H155.965L153.95 22.902H155.874L156.693 26.048C156.754 26.2647 156.806 26.5247 156.849 26.828C156.901 27.1313 156.949 27.426 156.992 27.712C157.036 27.9893 157.066 28.2103 157.083 28.375H157.135C157.144 28.2537 157.161 28.0933 157.187 27.894C157.213 27.686 157.244 27.4737 157.278 27.257C157.322 27.0403 157.356 26.8453 157.382 26.672C157.417 26.49 157.443 26.3687 157.46 26.308L158.331 22.902H160.463L161.295 26.308C161.33 26.4293 161.369 26.6243 161.412 26.893C161.464 27.1617 161.508 27.4347 161.542 27.712C161.586 27.9893 161.607 28.2103 161.607 28.375H161.659C161.677 28.2277 161.707 28.0153 161.75 27.738C161.794 27.452 161.841 27.153 161.893 26.841C161.954 26.529 162.015 26.2647 162.075 26.048L162.92 22.902H164.818L162.777 30H160.671L160.125 27.517ZM168.331 22.902H170.45L171.789 26.893C171.858 27.0837 171.91 27.283 171.945 27.491C171.98 27.6903 172.006 27.9027 172.023 28.128H172.062C172.088 27.9027 172.123 27.6903 172.166 27.491C172.218 27.283 172.274 27.0837 172.335 26.893L173.648 22.902H175.728L172.725 30.91C172.456 31.6467 172.062 32.197 171.542 32.561C171.031 32.9337 170.437 33.12 169.761 33.12C169.544 33.12 169.354 33.107 169.189 33.081C169.033 33.0637 168.894 33.042 168.773 33.016V31.482C168.868 31.4993 168.981 31.5167 169.111 31.534C169.25 31.5513 169.393 31.56 169.54 31.56C169.947 31.56 170.268 31.4343 170.502 31.183C170.745 30.9403 170.922 30.6457 171.035 30.299L171.152 29.948L168.331 22.902ZM183.194 26.438C183.194 27.6167 182.882 28.5267 182.258 29.168C181.643 29.8093 180.802 30.13 179.736 30.13C179.078 30.13 178.488 29.987 177.968 29.701C177.457 29.415 177.054 28.999 176.759 28.453C176.465 27.8983 176.317 27.2267 176.317 26.438C176.317 25.2593 176.625 24.3537 177.24 23.721C177.856 23.0883 178.701 22.772 179.775 22.772C180.443 22.772 181.032 22.915 181.543 23.201C182.055 23.487 182.458 23.903 182.752 24.449C183.047 24.9863 183.194 25.6493 183.194 26.438ZM178.293 26.438C178.293 27.14 178.406 27.673 178.631 28.037C178.865 28.3923 179.242 28.57 179.762 28.57C180.274 28.57 180.642 28.3923 180.867 28.037C181.101 27.673 181.218 27.14 181.218 26.438C181.218 25.736 181.101 25.2117 180.867 24.865C180.642 24.5097 180.269 24.332 179.749 24.332C179.238 24.332 178.865 24.5097 178.631 24.865C178.406 25.2117 178.293 25.736 178.293 26.438ZM191.308 22.902V30H189.826L189.566 29.09H189.462C189.237 29.454 188.925 29.7183 188.526 29.883C188.136 30.0477 187.72 30.13 187.278 30.13C186.516 30.13 185.905 29.9263 185.445 29.519C184.986 29.103 184.756 28.44 184.756 27.53V22.902H186.693V27.049C186.693 27.5517 186.784 27.933 186.966 28.193C187.148 28.453 187.439 28.583 187.837 28.583C188.427 28.583 188.83 28.3837 189.046 27.985C189.263 27.5777 189.371 26.997 189.371 26.243V22.902H191.308ZM197.304 22.772C197.4 22.772 197.512 22.7763 197.642 22.785C197.772 22.7937 197.876 22.8067 197.954 22.824L197.811 24.644C197.751 24.6267 197.66 24.6137 197.538 24.605C197.426 24.5877 197.326 24.579 197.239 24.579C196.91 24.579 196.594 24.6397 196.29 24.761C195.987 24.8737 195.74 25.06 195.549 25.32C195.367 25.58 195.276 25.9353 195.276 26.386V30H193.339V22.902H194.808L195.094 24.098H195.185C195.393 23.734 195.679 23.422 196.043 23.162C196.407 22.902 196.828 22.772 197.304 22.772ZM206.545 24.358H204.868V30H202.931V24.358H201.865V23.422L202.931 22.902V22.382C202.931 21.7753 203.031 21.3073 203.23 20.978C203.438 20.64 203.729 20.4017 204.101 20.263C204.483 20.1243 204.929 20.055 205.44 20.055C205.822 20.055 206.164 20.0853 206.467 20.146C206.779 20.2067 207.031 20.276 207.221 20.354L206.727 21.771C206.58 21.7277 206.42 21.6887 206.246 21.654C206.073 21.6107 205.874 21.589 205.648 21.589C205.38 21.589 205.18 21.6713 205.05 21.836C204.929 22.0007 204.868 22.2087 204.868 22.46V22.902H206.545V24.358ZM208.625 20.12C208.911 20.12 209.158 20.1893 209.366 20.328C209.574 20.458 209.678 20.705 209.678 21.069C209.678 21.4243 209.574 21.6713 209.366 21.81C209.158 21.9487 208.911 22.018 208.625 22.018C208.331 22.018 208.079 21.9487 207.871 21.81C207.672 21.6713 207.572 21.4243 207.572 21.069C207.572 20.705 207.672 20.458 207.871 20.328C208.079 20.1893 208.331 20.12 208.625 20.12ZM209.587 22.902V30H207.65V22.902H209.587ZM215.65 22.772C216.413 22.772 217.024 22.98 217.483 23.396C217.943 23.8033 218.172 24.462 218.172 25.372V30H216.235V25.853C216.235 25.3417 216.144 24.9603 215.962 24.709C215.78 24.449 215.49 24.319 215.091 24.319C214.502 24.319 214.099 24.5227 213.882 24.93C213.666 25.3287 213.557 25.905 213.557 26.659V30H211.62V22.902H213.102L213.362 23.812H213.466C213.692 23.448 213.999 23.1837 214.389 23.019C214.788 22.8543 215.208 22.772 215.65 22.772ZM223.076 22.759C224.03 22.759 224.758 22.967 225.26 23.383C225.772 23.7903 226.027 24.4187 226.027 25.268V30H224.675L224.298 29.038H224.246C223.943 29.4193 223.622 29.6967 223.284 29.87C222.946 30.0433 222.483 30.13 221.893 30.13C221.261 30.13 220.736 29.948 220.32 29.584C219.904 29.2113 219.696 28.6437 219.696 27.881C219.696 27.127 219.961 26.5723 220.489 26.217C221.018 25.853 221.811 25.6537 222.868 25.619L224.103 25.58V25.268C224.103 24.8953 224.004 24.6223 223.804 24.449C223.614 24.2757 223.345 24.189 222.998 24.189C222.652 24.189 222.314 24.241 221.984 24.345C221.655 24.4403 221.326 24.5617 220.996 24.709L220.359 23.396C220.741 23.1967 221.161 23.0407 221.62 22.928C222.088 22.8153 222.574 22.759 223.076 22.759ZM223.349 26.737C222.725 26.7543 222.292 26.867 222.049 27.075C221.807 27.283 221.685 27.556 221.685 27.894C221.685 28.1887 221.772 28.401 221.945 28.531C222.119 28.6523 222.344 28.713 222.621 28.713C223.037 28.713 223.388 28.5917 223.674 28.349C223.96 28.0977 224.103 27.7467 224.103 27.296V26.711L223.349 26.737ZM232.04 22.772C232.803 22.772 233.414 22.98 233.873 23.396C234.332 23.8033 234.562 24.462 234.562 25.372V30H232.625V25.853C232.625 25.3417 232.534 24.9603 232.352 24.709C232.17 24.449 231.88 24.319 231.481 24.319C230.892 24.319 230.489 24.5227 230.272 24.93C230.055 25.3287 229.947 25.905 229.947 26.659V30H228.01V22.902H229.492L229.752 23.812H229.856C230.081 23.448 230.389 23.1837 230.779 23.019C231.178 22.8543 231.598 22.772 232.04 22.772ZM239.44 30.13C238.383 30.13 237.564 29.8397 236.983 29.259C236.411 28.6697 236.125 27.7467 236.125 26.49C236.125 25.6233 236.272 24.917 236.567 24.371C236.862 23.825 237.269 23.422 237.789 23.162C238.318 22.902 238.924 22.772 239.609 22.772C240.094 22.772 240.515 22.8197 240.87 22.915C241.234 23.0103 241.55 23.123 241.819 23.253L241.247 24.748C240.944 24.6267 240.658 24.527 240.389 24.449C240.129 24.371 239.869 24.332 239.609 24.332C238.604 24.332 238.101 25.047 238.101 26.477C238.101 27.1877 238.231 27.712 238.491 28.05C238.76 28.388 239.132 28.557 239.609 28.557C240.016 28.557 240.376 28.505 240.688 28.401C241 28.2883 241.303 28.1367 241.598 27.946V29.597C241.303 29.7877 240.991 29.922 240.662 30C240.341 30.0867 239.934 30.13 239.44 30.13ZM244.207 20.12C244.493 20.12 244.74 20.1893 244.948 20.328C245.156 20.458 245.26 20.705 245.26 21.069C245.26 21.4243 245.156 21.6713 244.948 21.81C244.74 21.9487 244.493 22.018 244.207 22.018C243.912 22.018 243.661 21.9487 243.453 21.81C243.253 21.6713 243.154 21.4243 243.154 21.069C243.154 20.705 243.253 20.458 243.453 20.328C243.661 20.1893 243.912 20.12 244.207 20.12ZM245.169 22.902V30H243.232V22.902H245.169ZM250.105 22.759C251.058 22.759 251.786 22.967 252.289 23.383C252.8 23.7903 253.056 24.4187 253.056 25.268V30H251.704L251.327 29.038H251.275C250.971 29.4193 250.651 29.6967 250.313 29.87C249.975 30.0433 249.511 30.13 248.922 30.13C248.289 30.13 247.765 29.948 247.349 29.584C246.933 29.2113 246.725 28.6437 246.725 27.881C246.725 27.127 246.989 26.5723 247.518 26.217C248.046 25.853 248.839 25.6537 249.897 25.619L251.132 25.58V25.268C251.132 24.8953 251.032 24.6223 250.833 24.449C250.642 24.2757 250.373 24.189 250.027 24.189C249.68 24.189 249.342 24.241 249.013 24.345C248.683 24.4403 248.354 24.5617 248.025 24.709L247.388 23.396C247.769 23.1967 248.189 23.0407 248.649 22.928C249.117 22.8153 249.602 22.759 250.105 22.759ZM250.378 26.737C249.754 26.7543 249.32 26.867 249.078 27.075C248.835 27.283 248.714 27.556 248.714 27.894C248.714 28.1887 248.8 28.401 248.974 28.531C249.147 28.6523 249.372 28.713 249.65 28.713C250.066 28.713 250.417 28.5917 250.703 28.349C250.989 28.0977 251.132 27.7467 251.132 27.296V26.711L250.378 26.737ZM256.975 30H255.038V20.12H256.975V30ZM266.328 22.772C267.126 22.772 267.771 23.084 268.265 23.708C268.759 24.3233 269.006 25.2333 269.006 26.438C269.006 27.6427 268.751 28.5613 268.239 29.194C267.728 29.818 267.074 30.13 266.276 30.13C265.765 30.13 265.358 30.039 265.054 29.857C264.751 29.6663 264.504 29.454 264.313 29.22H264.209C264.279 29.584 264.313 29.9307 264.313 30.26V33.12H262.376V22.902H263.949L264.222 23.825H264.313C264.504 23.539 264.76 23.292 265.08 23.084C265.401 22.876 265.817 22.772 266.328 22.772ZM265.704 24.319C265.202 24.319 264.846 24.475 264.638 24.787C264.439 25.099 264.331 25.5757 264.313 26.217V26.425C264.313 27.1097 264.413 27.6383 264.612 28.011C264.82 28.375 265.193 28.557 265.73 28.557C266.172 28.557 266.497 28.375 266.705 28.011C266.922 27.6383 267.03 27.1053 267.03 26.412C267.03 25.0167 266.588 24.319 265.704 24.319ZM274.568 22.772C274.663 22.772 274.776 22.7763 274.906 22.785C275.036 22.7937 275.14 22.8067 275.218 22.824L275.075 24.644C275.014 24.6267 274.923 24.6137 274.802 24.605C274.689 24.5877 274.59 24.579 274.503 24.579C274.174 24.579 273.857 24.6397 273.554 24.761C273.251 24.8737 273.004 25.06 272.813 25.32C272.631 25.58 272.54 25.9353 272.54 26.386V30H270.603V22.902H272.072L272.358 24.098H272.449C272.657 23.734 272.943 23.422 273.307 23.162C273.671 22.902 274.091 22.772 274.568 22.772ZM282.7 26.438C282.7 27.6167 282.388 28.5267 281.764 29.168C281.149 29.8093 280.308 30.13 279.242 30.13C278.584 30.13 277.994 29.987 277.474 29.701C276.963 29.415 276.56 28.999 276.265 28.453C275.971 27.8983 275.823 27.2267 275.823 26.438C275.823 25.2593 276.131 24.3537 276.746 23.721C277.362 23.0883 278.207 22.772 279.281 22.772C279.949 22.772 280.538 22.915 281.049 23.201C281.561 23.487 281.964 23.903 282.258 24.449C282.553 24.9863 282.7 25.6493 282.7 26.438ZM277.799 26.438C277.799 27.14 277.912 27.673 278.137 28.037C278.371 28.3923 278.748 28.57 279.268 28.57C279.78 28.57 280.148 28.3923 280.373 28.037C280.607 27.673 280.724 27.14 280.724 26.438C280.724 25.736 280.607 25.2117 280.373 24.865C280.148 24.5097 279.775 24.332 279.255 24.332C278.744 24.332 278.371 24.5097 278.137 24.865C277.912 25.2117 277.799 25.736 277.799 26.438ZM288.227 24.358H286.55V30H284.613V24.358H283.547V23.422L284.613 22.902V22.382C284.613 21.7753 284.713 21.3073 284.912 20.978C285.12 20.64 285.41 20.4017 285.783 20.263C286.164 20.1243 286.611 20.055 287.122 20.055C287.503 20.055 287.846 20.0853 288.149 20.146C288.461 20.2067 288.712 20.276 288.903 20.354L288.409 21.771C288.262 21.7277 288.101 21.6887 287.928 21.654C287.755 21.6107 287.555 21.589 287.33 21.589C287.061 21.589 286.862 21.6713 286.732 21.836C286.611 22.0007 286.55 22.2087 286.55 22.46V22.902H288.227V24.358ZM290.307 20.12C290.593 20.12 290.84 20.1893 291.048 20.328C291.256 20.458 291.36 20.705 291.36 21.069C291.36 21.4243 291.256 21.6713 291.048 21.81C290.84 21.9487 290.593 22.018 290.307 22.018C290.012 22.018 289.761 21.9487 289.553 21.81C289.354 21.6713 289.254 21.4243 289.254 21.069C289.254 20.705 289.354 20.458 289.553 20.328C289.761 20.1893 290.012 20.12 290.307 20.12ZM291.269 22.902V30H289.332V22.902H291.269ZM295.239 30H293.302V20.12H295.239V30ZM300.188 22.772C301.167 22.772 301.943 23.0537 302.515 23.617C303.087 24.1717 303.373 24.9647 303.373 25.996V26.932H298.797C298.814 27.478 298.975 27.907 299.278 28.219C299.59 28.531 300.019 28.687 300.565 28.687C301.024 28.687 301.44 28.6437 301.813 28.557C302.186 28.4617 302.571 28.3187 302.97 28.128V29.623C302.623 29.7963 302.255 29.922 301.865 30C301.484 30.0867 301.02 30.13 300.474 30.13C299.763 30.13 299.135 30 298.589 29.74C298.043 29.4713 297.614 29.0683 297.302 28.531C296.99 27.9937 296.834 27.3177 296.834 26.503C296.834 25.671 296.973 24.982 297.25 24.436C297.536 23.8813 297.93 23.4653 298.433 23.188C298.936 22.9107 299.521 22.772 300.188 22.772ZM300.201 24.15C299.828 24.15 299.516 24.2713 299.265 24.514C299.022 24.7567 298.879 25.1337 298.836 25.645H301.553C301.544 25.2117 301.432 24.8563 301.215 24.579C300.998 24.293 300.66 24.15 300.201 24.15ZM305.685 26.451C305.685 26.0177 305.776 25.6537 305.958 25.359C306.14 25.0643 306.452 24.7567 306.894 24.436C307.284 24.1587 307.561 23.9203 307.726 23.721C307.899 23.513 307.986 23.2703 307.986 22.993C307.986 22.7157 307.882 22.5077 307.674 22.369C307.474 22.2217 307.193 22.148 306.829 22.148C306.465 22.148 306.105 22.2043 305.75 22.317C305.394 22.4297 305.03 22.5813 304.658 22.772L303.969 21.381C304.393 21.147 304.853 20.9563 305.347 20.809C305.841 20.6617 306.382 20.588 306.972 20.588C307.873 20.588 308.571 20.8047 309.065 21.238C309.567 21.6713 309.819 22.2217 309.819 22.889C309.819 23.2443 309.762 23.552 309.65 23.812C309.537 24.072 309.368 24.3147 309.143 24.54C308.917 24.7567 308.636 24.9907 308.298 25.242C308.046 25.424 307.851 25.58 307.713 25.71C307.574 25.84 307.479 25.9657 307.427 26.087C307.383 26.2083 307.362 26.36 307.362 26.542V26.919H305.685V26.451ZM305.477 29.09C305.477 28.6913 305.585 28.414 305.802 28.258C306.018 28.0933 306.283 28.011 306.595 28.011C306.898 28.011 307.158 28.0933 307.375 28.258C307.591 28.414 307.7 28.6913 307.7 29.09C307.7 29.4713 307.591 29.7487 307.375 29.922C307.158 30.0867 306.898 30.169 306.595 30.169C306.283 30.169 306.018 30.0867 305.802 29.922C305.585 29.7487 305.477 29.4713 305.477 29.09ZM85.355 48H83.951V39.927H81.169V38.718H88.137V39.927H85.355V48ZM91.0802 40.863C91.9555 40.863 92.6098 41.058 93.0432 41.448C93.4852 41.8293 93.7062 42.4317 93.7062 43.255V48H92.7312L92.4582 47.025H92.4062C92.1028 47.4063 91.7822 47.688 91.4442 47.87C91.1148 48.0433 90.6555 48.13 90.0662 48.13C89.4335 48.13 88.9092 47.961 88.4932 47.623C88.0772 47.2763 87.8692 46.739 87.8692 46.011C87.8692 45.3003 88.1378 44.7587 88.6752 44.386C89.2125 44.0133 90.0402 43.8097 91.1582 43.775L92.3542 43.736V43.346C92.3542 42.8347 92.2372 42.475 92.0032 42.267C91.7692 42.0503 91.4398 41.942 91.0152 41.942C90.6598 41.942 90.3175 41.994 89.9882 42.098C89.6588 42.202 89.3425 42.3277 89.0392 42.475L88.5972 41.474C88.9265 41.3007 89.3035 41.1577 89.7282 41.045C90.1615 40.9237 90.6122 40.863 91.0802 40.863ZM91.4052 44.659C90.6078 44.6937 90.0532 44.828 89.7412 45.062C89.4378 45.2873 89.2862 45.608 89.2862 46.024C89.2862 46.388 89.3945 46.6523 89.6112 46.817C89.8278 46.9817 90.1095 47.064 90.4562 47.064C90.9935 47.064 91.4398 46.9123 91.7952 46.609C92.1592 46.3057 92.3412 45.8507 92.3412 45.244V44.633L91.4052 44.659ZM97.193 43.06C97.193 43.2333 97.1844 43.4413 97.167 43.684C97.1497 43.9267 97.1367 44.1433 97.128 44.334H97.167C97.2624 44.204 97.3924 44.035 97.557 43.827C97.7304 43.6103 97.882 43.4327 98.012 43.294L100.157 40.993H101.756L98.935 43.996L101.938 48H100.313L97.999 44.867L97.193 45.543V48H95.828V38.12H97.193V43.06ZM105.846 40.863C106.764 40.863 107.488 41.149 108.017 41.721C108.545 42.2843 108.81 43.0557 108.81 44.035V44.789H104.104C104.121 45.5083 104.307 46.0587 104.663 46.44C105.027 46.8213 105.534 47.012 106.184 47.012C106.634 47.012 107.033 46.973 107.38 46.895C107.735 46.8083 108.099 46.6827 108.472 46.518V47.662C108.116 47.818 107.761 47.935 107.406 48.013C107.05 48.091 106.626 48.13 106.132 48.13C105.447 48.13 104.845 47.9957 104.325 47.727C103.813 47.4583 103.41 47.0597 103.116 46.531C102.83 45.9937 102.687 45.335 102.687 44.555C102.687 43.7663 102.817 43.099 103.077 42.553C103.345 42.007 103.714 41.591 104.182 41.305C104.658 41.0103 105.213 40.863 105.846 40.863ZM105.846 41.929C105.352 41.929 104.953 42.0893 104.65 42.41C104.355 42.7307 104.182 43.1857 104.13 43.775H107.432C107.423 43.229 107.289 42.787 107.029 42.449C106.777 42.1023 106.383 41.929 105.846 41.929ZM116.623 40.863C117.498 40.863 118.153 41.058 118.586 41.448C119.028 41.8293 119.249 42.4317 119.249 43.255V48H118.274L118.001 47.025H117.949C117.646 47.4063 117.325 47.688 116.987 47.87C116.658 48.0433 116.198 48.13 115.609 48.13C114.976 48.13 114.452 47.961 114.036 47.623C113.62 47.2763 113.412 46.739 113.412 46.011C113.412 45.3003 113.681 44.7587 114.218 44.386C114.755 44.0133 115.583 43.8097 116.701 43.775L117.897 43.736V43.346C117.897 42.8347 117.78 42.475 117.546 42.267C117.312 42.0503 116.983 41.942 116.558 41.942C116.203 41.942 115.86 41.994 115.531 42.098C115.202 42.202 114.885 42.3277 114.582 42.475L114.14 41.474C114.469 41.3007 114.846 41.1577 115.271 41.045C115.704 40.9237 116.155 40.863 116.623 40.863ZM116.948 44.659C116.151 44.6937 115.596 44.828 115.284 45.062C114.981 45.2873 114.829 45.608 114.829 46.024C114.829 46.388 114.937 46.6523 115.154 46.817C115.371 46.9817 115.652 47.064 115.999 47.064C116.536 47.064 116.983 46.9123 117.338 46.609C117.702 46.3057 117.884 45.8507 117.884 45.244V44.633L116.948 44.659ZM129.272 48.143C129.272 47.9783 129.276 47.7963 129.285 47.597C129.302 47.3977 129.324 47.22 129.35 47.064H129.272C129.073 47.3673 128.8 47.623 128.453 47.831C128.115 48.0303 127.677 48.13 127.14 48.13C126.308 48.13 125.632 47.8267 125.112 47.22C124.601 46.6133 124.345 45.712 124.345 44.516C124.345 43.3113 124.605 42.4013 125.125 41.786C125.654 41.1707 126.338 40.863 127.179 40.863C127.716 40.863 128.154 40.967 128.492 41.175C128.83 41.383 129.103 41.6343 129.311 41.929H129.363L129.532 40.993H130.65V51.12H129.272V48.143ZM127.491 47.012C128.15 47.012 128.618 46.8257 128.895 46.453C129.172 46.0803 129.315 45.517 129.324 44.763V44.529C129.324 43.697 129.19 43.0687 128.921 42.644C128.652 42.2107 128.167 41.994 127.465 41.994C126.893 41.994 126.464 42.2237 126.178 42.683C125.901 43.1337 125.762 43.7533 125.762 44.542C125.762 45.3307 125.901 45.9417 126.178 46.375C126.464 46.7997 126.902 47.012 127.491 47.012ZM138.841 40.993V48H137.736L137.541 47.077H137.476C137.251 47.441 136.939 47.7097 136.54 47.883C136.142 48.0477 135.721 48.13 135.279 48.13C134.456 48.13 133.828 47.9263 133.394 47.519C132.961 47.1117 132.744 46.466 132.744 45.582V40.993H134.135V45.374C134.135 46.4573 134.608 46.999 135.552 46.999C136.272 46.999 136.77 46.7867 137.047 46.362C137.325 45.9373 137.463 45.3307 137.463 44.542V40.993H138.841ZM141.7 38.328C141.908 38.328 142.09 38.3887 142.246 38.51C142.402 38.6313 142.48 38.835 142.48 39.121C142.48 39.3983 142.402 39.602 142.246 39.732C142.09 39.8533 141.908 39.914 141.7 39.914C141.475 39.914 141.284 39.8533 141.128 39.732C140.981 39.602 140.907 39.3983 140.907 39.121C140.907 38.835 140.981 38.6313 141.128 38.51C141.284 38.3887 141.475 38.328 141.7 38.328ZM142.376 40.993V48H140.998V40.993H142.376ZM149.168 48H143.916V47.129L147.53 42.059H144.137V40.993H149.064V41.968L145.528 46.934H149.168V48ZM156.609 47.012C156.791 47.012 156.977 46.999 157.168 46.973C157.358 46.9383 157.523 46.895 157.662 46.843V47.883C157.506 47.9523 157.302 48.0087 157.051 48.052C156.808 48.104 156.561 48.13 156.31 48.13C155.928 48.13 155.577 48.065 155.257 47.935C154.936 47.805 154.68 47.5797 154.49 47.259C154.308 46.9383 154.217 46.492 154.217 45.92V42.046H153.242V41.422L154.269 40.902L154.75 39.42H155.595V40.993H157.597V42.046H155.595V45.894C155.595 46.2753 155.686 46.557 155.868 46.739C156.058 46.921 156.305 47.012 156.609 47.012ZM165.238 44.49C165.238 45.6513 164.939 46.5483 164.341 47.181C163.743 47.8137 162.937 48.13 161.923 48.13C161.291 48.13 160.727 47.987 160.233 47.701C159.748 47.415 159.362 47.0033 159.076 46.466C158.799 45.92 158.66 45.2613 158.66 44.49C158.66 43.3287 158.955 42.436 159.544 41.812C160.134 41.1793 160.94 40.863 161.962 40.863C162.604 40.863 163.167 41.006 163.652 41.292C164.146 41.5693 164.532 41.9767 164.809 42.514C165.095 43.0513 165.238 43.71 165.238 44.49ZM160.077 44.49C160.077 45.2787 160.225 45.894 160.519 46.336C160.823 46.778 161.299 46.999 161.949 46.999C162.599 46.999 163.072 46.778 163.366 46.336C163.67 45.894 163.821 45.2787 163.821 44.49C163.821 43.6927 163.67 43.0817 163.366 42.657C163.063 42.2237 162.586 42.007 161.936 42.007C161.286 42.007 160.814 42.2237 160.519 42.657C160.225 43.0817 160.077 43.6927 160.077 44.49ZM173.781 42.046H172.052V48H170.674V42.046H169.491V41.396L170.674 40.967V40.525C170.674 39.6323 170.878 38.9997 171.285 38.627C171.701 38.2457 172.278 38.055 173.014 38.055C173.318 38.055 173.595 38.081 173.846 38.133C174.098 38.185 174.31 38.2413 174.483 38.302L174.132 39.355C173.985 39.3117 173.82 39.2727 173.638 39.238C173.465 39.1947 173.279 39.173 173.079 39.173C172.395 39.173 172.052 39.628 172.052 40.538V40.993H173.781V42.046ZM175.705 38.328C175.913 38.328 176.095 38.3887 176.251 38.51C176.407 38.6313 176.485 38.835 176.485 39.121C176.485 39.3983 176.407 39.602 176.251 39.732C176.095 39.8533 175.913 39.914 175.705 39.914C175.48 39.914 175.289 39.8533 175.133 39.732C174.986 39.602 174.912 39.3983 174.912 39.121C174.912 38.835 174.986 38.6313 175.133 38.51C175.289 38.3887 175.48 38.328 175.705 38.328ZM176.381 40.993V48H175.003V40.993H176.381ZM182.087 40.863C182.902 40.863 183.526 41.0667 183.959 41.474C184.392 41.8813 184.609 42.5357 184.609 43.437V48H183.244V43.632C183.244 42.54 182.763 41.994 181.801 41.994C181.082 41.994 180.588 42.2063 180.319 42.631C180.05 43.0557 179.916 43.6667 179.916 44.464V48H178.538V40.993H179.63L179.825 41.929H179.903C180.128 41.565 180.436 41.2963 180.826 41.123C181.225 40.9497 181.645 40.863 182.087 40.863ZM189.131 48.13C188.291 48.13 187.61 47.8267 187.09 47.22C186.579 46.6133 186.323 45.712 186.323 44.516C186.323 43.3113 186.583 42.4013 187.103 41.786C187.623 41.1707 188.308 40.863 189.157 40.863C189.686 40.863 190.119 40.9627 190.457 41.162C190.795 41.3613 191.068 41.604 191.276 41.89H191.354C191.337 41.7773 191.315 41.604 191.289 41.37C191.263 41.136 191.25 40.928 191.25 40.746V38.12H192.628V48H191.549L191.315 47.064H191.25C191.051 47.3673 190.782 47.623 190.444 47.831C190.106 48.0303 189.669 48.13 189.131 48.13ZM189.456 46.999C190.132 46.999 190.609 46.8127 190.886 46.44C191.164 46.0587 191.302 45.491 191.302 44.737V44.529C191.302 43.7143 191.168 43.0903 190.899 42.657C190.639 42.215 190.154 41.994 189.443 41.994C188.88 41.994 188.455 42.2237 188.169 42.683C187.883 43.1337 187.74 43.7533 187.74 44.542C187.74 45.3307 187.883 45.9373 188.169 46.362C188.455 46.7867 188.884 46.999 189.456 46.999ZM204.34 44.49C204.34 45.6513 204.041 46.5483 203.443 47.181C202.845 47.8137 202.039 48.13 201.025 48.13C200.392 48.13 199.829 47.987 199.335 47.701C198.85 47.415 198.464 47.0033 198.178 46.466C197.901 45.92 197.762 45.2613 197.762 44.49C197.762 43.3287 198.057 42.436 198.646 41.812C199.235 41.1793 200.041 40.863 201.064 40.863C201.705 40.863 202.269 41.006 202.754 41.292C203.248 41.5693 203.634 41.9767 203.911 42.514C204.197 43.0513 204.34 43.71 204.34 44.49ZM199.179 44.49C199.179 45.2787 199.326 45.894 199.621 46.336C199.924 46.778 200.401 46.999 201.051 46.999C201.701 46.999 202.173 46.778 202.468 46.336C202.771 45.894 202.923 45.2787 202.923 44.49C202.923 43.6927 202.771 43.0817 202.468 42.657C202.165 42.2237 201.688 42.007 201.038 42.007C200.388 42.007 199.916 42.2237 199.621 42.657C199.326 43.0817 199.179 43.6927 199.179 44.49ZM212.119 40.993V48H211.014L210.819 47.077H210.754C210.528 47.441 210.216 47.7097 209.818 47.883C209.419 48.0477 208.999 48.13 208.557 48.13C207.733 48.13 207.105 47.9263 206.672 47.519C206.238 47.1117 206.022 46.466 206.022 45.582V40.993H207.413V45.374C207.413 46.4573 207.885 46.999 208.83 46.999C209.549 46.999 210.047 46.7867 210.325 46.362C210.602 45.9373 210.741 45.3307 210.741 44.542V40.993H212.119ZM216.797 47.012C216.979 47.012 217.166 46.999 217.356 46.973C217.547 46.9383 217.712 46.895 217.85 46.843V47.883C217.694 47.9523 217.491 48.0087 217.239 48.052C216.997 48.104 216.75 48.13 216.498 48.13C216.117 48.13 215.766 48.065 215.445 47.935C215.125 47.805 214.869 47.5797 214.678 47.259C214.496 46.9383 214.405 46.492 214.405 45.92V42.046H213.43V41.422L214.457 40.902L214.938 39.42H215.783V40.993H217.785V42.046H215.783V45.894C215.783 46.2753 215.874 46.557 216.056 46.739C216.247 46.921 216.494 47.012 216.797 47.012ZM225.346 40.863C226.221 40.863 226.875 41.058 227.309 41.448C227.751 41.8293 227.972 42.4317 227.972 43.255V48H226.997L226.724 47.025H226.672C226.368 47.4063 226.048 47.688 225.71 47.87C225.38 48.0433 224.921 48.13 224.332 48.13C223.699 48.13 223.175 47.961 222.759 47.623C222.343 47.2763 222.135 46.739 222.135 46.011C222.135 45.3003 222.403 44.7587 222.941 44.386C223.478 44.0133 224.306 43.8097 225.424 43.775L226.62 43.736V43.346C226.62 42.8347 226.503 42.475 226.269 42.267C226.035 42.0503 225.705 41.942 225.281 41.942C224.925 41.942 224.583 41.994 224.254 42.098C223.924 42.202 223.608 42.3277 223.305 42.475L222.863 41.474C223.192 41.3007 223.569 41.1577 223.994 41.045C224.427 40.9237 224.878 40.863 225.346 40.863ZM225.671 44.659C224.873 44.6937 224.319 44.828 224.007 45.062C223.703 45.2873 223.552 45.608 223.552 46.024C223.552 46.388 223.66 46.6523 223.877 46.817C224.093 46.9817 224.375 47.064 224.722 47.064C225.259 47.064 225.705 46.9123 226.061 46.609C226.425 46.3057 226.607 45.8507 226.607 45.244V44.633L225.671 44.659ZM233.643 40.863C234.457 40.863 235.081 41.0667 235.515 41.474C235.948 41.8813 236.165 42.5357 236.165 43.437V48H234.8V43.632C234.8 42.54 234.319 41.994 233.357 41.994C232.637 41.994 232.143 42.2063 231.875 42.631C231.606 43.0557 231.472 43.6667 231.472 44.464V48H230.094V40.993H231.186L231.381 41.929H231.459C231.684 41.565 231.992 41.2963 232.382 41.123C232.78 40.9497 233.201 40.863 233.643 40.863ZM240.687 48.13C239.846 48.13 239.166 47.8267 238.646 47.22C238.135 46.6133 237.879 45.712 237.879 44.516C237.879 43.3113 238.139 42.4013 238.659 41.786C239.179 41.1707 239.864 40.863 240.713 40.863C241.242 40.863 241.675 40.9627 242.013 41.162C242.351 41.3613 242.624 41.604 242.832 41.89H242.91C242.893 41.7773 242.871 41.604 242.845 41.37C242.819 41.136 242.806 40.928 242.806 40.746V38.12H244.184V48H243.105L242.871 47.064H242.806C242.607 47.3673 242.338 47.623 242 47.831C241.662 48.0303 241.224 48.13 240.687 48.13ZM241.012 46.999C241.688 46.999 242.165 46.8127 242.442 46.44C242.719 46.0587 242.858 45.491 242.858 44.737V44.529C242.858 43.7143 242.724 43.0903 242.455 42.657C242.195 42.215 241.71 41.994 240.999 41.994C240.436 41.994 240.011 42.2237 239.725 42.683C239.439 43.1337 239.296 43.7533 239.296 44.542C239.296 45.3307 239.439 45.9373 239.725 46.362C240.011 46.7867 240.44 46.999 241.012 46.999ZM252.139 40.863C253.066 40.863 253.781 41.214 254.284 41.916H254.349L254.505 40.993H255.623V48.091C255.623 49.0877 255.354 49.8417 254.817 50.353C254.288 50.8643 253.478 51.12 252.386 51.12C251.874 51.12 251.406 51.0853 250.982 51.016C250.566 50.9467 250.18 50.8383 249.825 50.691V49.482C250.57 49.846 251.45 50.028 252.464 50.028C253.036 50.028 253.478 49.8633 253.79 49.534C254.102 49.2133 254.258 48.7583 254.258 48.169V47.935C254.258 47.8223 254.262 47.675 254.271 47.493C254.279 47.311 254.288 47.1723 254.297 47.077H254.245C254.011 47.441 253.716 47.7097 253.361 47.883C253.005 48.0477 252.598 48.13 252.139 48.13C251.255 48.13 250.561 47.8137 250.059 47.181C249.565 46.5397 249.318 45.6513 249.318 44.516C249.318 43.3893 249.565 42.501 250.059 41.851C250.561 41.1923 251.255 40.863 252.139 40.863ZM252.425 42.007C251.879 42.007 251.458 42.2237 251.164 42.657C250.878 43.0903 250.735 43.7143 250.735 44.529C250.735 45.3437 250.878 45.9633 251.164 46.388C251.458 46.8127 251.887 47.025 252.451 47.025C253.092 47.025 253.56 46.8517 253.855 46.505C254.158 46.1497 254.31 45.5733 254.31 44.776V44.516C254.31 43.6233 254.158 42.982 253.855 42.592C253.551 42.202 253.075 42.007 252.425 42.007ZM260.538 40.863C261.457 40.863 262.18 41.149 262.709 41.721C263.238 42.2843 263.502 43.0557 263.502 44.035V44.789H258.796C258.813 45.5083 259 46.0587 259.355 46.44C259.719 46.8213 260.226 47.012 260.876 47.012C261.327 47.012 261.725 46.973 262.072 46.895C262.427 46.8083 262.791 46.6827 263.164 46.518V47.662C262.809 47.818 262.453 47.935 262.098 48.013C261.743 48.091 261.318 48.13 260.824 48.13C260.139 48.13 259.537 47.9957 259.017 47.727C258.506 47.4583 258.103 47.0597 257.808 46.531C257.522 45.9937 257.379 45.335 257.379 44.555C257.379 43.7663 257.509 43.099 257.769 42.553C258.038 42.007 258.406 41.591 258.874 41.305C259.351 41.0103 259.905 40.863 260.538 40.863ZM260.538 41.929C260.044 41.929 259.645 42.0893 259.342 42.41C259.047 42.7307 258.874 43.1857 258.822 43.775H262.124C262.115 43.229 261.981 42.787 261.721 42.449C261.47 42.1023 261.075 41.929 260.538 41.929ZM267.744 47.012C267.926 47.012 268.112 46.999 268.303 46.973C268.493 46.9383 268.658 46.895 268.797 46.843V47.883C268.641 47.9523 268.437 48.0087 268.186 48.052C267.943 48.104 267.696 48.13 267.445 48.13C267.063 48.13 266.712 48.065 266.392 47.935C266.071 47.805 265.815 47.5797 265.625 47.259C265.443 46.9383 265.352 46.492 265.352 45.92V42.046H264.377V41.422L265.404 40.902L265.885 39.42H266.73V40.993H268.732V42.046H266.73V45.894C266.73 46.2753 266.821 46.557 267.003 46.739C267.193 46.921 267.44 47.012 267.744 47.012ZM85.537 58.863C85.6583 58.863 85.7883 58.8717 85.927 58.889C86.0743 58.8977 86.2 58.9107 86.304 58.928L86.161 60.215C85.9357 60.1543 85.7017 60.124 85.459 60.124C85.1123 60.124 84.783 60.2107 84.471 60.384C84.1677 60.5573 83.9207 60.8087 83.73 61.138C83.548 61.4587 83.457 61.8487 83.457 62.308V66H82.079V58.993H83.171L83.353 60.241H83.405C83.6303 59.8683 83.9207 59.5477 84.276 59.279C84.6313 59.0017 85.0517 58.863 85.537 58.863ZM90.1036 58.863C91.0222 58.863 91.7459 59.149 92.2746 59.721C92.8032 60.2843 93.0676 61.0557 93.0676 62.035V62.789H88.3616C88.3789 63.5083 88.5652 64.0587 88.9206 64.44C89.2846 64.8213 89.7916 65.012 90.4416 65.012C90.8922 65.012 91.2909 64.973 91.6376 64.895C91.9929 64.8083 92.3569 64.6827 92.7296 64.518V65.662C92.3742 65.818 92.0189 65.935 91.6636 66.013C91.3082 66.091 90.8836 66.13 90.3896 66.13C89.7049 66.13 89.1026 65.9957 88.5826 65.727C88.0712 65.4583 87.6682 65.0597 87.3736 64.531C87.0876 63.9937 86.9446 63.335 86.9446 62.555C86.9446 61.7663 87.0746 61.099 87.3346 60.553C87.6032 60.007 87.9716 59.591 88.4396 59.305C88.9162 59.0103 89.4709 58.863 90.1036 58.863ZM90.1036 59.929C89.6096 59.929 89.2109 60.0893 88.9076 60.41C88.6129 60.7307 88.4396 61.1857 88.3876 61.775H91.6896C91.6809 61.229 91.5466 60.787 91.2866 60.449C91.0352 60.1023 90.6409 59.929 90.1036 59.929ZM97.608 66.13C96.6373 66.13 95.8573 65.844 95.268 65.272C94.6787 64.6913 94.384 63.7813 94.384 62.542C94.384 61.6753 94.527 60.9733 94.813 60.436C95.099 59.8987 95.4933 59.5043 95.996 59.253C96.4987 58.993 97.0707 58.863 97.712 58.863C98.102 58.863 98.466 58.9063 98.804 58.993C99.1507 59.071 99.4367 59.162 99.662 59.266L99.246 60.384C99.0033 60.2887 98.7433 60.2063 98.466 60.137C98.1973 60.0677 97.9417 60.033 97.699 60.033C96.4337 60.033 95.801 60.865 95.801 62.529C95.801 63.3263 95.957 63.933 96.269 64.349C96.581 64.765 97.0403 64.973 97.647 64.973C98.037 64.973 98.3793 64.9297 98.674 64.843C98.9773 64.7563 99.2547 64.6437 99.506 64.505V65.701C99.2547 65.8483 98.9817 65.9567 98.687 66.026C98.3923 66.0953 98.0327 66.13 97.608 66.13ZM107.335 62.49C107.335 63.6513 107.036 64.5483 106.438 65.181C105.84 65.8137 105.034 66.13 104.02 66.13C103.387 66.13 102.824 65.987 102.33 65.701C101.845 65.415 101.459 65.0033 101.173 64.466C100.896 63.92 100.757 63.2613 100.757 62.49C100.757 61.3287 101.052 60.436 101.641 59.812C102.23 59.1793 103.036 58.863 104.059 58.863C104.7 58.863 105.264 59.006 105.749 59.292C106.243 59.5693 106.629 59.9767 106.906 60.514C107.192 61.0513 107.335 61.71 107.335 62.49ZM102.174 62.49C102.174 63.2787 102.321 63.894 102.616 64.336C102.919 64.778 103.396 64.999 104.046 64.999C104.696 64.999 105.168 64.778 105.463 64.336C105.766 63.894 105.918 63.2787 105.918 62.49C105.918 61.6927 105.766 61.0817 105.463 60.657C105.16 60.2237 104.683 60.007 104.033 60.007C103.383 60.007 102.911 60.2237 102.616 60.657C102.321 61.0817 102.174 61.6927 102.174 62.49ZM116.934 58.863C117.723 58.863 118.316 59.0667 118.715 59.474C119.114 59.8813 119.313 60.5357 119.313 61.437V66H117.935V61.619C117.935 60.5357 117.497 59.994 116.622 59.994C115.998 59.994 115.552 60.189 115.283 60.579C115.014 60.9603 114.88 61.5107 114.88 62.23V66H113.515V61.619C113.515 60.5357 113.073 59.994 112.189 59.994C111.53 59.994 111.075 60.2063 110.824 60.631C110.581 61.0557 110.46 61.6667 110.46 62.464V66H109.082V58.993H110.174L110.369 59.929H110.447C110.655 59.565 110.945 59.2963 111.318 59.123C111.691 58.9497 112.085 58.863 112.501 58.863C113.584 58.863 114.295 59.24 114.633 59.994H114.737C114.962 59.604 115.274 59.318 115.673 59.136C116.072 58.954 116.492 58.863 116.934 58.863ZM129.274 58.863C130.062 58.863 130.656 59.0667 131.055 59.474C131.453 59.8813 131.653 60.5357 131.653 61.437V66H130.275V61.619C130.275 60.5357 129.837 59.994 128.962 59.994C128.338 59.994 127.891 60.189 127.623 60.579C127.354 60.9603 127.22 61.5107 127.22 62.23V66H125.855V61.619C125.855 60.5357 125.413 59.994 124.529 59.994C123.87 59.994 123.415 60.2063 123.164 60.631C122.921 61.0557 122.8 61.6667 122.8 62.464V66H121.422V58.993H122.514L122.709 59.929H122.787C122.995 59.565 123.285 59.2963 123.658 59.123C124.03 58.9497 124.425 58.863 124.841 58.863C125.924 58.863 126.635 59.24 126.973 59.994H127.077C127.302 59.604 127.614 59.318 128.013 59.136C128.411 58.954 128.832 58.863 129.274 58.863ZM136.518 58.863C137.436 58.863 138.16 59.149 138.689 59.721C139.217 60.2843 139.482 61.0557 139.482 62.035V62.789H134.776C134.793 63.5083 134.979 64.0587 135.335 64.44C135.699 64.8213 136.206 65.012 136.856 65.012C137.306 65.012 137.705 64.973 138.052 64.895C138.407 64.8083 138.771 64.6827 139.144 64.518V65.662C138.788 65.818 138.433 65.935 138.078 66.013C137.722 66.091 137.298 66.13 136.804 66.13C136.119 66.13 135.517 65.9957 134.997 65.727C134.485 65.4583 134.082 65.0597 133.788 64.531C133.502 63.9937 133.359 63.335 133.359 62.555C133.359 61.7663 133.489 61.099 133.749 60.553C134.017 60.007 134.386 59.591 134.854 59.305C135.33 59.0103 135.885 58.863 136.518 58.863ZM136.518 59.929C136.024 59.929 135.625 60.0893 135.322 60.41C135.027 60.7307 134.854 61.1857 134.802 61.775H138.104C138.095 61.229 137.961 60.787 137.701 60.449C137.449 60.1023 137.055 59.929 136.518 59.929ZM144.75 58.863C145.565 58.863 146.189 59.0667 146.622 59.474C147.055 59.8813 147.272 60.5357 147.272 61.437V66H145.907V61.632C145.907 60.54 145.426 59.994 144.464 59.994C143.745 59.994 143.251 60.2063 142.982 60.631C142.713 61.0557 142.579 61.6667 142.579 62.464V66H141.201V58.993H142.293L142.488 59.929H142.566C142.791 59.565 143.099 59.2963 143.489 59.123C143.888 58.9497 144.308 58.863 144.75 58.863ZM151.795 66.13C150.954 66.13 150.274 65.8267 149.754 65.22C149.242 64.6133 148.987 63.712 148.987 62.516C148.987 61.3113 149.247 60.4013 149.767 59.786C150.287 59.1707 150.971 58.863 151.821 58.863C152.349 58.863 152.783 58.9627 153.121 59.162C153.459 59.3613 153.732 59.604 153.94 59.89H154.018C154 59.7773 153.979 59.604 153.953 59.37C153.927 59.136 153.914 58.928 153.914 58.746V56.12H155.292V66H154.213L153.979 65.064H153.914C153.714 65.3673 153.446 65.623 153.108 65.831C152.77 66.0303 152.332 66.13 151.795 66.13ZM152.12 64.999C152.796 64.999 153.272 64.8127 153.55 64.44C153.827 64.0587 153.966 63.491 153.966 62.737V62.529C153.966 61.7143 153.831 61.0903 153.563 60.657C153.303 60.215 152.817 59.994 152.107 59.994C151.543 59.994 151.119 60.2237 150.833 60.683C150.547 61.1337 150.404 61.7533 150.404 62.542C150.404 63.3307 150.547 63.9373 150.833 64.362C151.119 64.7867 151.548 64.999 152.12 64.999ZM160.207 58.863C161.126 58.863 161.849 59.149 162.378 59.721C162.907 60.2843 163.171 61.0557 163.171 62.035V62.789H158.465C158.482 63.5083 158.669 64.0587 159.024 64.44C159.388 64.8213 159.895 65.012 160.545 65.012C160.996 65.012 161.394 64.973 161.741 64.895C162.096 64.8083 162.46 64.6827 162.833 64.518V65.662C162.478 65.818 162.122 65.935 161.767 66.013C161.412 66.091 160.987 66.13 160.493 66.13C159.808 66.13 159.206 65.9957 158.686 65.727C158.175 65.4583 157.772 65.0597 157.477 64.531C157.191 63.9937 157.048 63.335 157.048 62.555C157.048 61.7663 157.178 61.099 157.438 60.553C157.707 60.007 158.075 59.591 158.543 59.305C159.02 59.0103 159.574 58.863 160.207 58.863ZM160.207 59.929C159.713 59.929 159.314 60.0893 159.011 60.41C158.716 60.7307 158.543 61.1857 158.491 61.775H161.793C161.784 61.229 161.65 60.787 161.39 60.449C161.139 60.1023 160.744 59.929 160.207 59.929ZM167.296 66.13C166.455 66.13 165.775 65.8267 165.255 65.22C164.743 64.6133 164.488 63.712 164.488 62.516C164.488 61.3113 164.748 60.4013 165.268 59.786C165.788 59.1707 166.472 58.863 167.322 58.863C167.85 58.863 168.284 58.9627 168.622 59.162C168.96 59.3613 169.233 59.604 169.441 59.89H169.519C169.501 59.7773 169.48 59.604 169.454 59.37C169.428 59.136 169.415 58.928 169.415 58.746V56.12H170.793V66H169.714L169.48 65.064H169.415C169.215 65.3673 168.947 65.623 168.609 65.831C168.271 66.0303 167.833 66.13 167.296 66.13ZM167.621 64.999C168.297 64.999 168.773 64.8127 169.051 64.44C169.328 64.0587 169.467 63.491 169.467 62.737V62.529C169.467 61.7143 169.332 61.0903 169.064 60.657C168.804 60.215 168.318 59.994 167.608 59.994C167.044 59.994 166.62 60.2237 166.334 60.683C166.048 61.1337 165.905 61.7533 165.905 62.542C165.905 63.3307 166.048 63.9373 166.334 64.362C166.62 64.7867 167.049 64.999 167.621 64.999ZM179.748 60.046H178.019V66H176.641V60.046H175.458V59.396L176.641 58.967V58.525C176.641 57.6323 176.845 56.9997 177.252 56.627C177.668 56.2457 178.244 56.055 178.981 56.055C179.284 56.055 179.562 56.081 179.813 56.133C180.064 56.185 180.277 56.2413 180.45 56.302L180.099 57.355C179.952 57.3117 179.787 57.2727 179.605 57.238C179.432 57.1947 179.245 57.173 179.046 57.173C178.361 57.173 178.019 57.628 178.019 58.538V58.993H179.748V60.046ZM181.672 56.328C181.88 56.328 182.062 56.3887 182.218 56.51C182.374 56.6313 182.452 56.835 182.452 57.121C182.452 57.3983 182.374 57.602 182.218 57.732C182.062 57.8533 181.88 57.914 181.672 57.914C181.447 57.914 181.256 57.8533 181.1 57.732C180.953 57.602 180.879 57.3983 180.879 57.121C180.879 56.835 180.953 56.6313 181.1 56.51C181.256 56.3887 181.447 56.328 181.672 56.328ZM182.348 58.993V66H180.97V58.993H182.348ZM188.054 58.863C188.868 58.863 189.492 59.0667 189.926 59.474C190.359 59.8813 190.576 60.5357 190.576 61.437V66H189.211V61.632C189.211 60.54 188.73 59.994 187.768 59.994C187.048 59.994 186.554 60.2063 186.286 60.631C186.017 61.0557 185.883 61.6667 185.883 62.464V66H184.505V58.993H185.597L185.792 59.929H185.87C186.095 59.565 186.403 59.2963 186.793 59.123C187.191 58.9497 187.612 58.863 188.054 58.863ZM195.41 58.863C196.286 58.863 196.94 59.058 197.373 59.448C197.815 59.8293 198.036 60.4317 198.036 61.255V66H197.061L196.788 65.025H196.736C196.433 65.4063 196.112 65.688 195.774 65.87C195.445 66.0433 194.986 66.13 194.396 66.13C193.764 66.13 193.239 65.961 192.823 65.623C192.407 65.2763 192.199 64.739 192.199 64.011C192.199 63.3003 192.468 62.7587 193.005 62.386C193.543 62.0133 194.37 61.8097 195.488 61.775L196.684 61.736V61.346C196.684 60.8347 196.567 60.475 196.333 60.267C196.099 60.0503 195.77 59.942 195.345 59.942C194.99 59.942 194.648 59.994 194.318 60.098C193.989 60.202 193.673 60.3277 193.369 60.475L192.927 59.474C193.257 59.3007 193.634 59.1577 194.058 59.045C194.492 58.9237 194.942 58.863 195.41 58.863ZM195.735 62.659C194.938 62.6937 194.383 62.828 194.071 63.062C193.768 63.2873 193.616 63.608 193.616 64.024C193.616 64.388 193.725 64.6523 193.941 64.817C194.158 64.9817 194.44 65.064 194.786 65.064C195.324 65.064 195.77 64.9123 196.125 64.609C196.489 64.3057 196.671 63.8507 196.671 63.244V62.633L195.735 62.659ZM203.707 58.863C204.522 58.863 205.146 59.0667 205.579 59.474C206.012 59.8813 206.229 60.5357 206.229 61.437V66H204.864V61.632C204.864 60.54 204.383 59.994 203.421 59.994C202.702 59.994 202.208 60.2063 201.939 60.631C201.67 61.0557 201.536 61.6667 201.536 62.464V66H200.158V58.993H201.25L201.445 59.929H201.523C201.748 59.565 202.056 59.2963 202.446 59.123C202.845 58.9497 203.265 58.863 203.707 58.863ZM211.168 66.13C210.197 66.13 209.417 65.844 208.828 65.272C208.238 64.6913 207.944 63.7813 207.944 62.542C207.944 61.6753 208.087 60.9733 208.373 60.436C208.659 59.8987 209.053 59.5043 209.556 59.253C210.058 58.993 210.63 58.863 211.272 58.863C211.662 58.863 212.026 58.9063 212.364 58.993C212.71 59.071 212.996 59.162 213.222 59.266L212.806 60.384C212.563 60.2887 212.303 60.2063 212.026 60.137C211.757 60.0677 211.501 60.033 211.259 60.033C209.993 60.033 209.361 60.865 209.361 62.529C209.361 63.3263 209.517 63.933 209.829 64.349C210.141 64.765 210.6 64.973 211.207 64.973C211.597 64.973 211.939 64.9297 212.234 64.843C212.537 64.7563 212.814 64.6437 213.066 64.505V65.701C212.814 65.8483 212.541 65.9567 212.247 66.026C211.952 66.0953 211.592 66.13 211.168 66.13ZM215.422 56.328C215.63 56.328 215.812 56.3887 215.968 56.51C216.124 56.6313 216.202 56.835 216.202 57.121C216.202 57.3983 216.124 57.602 215.968 57.732C215.812 57.8533 215.63 57.914 215.422 57.914C215.196 57.914 215.006 57.8533 214.85 57.732C214.702 57.602 214.629 57.3983 214.629 57.121C214.629 56.835 214.702 56.6313 214.85 56.51C215.006 56.3887 215.196 56.328 215.422 56.328ZM216.098 58.993V66H214.72V58.993H216.098ZM220.979 58.863C221.854 58.863 222.508 59.058 222.942 59.448C223.384 59.8293 223.605 60.4317 223.605 61.255V66H222.63L222.357 65.025H222.305C222.001 65.4063 221.681 65.688 221.343 65.87C221.013 66.0433 220.554 66.13 219.965 66.13C219.332 66.13 218.808 65.961 218.392 65.623C217.976 65.2763 217.768 64.739 217.768 64.011C217.768 63.3003 218.036 62.7587 218.574 62.386C219.111 62.0133 219.939 61.8097 221.057 61.775L222.253 61.736V61.346C222.253 60.8347 222.136 60.475 221.902 60.267C221.668 60.0503 221.338 59.942 220.914 59.942C220.558 59.942 220.216 59.994 219.887 60.098C219.557 60.202 219.241 60.3277 218.938 60.475L218.496 59.474C218.825 59.3007 219.202 59.1577 219.627 59.045C220.06 58.9237 220.511 58.863 220.979 58.863ZM221.304 62.659C220.506 62.6937 219.952 62.828 219.64 63.062C219.336 63.2873 219.185 63.608 219.185 64.024C219.185 64.388 219.293 64.6523 219.51 64.817C219.726 64.9817 220.008 65.064 220.355 65.064C220.892 65.064 221.338 64.9123 221.694 64.609C222.058 64.3057 222.24 63.8507 222.24 63.244V62.633L221.304 62.659ZM227.104 66H225.726V56.12H227.104V66ZM235.167 65.012C235.349 65.012 235.536 64.999 235.726 64.973C235.917 64.9383 236.082 64.895 236.22 64.843V65.883C236.064 65.9523 235.861 66.0087 235.609 66.052C235.367 66.104 235.12 66.13 234.868 66.13C234.487 66.13 234.136 66.065 233.815 65.935C233.495 65.805 233.239 65.5797 233.048 65.259C232.866 64.9383 232.775 64.492 232.775 63.92V60.046H231.8V59.422L232.827 58.902L233.308 57.42H234.153V58.993H236.155V60.046H234.153V63.894C234.153 64.2753 234.244 64.557 234.426 64.739C234.617 64.921 234.864 65.012 235.167 65.012ZM238.324 56.328C238.532 56.328 238.714 56.3887 238.87 56.51C239.026 56.6313 239.104 56.835 239.104 57.121C239.104 57.3983 239.026 57.602 238.87 57.732C238.714 57.8533 238.532 57.914 238.324 57.914C238.099 57.914 237.908 57.8533 237.752 57.732C237.605 57.602 237.531 57.3983 237.531 57.121C237.531 56.835 237.605 56.6313 237.752 56.51C237.908 56.3887 238.099 56.328 238.324 56.328ZM239 58.993V66H237.622V58.993H239ZM244.661 58.863C245.502 58.863 246.178 59.1663 246.689 59.773C247.209 60.3797 247.469 61.2853 247.469 62.49C247.469 63.6773 247.209 64.583 246.689 65.207C246.169 65.8223 245.489 66.13 244.648 66.13C244.111 66.13 243.673 66.0347 243.335 65.844C243.006 65.6447 242.741 65.4107 242.542 65.142H242.451C242.477 65.298 242.499 65.4843 242.516 65.701C242.533 65.909 242.542 66.0953 242.542 66.26V69.12H241.164V58.993H242.282L242.477 59.929H242.542C242.741 59.6343 243.006 59.383 243.335 59.175C243.673 58.967 244.115 58.863 244.661 58.863ZM244.336 59.994C243.686 59.994 243.227 60.1847 242.958 60.566C242.689 60.9387 242.551 61.5063 242.542 62.269V62.477C242.542 63.283 242.672 63.907 242.932 64.349C243.192 64.7823 243.669 64.999 244.362 64.999C244.934 64.999 245.359 64.765 245.636 64.297C245.913 63.829 246.052 63.218 246.052 62.464C246.052 61.7013 245.913 61.099 245.636 60.657C245.359 60.215 244.925 59.994 244.336 59.994ZM253.879 64.024C253.879 64.7087 253.628 65.233 253.125 65.597C252.623 65.9523 251.925 66.13 251.032 66.13C250.538 66.13 250.114 66.091 249.758 66.013C249.412 65.9437 249.091 65.8397 248.796 65.701V64.492C249.1 64.6393 249.455 64.7737 249.862 64.895C250.278 65.0077 250.681 65.064 251.071 65.064C251.591 65.064 251.964 64.9817 252.189 64.817C252.423 64.6523 252.54 64.4313 252.54 64.154C252.54 63.998 252.497 63.8593 252.41 63.738C252.324 63.608 252.159 63.478 251.916 63.348C251.682 63.2093 251.336 63.0533 250.876 62.88C250.426 62.698 250.044 62.5203 249.732 62.347C249.429 62.165 249.195 61.9527 249.03 61.71C248.866 61.4587 248.783 61.138 248.783 60.748C248.783 60.1413 249.026 59.6777 249.511 59.357C250.005 59.0277 250.655 58.863 251.461 58.863C251.886 58.863 252.285 58.9063 252.657 58.993C253.039 59.0797 253.407 59.201 253.762 59.357L253.307 60.41C253.004 60.28 252.692 60.1717 252.371 60.085C252.051 59.9897 251.726 59.942 251.396 59.942C250.98 59.942 250.664 60.007 250.447 60.137C250.231 60.267 250.122 60.449 250.122 60.683C250.122 60.8477 250.174 60.9907 250.278 61.112C250.382 61.2333 250.556 61.3547 250.798 61.476C251.05 61.5973 251.392 61.7447 251.825 61.918C252.259 62.0827 252.627 62.2517 252.93 62.425C253.242 62.5983 253.476 62.8107 253.632 63.062C253.797 63.3133 253.879 63.634 253.879 64.024ZM255.327 65.233C255.327 64.895 255.41 64.6567 255.574 64.518C255.748 64.3793 255.96 64.31 256.211 64.31C256.454 64.31 256.662 64.3793 256.835 64.518C257.017 64.6567 257.108 64.895 257.108 65.233C257.108 65.571 257.017 65.8137 256.835 65.961C256.662 66.1083 256.454 66.182 256.211 66.182C255.96 66.182 255.748 66.1083 255.574 65.961C255.41 65.8137 255.327 65.571 255.327 65.233Z" fill="#333333"/>
<path fill-rule="evenodd" clip-rule="evenodd" d="M41.6562 59.7123H48.345V46.4297H41.6562V59.7123Z" fill="#FFD565"/>
<path fill-rule="evenodd" clip-rule="evenodd" d="M39.7417 46.4294C38.6182 46.4294 37.7041 45.5153 37.7041 44.3918C37.7041 43.2683 38.6182 42.3543 39.7417 42.3543H50.2585C51.382 42.3543 52.296 43.2683 52.296 44.3918C52.296 45.5153 51.382 46.4294 50.2585 46.4294H49.135V59.712H51.7249C52.1537 57.7712 53.134 54.4382 55.299 50.6794C55.3049 50.6695 55.3108 50.6606 55.3168 50.6517C56.7772 48.5469 57.549 46.0766 57.549 43.5074C57.549 36.5875 51.9195 30.958 44.9996 30.958C38.0806 30.958 32.4512 36.5875 32.4512 43.5074C32.4512 45.8859 33.1211 48.2021 34.3869 50.2041C34.3929 50.2129 34.3978 50.2218 34.4018 50.2307C36.2782 53.378 37.3039 56.2554 37.8336 58.1161C38.0055 58.7199 38.1379 59.2545 38.2387 59.712H40.8652V46.4294H39.7417Z" fill="#FFCE50"/>
<path fill-rule="evenodd" clip-rule="evenodd" d="M37.6787 65.2607V65.3497C39.991 66.074 42.4495 66.4643 44.9999 66.4643C47.5503 66.4643 50.0098 66.074 52.322 65.3497V65.2607H37.6787Z" fill="white"/>
<path fill-rule="evenodd" clip-rule="evenodd" d="M37.6787 64.47H52.322V62.6943H37.6787V64.47Z" fill="white"/>
<path fill-rule="evenodd" clip-rule="evenodd" d="M37.6787 61.9041H52.322V60.5029H37.6787V61.9041Z" fill="white"/>
<path fill-rule="evenodd" clip-rule="evenodd" d="M51.4665 46.3994C52.3122 46.3994 53 45.5024 53 44.3994C53 43.2964 52.3122 42.3994 51.4665 42.3994H38.5335C37.6878 42.3994 37 43.2964 37 44.3994C37 45.5024 37.6878 46.3994 38.5335 46.3994H51.4665Z" fill="white"/>
<path fill-rule="evenodd" clip-rule="evenodd" d="M44.9997 24.1523C44.7824 24.1523 44.6045 24.3293 44.6045 24.5476V27.4027C44.6045 27.6211 44.7824 27.798 44.9997 27.798C45.2181 27.798 45.395 27.6211 45.395 27.4027V24.5476C45.395 24.3293 45.2181 24.1523 44.9997 24.1523Z" fill="#333333"/>
<path fill-rule="evenodd" clip-rule="evenodd" d="M39.1195 25.7523C39.0108 25.5634 38.7687 25.4985 38.579 25.6078C38.3902 25.7169 38.326 25.9586 38.4347 26.1475L39.8626 28.6208C39.9357 28.7473 40.0691 28.8184 40.2054 28.8184C40.2726 28.8184 40.3398 28.8007 40.4021 28.7651C40.5918 28.6564 40.656 28.4143 40.5473 28.2256L39.1195 25.7523Z" fill="#333333"/>
<path fill-rule="evenodd" clip-rule="evenodd" d="M36.6267 30.8684L34.1534 29.4405C33.9646 29.3319 33.7225 29.3961 33.6138 29.5848C33.5042 29.7745 33.5694 30.0156 33.7581 30.1253L36.2314 31.5532C36.2937 31.5888 36.3609 31.6056 36.4281 31.6056C36.5654 31.6056 36.6978 31.5354 36.771 31.4079C36.8806 31.2192 36.8154 30.9771 36.6267 30.8684Z" fill="#333333"/>
<path fill-rule="evenodd" clip-rule="evenodd" d="M55.8467 29.44L53.3733 30.8679C53.1846 30.9766 53.1194 31.2187 53.2291 31.4074C53.3022 31.5349 53.4346 31.605 53.572 31.605C53.6382 31.605 53.7063 31.5882 53.7686 31.5527L56.2419 30.1248C56.4307 30.0151 56.4959 29.774 56.3862 29.5843C56.2775 29.3955 56.0354 29.3303 55.8467 29.44Z" fill="#333333"/>
<path fill-rule="evenodd" clip-rule="evenodd" d="M51.4206 25.6078C51.2319 25.4985 50.9908 25.5633 50.8811 25.7524L49.4532 28.2256C49.3445 28.4143 49.4087 28.6564 49.5985 28.7651C49.6607 28.8007 49.7279 28.8185 49.7951 28.8185C49.9315 28.8185 50.0649 28.7473 50.138 28.6208L51.5659 26.1475C51.6745 25.9586 51.6103 25.7169 51.4206 25.6078Z" fill="#333333"/>
<path fill-rule="evenodd" clip-rule="evenodd" d="M38.2392 59.7124C38.1384 59.2549 38.006 58.7203 37.8341 58.1166C37.3044 56.2559 36.2787 53.3784 34.4022 50.2312C34.3983 50.2223 34.3933 50.2134 34.3874 50.2045C33.1216 48.2026 32.4516 45.8863 32.4516 43.5079C32.4516 36.5879 38.0811 30.9585 45.0001 30.9585C51.92 30.9585 57.5495 36.5879 57.5495 43.5079C57.5495 46.0771 56.7777 48.5474 55.3173 50.6522C55.3113 50.6611 55.3054 50.6699 55.2995 50.6798C53.1345 54.4387 52.1542 57.7717 51.7254 59.7124H52.5347C52.9685 57.8112 53.9269 54.6522 55.9764 51.0889C57.5228 48.8537 58.34 46.2332 58.34 43.5079C58.34 36.1522 52.3558 30.168 45.0001 30.168C37.6453 30.168 31.6611 36.1522 31.6611 43.5079C31.6611 46.0296 32.3696 48.4852 33.7086 50.6107C33.7105 50.6126 33.7115 50.6156 33.7135 50.6186C35.9428 54.3537 36.9704 57.7322 37.426 59.7124H38.2392Z" fill="#333333"/>
<path fill-rule="evenodd" clip-rule="evenodd" d="M37.283 64.4698H37.6782V62.6941H37.283C37.0646 62.6941 36.8877 62.5172 36.8877 62.2988V64.865C36.8877 64.6467 37.0646 64.4698 37.283 64.4698Z" fill="#333333"/>
<path fill-rule="evenodd" clip-rule="evenodd" d="M53.0166 65.1192C53.0482 65.1083 53.0798 65.0975 53.1124 65.0856V64.8652C53.1124 64.9621 53.0759 65.051 53.0166 65.1192Z" fill="#594A42"/>
<path fill-rule="evenodd" clip-rule="evenodd" d="M52.7175 62.6941H52.3223V64.4698H52.7175C52.9359 64.4698 53.1128 64.6467 53.1128 64.865V62.2988C53.1128 62.5172 52.9359 62.6941 52.7175 62.6941Z" fill="#333333"/>
<path fill-rule="evenodd" clip-rule="evenodd" d="M36.8877 65.0856C36.9193 65.0975 36.9519 65.1083 36.9835 65.1192C36.9243 65.051 36.8877 64.9621 36.8877 64.8652V65.0856Z" fill="#594A42"/>
<path fill-rule="evenodd" clip-rule="evenodd" d="M37.283 61.9036H37.6782V60.5024H41.2602C41.0418 60.5024 40.865 60.3256 40.865 60.1072V59.7119H37.283C37.0646 59.7119 36.8877 59.8888 36.8877 60.1072V62.2989C36.8877 62.0805 37.0646 61.9036 37.283 61.9036Z" fill="#333333"/>
<path fill-rule="evenodd" clip-rule="evenodd" d="M51.7254 59.7119H49.1355V60.1072C49.1355 60.3256 48.9586 60.5024 48.7402 60.5024H52.3222V61.9036H52.7175C52.9359 61.9036 53.1128 62.0805 53.1128 62.2989V60.1072C53.1128 59.8888 52.9359 59.7119 52.7175 59.7119H51.7254Z" fill="#333333"/>
<path fill-rule="evenodd" clip-rule="evenodd" d="M37.4023 65.2607C37.4942 65.2904 37.5861 65.321 37.678 65.3497V65.2607H37.4023Z" fill="#594A42"/>
<path fill-rule="evenodd" clip-rule="evenodd" d="M52.3223 65.3497C52.4142 65.321 52.5061 65.2904 52.598 65.2607H52.3223V65.3497Z" fill="#594A42"/>
<path fill-rule="evenodd" clip-rule="evenodd" d="M48.3448 60.1072V59.7119H41.656V60.1072C41.656 60.3256 41.4791 60.5024 41.2607 60.5024H48.74C48.5216 60.5024 48.3448 60.3256 48.3448 60.1072Z" fill="#333333"/>
<path fill-rule="evenodd" clip-rule="evenodd" d="M37.283 62.6948H52.7167C52.9351 62.6948 53.112 62.5179 53.112 62.2996C53.112 62.0812 52.9351 61.9043 52.7167 61.9043H37.283C37.0646 61.9043 36.8877 62.0812 36.8877 62.2996C36.8877 62.5179 37.0646 62.6948 37.283 62.6948Z" fill="#333333"/>
<path fill-rule="evenodd" clip-rule="evenodd" d="M52.7167 64.4697H37.283C37.0646 64.4697 36.8877 64.6466 36.8877 64.865C36.8877 64.9618 36.9243 65.0507 36.9835 65.1189C37.1219 65.1673 37.2622 65.2138 37.4025 65.2602H52.5972C52.7375 65.2138 52.8778 65.1673 53.0161 65.1189C53.0754 65.0507 53.112 64.9618 53.112 64.865C53.112 64.6466 52.9351 64.4697 52.7167 64.4697Z" fill="#333333"/>
<path fill-rule="evenodd" clip-rule="evenodd" d="M41.6557 60.1076V46.4297H40.8652V60.1076C40.8652 60.3259 41.0421 60.5028 41.2605 60.5028C41.4789 60.5028 41.6557 60.3259 41.6557 60.1076Z" fill="#333333"/>
<path fill-rule="evenodd" clip-rule="evenodd" d="M48.3447 46.4297V60.1076C48.3447 60.3259 48.5216 60.5028 48.74 60.5028C48.9584 60.5028 49.1352 60.3259 49.1352 60.1076V46.4297H48.3447Z" fill="#333333"/>
<path fill-rule="evenodd" clip-rule="evenodd" d="M51.4352 18.8596C51.3927 18.8596 51.3482 18.8539 51.3057 18.8421C50.4915 18.6208 49.6545 18.4409 48.8195 18.3072C48.5498 18.264 48.367 18.0107 48.4095 17.7413C48.4529 17.4717 48.7069 17.2882 48.9757 17.3315C49.8452 17.4707 50.7168 17.6582 51.5646 17.8886C51.8275 17.9602 51.9836 18.2316 51.9115 18.495C51.8522 18.7149 51.6526 18.8596 51.4352 18.8596Z" fill="#333333"/>
<path fill-rule="evenodd" clip-rule="evenodd" d="M44.9997 66.9582C38.3297 66.9582 32.0589 64.3604 27.343 59.645C22.6267 54.9286 20.0293 48.6578 20.0293 41.9879C20.0293 35.3179 22.6267 29.0471 27.343 24.3304C32.0589 19.614 38.3297 17.0166 44.9997 17.0166C45.2734 17.0166 45.4937 17.2378 45.4937 17.5107C45.4937 17.7836 45.2734 18.0047 44.9997 18.0047C38.5945 18.0047 32.5718 20.4994 28.0418 25.0292C23.512 29.559 21.0174 35.5817 21.0174 41.9879C21.0174 48.393 23.512 54.4157 28.0418 58.9454C32.5718 63.476 38.5945 65.9701 44.9997 65.9701C51.4058 65.9701 57.4285 63.476 61.9581 58.9454C66.4878 54.4157 68.9829 48.393 68.9829 41.9879C68.9829 37.4938 67.7329 33.1124 65.3672 29.3189C63.0668 25.6274 59.808 22.6271 55.9453 20.6422C55.7022 20.5175 55.6064 20.2196 55.7319 19.9769C55.8564 19.7342 56.1538 19.6384 56.3969 19.7632C60.4186 21.8297 63.8109 24.9532 66.2062 28.7961C68.6686 32.7467 69.971 37.309 69.971 41.9879C69.971 48.6578 67.3732 54.9286 62.6568 59.645C57.9404 64.3604 51.6696 66.9582 44.9997 66.9582Z" fill="#333333"/>
<path fill-rule="evenodd" clip-rule="evenodd" d="M54.4659 19.1317C54.4659 19.479 54.1843 19.7604 53.8365 19.7604C53.4896 19.7604 53.208 19.479 53.208 19.1317C53.208 18.7845 53.4896 18.5029 53.8365 18.5029C54.1843 18.5029 54.4659 18.7845 54.4659 19.1317Z" fill="#333333"/>
</svg>
