<svg width="678" height="153" viewBox="0 0 678 153" fill="none" xmlns="http://www.w3.org/2000/svg">
<mask id="mask0_897_10476" style="mask-type:alpha" maskUnits="userSpaceOnUse" x="0" y="79" width="697" height="83">
<path fill-rule="evenodd" clip-rule="evenodd" d="M697 79H606V156.877H697V79ZM505 88.2222H596V156.877H505V88.2222ZM495 99.4938H404V156.877H495V99.4938ZM303 109.741H394V156.877H303V109.741ZM293 118.963H202V156.877H293V118.963ZM101 128.185H192V156.877H101V128.185ZM0 137.407H91V162H0V137.407Z" fill="#FFCE50"/>
</mask>
<g mask="url(#mask0_897_10476)">
<path fill-rule="evenodd" clip-rule="evenodd" d="M697 79H606V156.877H697V79ZM505 88.2222H596V156.877H505V88.2222ZM495 99.4938H404V156.877H495V99.4938ZM303 109.741H394V156.877H303V109.741ZM293 118.963H202V156.877H293V118.963ZM101 128.185H192V156.877H101V128.185ZM0 137.407H91V162H0V137.407Z" fill="#FFCE50"/>
<path fill-rule="evenodd" clip-rule="evenodd" d="M124.31 -106.784C5.66463 -95.8746 -112.98 -84.9616 -231.624 -74.0485C-319.522 -70.5381 -351.954 -20.1461 -277.928 19.0049C-250.984 32.812 -218.18 43.0728 -202.64 64.4593C-192.331 78.6449 -190.924 96.3661 -177.414 108.937C-161.573 123.678 -132.983 127.52 -106.876 126.1C-52.3293 120.398 1.27239 109.712 45.1837 139.795C66.1757 153.04 71.1155 176.474 89.5628 191.582C134.743 227.698 216.246 209.39 256.948 173.255C286.171 149.512 310.175 116.855 352.197 110.829C385.661 109.669 412.759 117.45 441.062 125.235C479.308 135.755 519.753 146.275 581.083 134.706C660.858 119.659 690.674 63.1656 726.713 7.78197C767.318 -53.361 734.864 -102.016 645.406 -109.62C475.019 -135.811 298.106 -123.961 124.31 -106.784Z" fill="#FFBE18"/>
</g>
<path d="M286 179L350.5 129L456.5 152L559.5 88" stroke="#132660" stroke-width="2" stroke-linecap="round"/>
<line x1="608.645" y1="54.7671" x2="678.645" y2="3.76705" stroke="#336AF3" stroke-width="8" stroke-dasharray="8 8"/>
</svg>
