<svg width="24" height="24" viewBox="0 0 24 24" fill="none" xmlns="http://www.w3.org/2000/svg">
<circle cx="12" cy="12" r="12" fill="#336AF3"/>
<path d="M13.5154 15.932V11.5741C13.5154 11.3744 13.352 11.2109 13.1522 11.2109C12.9525 11.2109 12.7891 11.3744 12.7891 11.5741V15.932C12.7891 16.1317 12.9525 16.2952 13.1522 16.2952C13.352 16.2952 13.5154 16.1317 13.5154 15.932Z" fill="white"/>
<path d="M5.16296 9.03197H6.27786L6.93154 18.1872C6.97149 18.7537 7.45085 19.2004 8.01738 19.2004H15.3822C15.9524 19.2004 16.4281 18.7573 16.4681 18.1872L17.1217 9.03197H18.2366C18.4364 9.03197 18.5998 8.86855 18.5998 8.66881C18.5998 8.46907 18.4364 8.30565 18.2366 8.30565H14.9682V6.48986C14.9682 5.89065 14.478 5.40039 13.8788 5.40039H9.52086C8.92165 5.40039 8.43138 5.89065 8.43138 6.48986V8.30565H5.16296C4.96323 8.30565 4.7998 8.46907 4.7998 8.66881C4.7998 8.86855 4.96323 9.03197 5.16296 9.03197ZM9.1577 6.12671H14.2419V8.30565H9.1577V6.12671ZM16.3954 9.03197L15.72 18.4741H7.67964L7.00418 9.03197H16.3954Z" fill="white"/>
<path d="M10.6101 15.932V11.5741C10.6101 11.3744 10.4467 11.2109 10.2469 11.2109C10.0472 11.2109 9.88379 11.3744 9.88379 11.5741V15.932C9.88379 16.1317 10.0472 16.2952 10.2469 16.2952C10.4467 16.2952 10.6101 16.1317 10.6101 15.932Z" fill="white"/>
</svg>
