<svg width="35" height="37" viewBox="0 0 35 37" fill="none" xmlns="http://www.w3.org/2000/svg">
<path d="M16.7023 0.80957C7.2447 0.80957 1.39062 8.89963 1.39062 16.3959V16.8208H17.0731V32.9791C17.0731 34.1712 16.1038 35.1406 14.9116 35.1406H14.746C13.5538 35.1406 12.5844 34.1712 12.5844 32.9791H11.7343C11.7343 34.64 13.0853 35.9907 14.746 35.9907H14.9116C16.5719 35.9907 17.9232 34.64 17.9232 32.9791V16.8215H33.6065V16.3966C33.6056 8.23954 25.5485 0.810299 16.7021 0.810299L16.7023 0.80957ZM2.24742 15.9704C2.47311 8.97926 8.22426 1.65908 16.7023 1.65908C24.7996 1.65908 32.4635 8.55516 32.7483 15.9704H2.24742Z" fill="#132660" stroke="#132660"/>
</svg>
