<svg width="15" height="9" viewBox="0 0 15 9" fill="none" xmlns="http://www.w3.org/2000/svg">
<path d="M13.8826 7.50137C13.874 7.42437 13.8386 7.3524 13.7821 7.29723L7.70042 1.1071C7.6328 1.03837 7.53884 0.999511 7.4404 0.999511C7.34208 0.999511 7.24813 1.03837 7.1805 1.1071L1.09885 7.29723C1.0331 7.36332 0.997537 7.45196 1.00003 7.54347C1.0024 7.63487 1.04258 7.7217 1.1117 7.78455C1.18083 7.8474 1.27316 7.88123 1.36836 7.87847C1.46343 7.87583 1.55352 7.83673 1.61865 7.77004L7.43774 1.84336L13.2623 7.77004C13.3664 7.88027 13.5326 7.9135 13.674 7.85232C13.8153 7.79115 13.8995 7.64951 13.8826 7.50137Z" fill="#333333" stroke="white"/>
</svg>
