<svg width="34" height="31" viewBox="0 0 34 31" fill="none" xmlns="http://www.w3.org/2000/svg">
<path d="M32.7401 3.76984C32.7401 2.23173 31.4884 0.953125 29.9619 0.953125H3.66763C2.14128 0.953125 0.899414 2.23173 0.899414 3.76984V27.0301C0.899414 28.5682 2.14128 29.8468 3.66763 29.8468H29.9619C31.4884 29.8468 32.7401 28.5682 32.7401 27.0301V18.7192C32.9567 18.6589 33.1046 18.4592 33.0994 18.2345V12.5652C33.1046 12.3406 32.9567 12.1409 32.7401 12.0805V3.76984ZM32.0932 13.1V17.7H26.3881C25.5664 17.7 24.8071 17.2615 24.3964 16.55C23.9854 15.8384 23.9854 14.9615 24.3964 14.25C24.8071 13.5384 25.5664 13.1 26.3881 13.1H32.0932ZM29.9618 28.8405H3.66757C2.69625 28.8405 1.90564 28.0132 1.90564 27.03V3.76977C1.90564 2.78662 2.69625 1.95928 3.66757 1.95928H29.9618C30.9334 1.95928 31.7338 2.78662 31.7338 3.76977V3.97179V4.5V4.97804V12.0936H26.3881C25.207 12.0936 24.1155 12.7238 23.5249 13.7467C22.9343 14.7696 22.9342 16.03 23.5249 17.0529C24.1156 18.0758 25.2071 18.706 26.3881 18.706H31.7338V27.0301C31.7338 28.0132 30.9334 28.8405 29.9618 28.8405Z" fill="#132660" stroke="#132660" stroke-width="0.8"/>
</svg>
