<svg width="155" height="404" fill="none" xmlns="http://www.w3.org/2000/svg">
  <g clip-path="url(#a)">
    <path fill-rule="evenodd" clip-rule="evenodd" d="M90.417 7.099s11.637-14.567 24.462-1.967c12.824 12.6-6.186 36.907-1.668 49.072 4.518 12.167 19.718 0 19.718 0s-7.466 16.312-19.718 16.001c-19.277-.49-18.807-37.042-18.807-37.042S98.833 3.673 90.417 7.1Z" fill="#434862"/>
    <path fill-rule="evenodd" clip-rule="evenodd" d="M88.804 49.535h7.409c6.462 0 12.202-4.077 14.376-10.16l.041-.112c7.726-21.526-9.377-36.2-26.581-32.824-17.204 3.377-16.48 21.372-16.48 21.372v.51c0 11.716 9.507 21.214 21.235 21.214Z" fill="#434862"/>
    <path fill-rule="evenodd" clip-rule="evenodd" d="M96.917 62.502C86.217 74 78.969 68.24 78.969 68.24L77.5 54.393l12.37-7.735 3.185-1.99.098.459.179.838 3.585 16.537ZM77.506 26.179s-6.346-4.131-9.8 1.988c-3.456 6.119 1.506 11.314 7.795 10.028l2.005-12.016Z" fill="#FFC0AF"/>
    <path fill-rule="evenodd" clip-rule="evenodd" d="M102.674 33.32c-1.382 2.408-3.314 5.33-5.573 8.25a74.778 74.778 0 0 1-2.635 3.214c-7.538 8.657-17.664 11.91-22.562 6.196-3.547-4.138-4.762-9.985-4.214-15.134.09-.843.21-1.682.359-2.512 1.65-9.33 6.511-17.325 6.511-17.325C79.877 8.42 86.337 6.68 93.338 8.745c6.317 1.857 16.514 12.07 9.336 24.575Z" fill="#FFC0AF"/>
    <path d="M74.704 41.202c.415.356 2.098.841 2.998-.374" stroke="#333" stroke-width=".863" stroke-miterlimit="10" stroke-linecap="round"/>
    <path fill-rule="evenodd" clip-rule="evenodd" d="M104.44 36.832c-.211 3.013-1.625 5.027-3.531 5.984-.367.184-.752.33-1.151.436-2.344.622-5.142-.132-7.355-2.34l4.951-11.133s7.577.045 7.086 7.053Z" fill="#FFC0AF"/>
    <path fill-rule="evenodd" clip-rule="evenodd" d="M93.963 17.696s-3.803 4.02-7.454 3.538c-3.652-.482 2.022-5.87 2.022-5.87s-5.067 4.1-7.583 3.94c-2.516-.16.46-5.27.46-5.27s-4.505 5.51-7.08 4.306c-2.576-1.206 1.48-6.594 6.051-9.006 4.572-2.412 18.092-5.163 23.829 3.699 4.69 7.246 2.132 16.396-1.344 19.311 0 0-4.12-2.977-6.752-.451-2.63 2.526-3.195 5.387-4.885 4.238-1.689-1.149 3.46-7.581 3.541-12.405.082-4.825-.805-6.03-.805-6.03Z" fill="#434862"/>
    <path fill-rule="evenodd" clip-rule="evenodd" d="M59.978 167.754s.885 3.641-.158 7.068c-1.044 3.428 2.23 4.114 2.491.135.22-3.355-2.333-7.203-2.333-7.203Z" fill="#E5767A"/>
    <path fill-rule="evenodd" clip-rule="evenodd" d="M61.328 148.209s1.454-2.345 4.613-.735c3.158 1.61 5.404 6.39 4.21 7.706-1.194 1.318-3.632-3.471-5.349-2.775-1.715.695 1.366 10.706 2.008 13.55.641 2.846 1.007 14.13-1.61 13.132-2.617-.999-2.014-3.669-4.257-8.348-2.292-4.785-4.691-9.053-5.94-11.786-2.174-4.761 6.325-10.744 6.325-10.744Z" fill="#FFC0AF"/>
    <path fill-rule="evenodd" clip-rule="evenodd" d="M55.405 157.436s-17.267-7.658-22.617-11.697l9.525-9.749 19.036 11.857s2.291 10.617-5.944 9.589Z" fill="#FFC0AF"/>
    <path fill-rule="evenodd" clip-rule="evenodd" d="M58.622 165.77s2.493 6.851 2.156 10.096c-.364 3.517 2.096 5.553 3.024-.132.928-5.687-5.18-9.964-5.18-9.964Z" fill="#EFA593"/>
    <path fill-rule="evenodd" clip-rule="evenodd" d="M63.663 75.267c-1.417-.891-1.841-6.52-6.28-4.258-1.53.78-5.529 4.605-6.427 6.069l-30.57 49.781a10.605 10.605 0 0 0 2.58 13.816l14.355 13.015 14.225-17.66-8.107-6.319.396-.66.335-.562 23.259-37.593c3.012-5.032 1.198-12.504-3.766-15.63Z" fill="#FFCE50"/>
    <path fill-rule="evenodd" clip-rule="evenodd" d="M58.786 103.13c.19.599.382 1.196.567 1.787 2.199 7.019 4.041 13.617 3.828 17.975-.592 12.08-3.117 38.799-3.117 38.799 18.576 11.472 53.564-2.376 53.564-2.376-3.336-12.933-4.274-22.806-2.348-37.235.445-3.332 1.444-7.256 2.602-11.415.152-.544.308-1.092.465-1.644 3.815-13.476 8.712-28.854 1.635-34.367-6.798-5.293-12.529-8.762-17.05-10.814a85.085 85.085 0 0 0-2.978-1.305l-15.655.702s-1.234.116-3.164.412c-6.176.942-20.116 5.266-23.4 10.148-3.15 4.688 1.26 17.387 5.05 29.333Z" fill="#FFCE50"/>
    <path fill-rule="evenodd" clip-rule="evenodd" d="M77.5 63.643c.086 1.011.397 2.226.839 3.539 2.057 6.067 7.085 14.22 7.085 14.22l10.875-13.769v-.01l.01-.01 2.982-3.776c-1.84-.85-2.982-1.302-2.982-1.302l-15.644.699s-1.238.108-3.165.409Z" fill="#FFC0AF"/>
    <path fill-rule="evenodd" clip-rule="evenodd" d="M78.493 67.499c2.058 6.067 7.086 14.22 7.086 14.22l10.874-13.768v-.01c-.43.192-11.047 5.033-17.96-.442Z" fill="#fff"/>
    <path fill-rule="evenodd" clip-rule="evenodd" d="M88.526 359.332s-4.808 1.957-4.985 8.715c-.178 6.76 0 24.192 0 24.192h2.453l1.33-6.148s.847 6.682 4.229 10.951c3.383 4.269 10.683 4.447 15.491 3.735 4.807-.711 1.246-9.605-.713-14.586-1.959-4.98-6.056-16.898-6.056-16.898l-11.749-9.961Z" fill="#434862"/>
    <path fill-rule="evenodd" clip-rule="evenodd" d="M90.168 349.405s.153 8.242-1.272 9.667c-1.424 1.422-3.383 6.048-1.958 11.739 1.424 5.692 2.373 13.993 5.697 17.551 3.324 3.558 11.989 3.677 12.701.83.713-2.847-4.392-13.4-4.629-18.856-.237-5.455-1.186-20.159-1.186-20.159l-9.353-.772Z" fill="#FFC0AF"/>
    <path fill-rule="evenodd" clip-rule="evenodd" d="M88.694 281.687c-1.551 5.266-2.102 27.491-2.08 40.755.011 5.269 2.904 25.303 2.835 33.943l10.214.429c2.244-16.969 8.008-44.436 10.632-59.222.117-.65.225-1.274.326-1.874.457-2.661.783-4.799.927-6.241.244-2.421.543-6.138.875-10.728.044-.596.088-1.215.138-1.834.369-5.181.775-11.318 1.192-17.875.194-3.04.387-6.167.586-9.337 1.677-27.14 3.345-57.133 3.345-57.133l-31.242 2.778s1.517 31.766 2.249 56.826c.074 2.472.142 4.881.194 7.189.28 11.614.31 20.627-.191 22.324Z" fill="#FFC0AF"/>
    <path fill-rule="evenodd" clip-rule="evenodd" d="M17.189 384.405c2.36-3.803 23.521-24.081 23.521-24.081s4.326 3.387 4.117 7.118c-.2 3.552-.05 22.247-.103 24.217h-2.567l-1.447-8.529s-5.85 9.35-10.243 12.552c-4.391 3.202-19.233 2.626-22.794 2.152-3.56-.474 7.155-9.625 9.516-13.429Z" fill="#434862"/>
    <path fill-rule="evenodd" clip-rule="evenodd" d="m43.177 351.938-2.811 8.342s1.188 2.726 0 6.759c-1.187 4.031-7.359 10.317-9.97 15.179-2.612 4.862-11.634 8.182-14.006 7.116-2.375-1.067 4.51-9.25 6.527-13.52 2.018-4.269 3.622-8.745 5.104-12.096 1.318-2.978 4.617-12.327 4.617-12.327l10.539.547Z" fill="#FFC0AF"/>
    <path fill-rule="evenodd" clip-rule="evenodd" d="M30.8 356.712c5.458.945 5.208-.213 10.707.429 4.75-14.286 18.996-43.198 21.598-49.929 5.08-13.103 5.743-31.553 5.743-31.553l27.197-80.271-34.061-3.811-14.738 78.998-.31 1.699-16.135 84.438Z" fill="#FFC0AF"/>
    <path fill-rule="evenodd" clip-rule="evenodd" d="M37.757 251.775s8.61 1.643 20.548 3.208c.635.085 1.28.166 1.933.248 21.848 2.761 53.342 4.976 64.727-3.073 0 0 8.591-53.248-8.799-93.444a88.867 88.867 0 0 0-4.381-8.827c-18.779 5.672-35.73 8.548-50.932 4.661 0 0-.905 3.735-2.359 9.748-.126.532-.258 1.081-.397 1.646-5.869 24.312-19.17 79.564-20.34 85.833Z" fill="#4756DF"/>
    <path fill-rule="evenodd" clip-rule="evenodd" d="M121.899 168.747s.169 3.743 2.132 6.742c1.964 2.999-.988 4.574-2.354.826-1.15-3.159.222-7.568.222-7.568Z" fill="#FFC0AF"/>
    <path fill-rule="evenodd" clip-rule="evenodd" d="M114.583 150.558s-2.053-1.846-4.634.584c-2.581 2.429-3.397 7.648-1.882 8.578 1.515.929 2.515-4.35 4.356-4.162 1.842.187 1.689 10.659 1.871 13.57.183 2.911 2.994 13.846 5.227 12.154 2.233-1.69.904-4.084 1.745-9.203.861-5.234 1.968-10.004 2.4-12.976.752-5.179-9.083-8.545-9.083-8.545Z" fill="#FFC0AF"/>
    <path fill-rule="evenodd" clip-rule="evenodd" d="M118.901 159.139s16.801-8.628 21.911-12.966l-10.063-9.191-18.33 12.922s-1.683 10.731 6.482 9.235ZM122.139 165.77s-.473 7.274.761 10.295c1.334 3.275-.455 5.918-2.94.719-2.485-5.2 2.179-11.014 2.179-11.014Z" fill="#FFC0AF"/>
    <path fill-rule="evenodd" clip-rule="evenodd" d="M107.007 77.268c1.364-.97 4.355-4.18 8.915-2.174 1.573.691 1.915.44 2.895 1.849l34.339 49.372a10.604 10.604 0 0 1-1.788 13.94l-13.59 13.81-15.208-16.822 6.852-5.999.795-.695.087-.076-.434-.637-.366-.541-25.363-36.21c-3.296-4.851-1.91-12.415 2.866-15.817Z" fill="#FFCE50"/>
  </g>
  <defs>
    <clipPath id="a">
      <path fill="#fff" d="M0 0h155v404H0z"/>
    </clipPath>
  </defs>
</svg>