<svg width="149" height="402" viewBox="0 0 149 402" fill="none" xmlns="http://www.w3.org/2000/svg">
<path fill-rule="evenodd" clip-rule="evenodd" d="M83.4614 7.09895C83.4614 7.09895 95.0979 -7.46788 107.924 5.13156C120.748 17.732 101.738 42.0385 106.255 54.2042C110.773 66.3708 125.973 54.2042 125.973 54.2042C125.973 54.2042 118.507 70.516 106.255 70.2053C86.9787 69.715 87.4487 33.1634 87.4487 33.1634C87.4487 33.1634 91.8771 3.67338 83.4614 7.09895Z" fill="#434862"/>
<path fill-rule="evenodd" clip-rule="evenodd" d="M81.8482 49.5349H89.2574C95.7199 49.5349 101.46 45.4572 103.634 39.3754L103.675 39.2622C111.401 17.7371 94.2979 3.06302 77.0929 6.43895C59.8899 9.81587 60.6132 27.8103 60.6132 27.8103V28.3205C60.6132 40.0365 70.1209 49.5349 81.8482 49.5349Z" fill="#434862"/>
<path fill-rule="evenodd" clip-rule="evenodd" d="M89.9616 62.5028C79.2627 73.9994 72.0134 68.2402 72.0134 68.2402L70.5449 54.393L82.9141 46.6584L86.0995 44.6682L86.1979 45.1268L86.3768 45.9656L89.9616 62.5028Z" fill="#FFC0AF"/>
<path fill-rule="evenodd" clip-rule="evenodd" d="M70.5514 26.1792C70.5514 26.1792 64.2054 22.0479 60.7507 28.1675C57.295 34.286 62.2569 39.4815 68.5464 38.195L70.5514 26.1792Z" fill="#FFC0AF"/>
<path fill-rule="evenodd" clip-rule="evenodd" d="M95.7179 33.3197C94.3359 35.7278 92.4044 38.6501 90.145 41.5704C89.3074 42.6514 88.4251 43.7294 87.51 44.7835C79.9726 53.4403 69.8459 56.6941 64.9485 50.9795C61.4014 46.8413 60.1863 40.9947 60.7347 35.8459C60.8242 35.0022 60.9454 34.1634 61.0934 33.3336C62.7438 24.0028 67.6044 16.0082 67.6044 16.0082C72.9211 8.42056 79.3814 6.67949 86.3823 8.74416C92.6995 10.6014 102.897 20.8145 95.7179 33.3197Z" fill="#FFC0AF"/>
<path d="M67.749 41.2011C68.1637 41.5577 69.847 42.0428 70.7468 40.8276" stroke="#132660" stroke-width="0.863333" stroke-miterlimit="10" stroke-linecap="round"/>
<path fill-rule="evenodd" clip-rule="evenodd" d="M97.4849 36.8314C97.2749 39.8441 95.8609 41.8581 93.9549 42.816C93.5869 42.9996 93.2029 43.1455 92.8033 43.2518C90.4594 43.8731 87.6614 43.1197 85.4487 40.9111L90.3998 29.7788C90.3998 29.7788 97.9759 29.8235 97.4849 36.8314Z" fill="#FFC0AF"/>
<path fill-rule="evenodd" clip-rule="evenodd" d="M87.0088 17.6966C87.0088 17.6966 83.2053 21.7157 79.5539 21.2343C75.9024 20.7519 81.5768 15.3649 81.5768 15.3649C81.5768 15.3649 76.5095 19.4644 73.9938 19.3046C71.477 19.1438 74.4538 14.0338 74.4538 14.0338C74.4538 14.0338 69.9479 19.5448 67.3735 18.3398C64.7971 17.1337 68.8539 11.7467 73.4244 9.33465C77.9959 6.92256 91.5167 4.17099 97.2541 13.0332C101.943 20.2794 99.3851 29.4294 95.9091 32.3448C95.9091 32.3448 91.7889 29.3669 89.1569 31.8931C86.5269 34.4194 85.9625 37.2801 84.2724 36.1317C82.5833 34.9822 87.7321 28.55 87.8136 23.7258C87.8951 18.9016 87.0088 17.6966 87.0088 17.6966Z" fill="#434862"/>
<path fill-rule="evenodd" clip-rule="evenodd" d="M53.023 167.754C53.023 167.754 53.9083 171.395 52.865 174.823C51.8207 178.25 55.0956 178.936 55.3559 174.958C55.5755 171.603 53.023 167.754 53.023 167.754Z" fill="#E5767A"/>
<path fill-rule="evenodd" clip-rule="evenodd" d="M54.3727 148.209C54.3727 148.209 55.8273 145.864 58.9859 147.474C62.1435 149.084 64.39 153.864 63.1957 155.18C62.0014 156.498 59.5642 151.709 57.8472 152.405C56.1323 153.1 59.2134 163.111 59.8553 165.955C60.4962 168.801 60.8618 180.085 58.2447 179.087C55.6276 178.088 56.2307 175.418 53.9881 170.739C51.6959 165.954 49.2964 161.686 48.0485 158.953C45.8735 154.192 54.3727 148.209 54.3727 148.209Z" fill="#FFC0AF"/>
<path fill-rule="evenodd" clip-rule="evenodd" d="M48.4501 157.436C48.4501 157.436 31.1825 149.778 25.833 145.739L35.3576 135.99L54.3938 147.847C54.3938 147.847 56.685 158.464 48.4501 157.436Z" fill="#FFC0AF"/>
<path fill-rule="evenodd" clip-rule="evenodd" d="M51.6665 165.769C51.6665 165.769 54.1594 172.62 53.8226 175.865C53.459 179.383 55.9181 181.419 56.8461 175.733C57.7741 170.046 51.6665 165.769 51.6665 165.769Z" fill="#EFA593"/>
<path fill-rule="evenodd" clip-rule="evenodd" d="M56.7079 75.2669C55.2911 74.3756 54.8668 68.7464 50.4284 71.0086C48.8983 71.7888 44.8991 75.6144 44.0009 77.0775L13.4311 126.859C10.6779 131.456 11.7847 137.381 16.0115 140.675L30.3659 153.69C35.1083 147.802 39.8497 141.916 44.5911 136.03L36.4844 129.711L36.8798 129.051L37.2147 128.489L60.4736 90.8959C63.4862 85.8642 61.6719 78.3917 56.7079 75.2669Z" fill="#6B74A5"/>
<path fill-rule="evenodd" clip-rule="evenodd" d="M51.8306 103.13C52.0214 103.73 52.2131 104.326 52.398 104.918C54.5968 111.937 56.4389 118.535 56.2263 122.892C55.6341 134.973 53.1084 161.691 53.1084 161.691C71.6845 173.163 106.673 159.315 106.673 159.315C103.337 146.382 102.399 136.509 104.325 122.08C104.77 118.748 105.769 114.824 106.927 110.665C107.079 110.121 107.235 109.573 107.392 109.021C111.207 95.5455 116.104 80.1677 109.027 74.6547C102.229 69.361 96.4979 65.8927 91.9776 63.84C90.1335 62.9972 88.9988 62.5356 88.9988 62.5356L73.3438 63.2374C73.3438 63.2374 72.1098 63.3536 70.1802 63.6494C64.0041 64.5914 50.064 68.9153 46.7802 73.798C43.6295 78.4852 48.0391 91.1849 51.8306 103.13Z" fill="#6B74A5"/>
<path fill-rule="evenodd" clip-rule="evenodd" d="M70.5449 63.6434C70.6313 64.6549 70.9423 65.8699 71.3835 67.1821C73.4412 73.2491 78.4688 81.4026 78.4688 81.4026L89.3436 67.6338V67.6239L89.3536 67.6129L92.3363 63.837C90.4952 62.9873 89.3536 62.5356 89.3536 62.5356L73.7095 63.2345C73.7095 63.2345 72.4715 63.3426 70.5449 63.6434Z" fill="#FFC0AF"/>
<path fill-rule="evenodd" clip-rule="evenodd" d="M71.5386 67.4988C73.5963 73.5657 78.6238 81.7192 78.6238 81.7192L89.4987 67.9504V67.9405C89.0675 68.1331 78.451 72.9741 71.5386 67.4988Z" fill="white"/>
<path fill-rule="evenodd" clip-rule="evenodd" d="M81.5707 359.332C81.5707 359.332 76.7627 361.288 76.5858 368.047C76.407 374.807 76.5858 392.238 76.5858 392.238H79.038L80.3684 386.091C80.3684 386.091 81.2149 392.772 84.5971 397.042C87.9803 401.311 95.2799 401.489 100.088 400.777C104.895 400.065 101.334 391.171 99.3759 386.19C97.4169 381.21 93.3199 369.293 93.3199 369.293L81.5707 359.332Z" fill="#434862"/>
<path fill-rule="evenodd" clip-rule="evenodd" d="M83.213 349.405C83.213 349.405 83.366 357.647 81.9412 359.072C80.5174 360.494 78.558 365.12 79.9828 370.811C81.4066 376.503 82.3565 384.805 85.6801 388.362C89.0036 391.92 97.6692 392.039 98.3812 389.192C99.0932 386.345 93.9892 375.792 93.7522 370.336C93.5142 364.881 92.5656 350.177 92.5656 350.177L83.213 349.405Z" fill="#FFC0AF"/>
<path fill-rule="evenodd" clip-rule="evenodd" d="M81.7383 281.686C80.1873 286.953 79.6369 309.178 79.6577 322.442C79.6697 327.711 82.563 347.745 82.4934 356.385L92.7075 356.813C94.9507 339.844 100.716 312.377 103.34 297.592C103.457 296.942 103.565 296.318 103.666 295.718C104.123 293.057 104.449 290.919 104.593 289.476C104.837 287.055 105.136 283.339 105.468 278.749C105.512 278.153 105.556 277.534 105.606 276.915C105.974 271.734 106.381 265.597 106.798 259.039C106.992 256 107.184 252.872 107.384 249.703C109.06 222.562 110.729 192.57 110.729 192.57L79.4868 195.347C79.4868 195.347 81.0031 227.114 81.7353 252.173C81.8099 254.646 81.8774 257.055 81.9291 259.363C82.2093 270.977 82.2391 279.99 81.7383 281.686Z" fill="#FFC0AF"/>
<path fill-rule="evenodd" clip-rule="evenodd" d="M10.2338 384.405C12.5946 380.602 33.7551 360.324 33.7551 360.324C33.7551 360.324 38.0812 363.711 37.8715 367.442C37.6718 370.994 37.8219 389.689 37.7692 391.66H35.2018L33.7551 383.13C33.7551 383.13 27.9048 392.481 23.5122 395.682C19.1205 398.884 4.27932 398.308 0.718252 397.834C-2.84277 397.36 7.87312 388.209 10.2338 384.405Z" fill="#434862"/>
<path fill-rule="evenodd" clip-rule="evenodd" d="M36.2216 351.938L33.4107 360.28C33.4107 360.28 34.5991 363.006 33.4107 367.039C32.2244 371.07 26.0522 377.356 23.44 382.218C20.8289 387.08 11.8071 390.4 9.43443 389.334C7.05973 388.267 13.9443 380.084 15.9623 375.814C17.9803 371.545 19.5839 367.069 21.0664 363.718C22.3839 360.74 25.6826 351.391 25.6826 351.391L36.2216 351.938Z" fill="#FFC0AF"/>
<path fill-rule="evenodd" clip-rule="evenodd" d="M23.8462 356.712C29.303 357.657 29.0536 356.5 34.5521 357.141C39.3015 342.855 53.5485 313.943 56.1508 307.212C61.23 294.109 61.8937 275.659 61.8937 275.659L89.0902 195.388L55.029 191.577L40.2911 270.575L39.9821 272.274L23.8462 356.712Z" fill="#FFC0AF"/>
<path fill-rule="evenodd" clip-rule="evenodd" d="M30.8013 251.775C30.8013 251.775 39.4118 253.418 51.3498 254.984C51.9847 255.068 52.6295 255.149 53.2823 255.232C75.1304 257.992 106.624 260.208 118.01 252.159C118.01 252.159 126.6 198.91 109.21 158.714C108.986 158.191 108.754 157.67 108.521 157.152C107.396 154.669 106.168 152.243 104.83 149.887C86.0509 155.559 69.1003 158.435 53.8973 154.548C53.8973 154.548 52.9922 158.284 51.5386 164.296C51.4124 164.828 51.2802 165.377 51.1411 165.943C45.273 190.254 31.9708 245.506 30.8013 251.775Z" fill="#434862"/>
<path fill-rule="evenodd" clip-rule="evenodd" d="M114.944 168.747C114.944 168.747 115.113 172.49 117.076 175.489C119.04 178.487 116.088 180.063 114.722 176.315C113.572 173.156 114.944 168.747 114.944 168.747Z" fill="#FFC0AF"/>
<path fill-rule="evenodd" clip-rule="evenodd" d="M107.628 150.558C107.628 150.558 105.575 148.713 102.994 151.143C100.413 153.572 99.5967 158.79 101.112 159.72C102.627 160.649 103.627 155.37 105.468 155.558C107.31 155.745 107.157 166.218 107.339 169.128C107.522 172.039 110.333 182.974 112.566 181.283C114.799 179.592 113.47 177.198 114.311 172.079C115.172 166.845 116.279 162.075 116.711 159.103C117.463 153.924 107.628 150.558 107.628 150.558Z" fill="#FFC0AF"/>
<path fill-rule="evenodd" clip-rule="evenodd" d="M111.946 159.139C111.946 159.139 128.748 150.511 133.858 146.174L123.795 136.983L105.464 149.905C105.464 149.905 103.782 160.635 111.946 159.139Z" fill="#FFC0AF"/>
<path fill-rule="evenodd" clip-rule="evenodd" d="M115.184 165.769C115.184 165.769 114.711 173.043 115.945 176.065C117.279 179.339 115.49 181.983 113.005 176.783C110.52 171.584 115.184 165.769 115.184 165.769Z" fill="#FFC0AF"/>
<path fill-rule="evenodd" clip-rule="evenodd" d="M100.052 77.2684C101.416 76.2976 104.407 73.0884 108.966 75.0945C110.539 75.7854 110.882 75.5332 111.862 76.9428L146.2 126.315C149.212 130.747 148.445 136.726 144.413 140.255L130.822 154.065C125.753 148.458 120.684 142.85 115.615 137.243L122.466 131.244L123.261 130.549L123.349 130.473L122.915 129.836L122.549 129.295L97.1851 93.0859C93.8901 88.2339 95.2761 80.6701 100.052 77.2684Z" fill="#6B74A5"/>
<mask id="mask0_853_10830" style="mask-type:alpha" maskUnits="userSpaceOnUse" x="0" y="0" width="149" height="402">
<path fill-rule="evenodd" clip-rule="evenodd" d="M83.4614 7.09895C83.4614 7.09895 95.0979 -7.46788 107.924 5.13156C120.748 17.732 101.738 42.0385 106.255 54.2042C110.773 66.3708 125.973 54.2042 125.973 54.2042C125.973 54.2042 118.507 70.516 106.255 70.2053C86.9787 69.715 87.4487 33.1634 87.4487 33.1634C87.4487 33.1634 91.8771 3.67338 83.4614 7.09895Z" fill="#434862"/>
<path fill-rule="evenodd" clip-rule="evenodd" d="M81.8482 49.5349H89.2574C95.7199 49.5349 101.46 45.4572 103.634 39.3754L103.675 39.2622C111.401 17.7371 94.2979 3.06302 77.0929 6.43895C59.8899 9.81587 60.6132 27.8103 60.6132 27.8103V28.3205C60.6132 40.0365 70.1209 49.5349 81.8482 49.5349Z" fill="#434862"/>
<path fill-rule="evenodd" clip-rule="evenodd" d="M89.9616 62.5028C79.2627 73.9994 72.0134 68.2402 72.0134 68.2402L70.5449 54.393L82.9141 46.6584L86.0995 44.6682L86.1979 45.1268L86.3768 45.9656L89.9616 62.5028Z" fill="#FFC0AF"/>
<path fill-rule="evenodd" clip-rule="evenodd" d="M70.5514 26.1792C70.5514 26.1792 64.2054 22.0479 60.7507 28.1675C57.295 34.286 62.2569 39.4815 68.5464 38.195L70.5514 26.1792Z" fill="#FFC0AF"/>
<path fill-rule="evenodd" clip-rule="evenodd" d="M95.7179 33.3197C94.3359 35.7278 92.4044 38.6501 90.145 41.5704C89.3074 42.6514 88.4251 43.7294 87.51 44.7835C79.9726 53.4403 69.8459 56.6941 64.9485 50.9795C61.4014 46.8413 60.1863 40.9947 60.7347 35.8459C60.8242 35.0022 60.9454 34.1634 61.0934 33.3336C62.7438 24.0028 67.6044 16.0082 67.6044 16.0082C72.9211 8.42056 79.3814 6.67949 86.3823 8.74416C92.6995 10.6014 102.897 20.8145 95.7179 33.3197Z" fill="#FFC0AF"/>
<path d="M67.749 41.2011C68.1637 41.5577 69.847 42.0428 70.7468 40.8276" stroke="#132660" stroke-width="0.863333" stroke-miterlimit="10" stroke-linecap="round"/>
<path fill-rule="evenodd" clip-rule="evenodd" d="M97.4849 36.8314C97.2749 39.8441 95.8609 41.8581 93.9549 42.816C93.5869 42.9996 93.2029 43.1455 92.8033 43.2518C90.4594 43.8731 87.6614 43.1197 85.4487 40.9111L90.3998 29.7788C90.3998 29.7788 97.9759 29.8235 97.4849 36.8314Z" fill="#FFC0AF"/>
<path fill-rule="evenodd" clip-rule="evenodd" d="M87.0088 17.6966C87.0088 17.6966 83.2053 21.7157 79.5539 21.2343C75.9024 20.7519 81.5768 15.3649 81.5768 15.3649C81.5768 15.3649 76.5095 19.4644 73.9938 19.3046C71.477 19.1438 74.4538 14.0338 74.4538 14.0338C74.4538 14.0338 69.9479 19.5448 67.3735 18.3398C64.7971 17.1337 68.8539 11.7467 73.4244 9.33465C77.9959 6.92256 91.5167 4.17099 97.2541 13.0332C101.943 20.2794 99.3851 29.4294 95.9091 32.3448C95.9091 32.3448 91.7889 29.3669 89.1569 31.8931C86.5269 34.4194 85.9625 37.2801 84.2724 36.1317C82.5833 34.9822 87.7321 28.55 87.8136 23.7258C87.8951 18.9016 87.0088 17.6966 87.0088 17.6966Z" fill="#434862"/>
<path fill-rule="evenodd" clip-rule="evenodd" d="M53.023 167.754C53.023 167.754 53.9083 171.395 52.865 174.823C51.8207 178.25 55.0956 178.936 55.3559 174.958C55.5755 171.603 53.023 167.754 53.023 167.754Z" fill="#E5767A"/>
<path fill-rule="evenodd" clip-rule="evenodd" d="M54.3727 148.209C54.3727 148.209 55.8273 145.864 58.9859 147.474C62.1435 149.084 64.39 153.864 63.1957 155.18C62.0014 156.498 59.5642 151.709 57.8472 152.405C56.1323 153.1 59.2134 163.111 59.8553 165.955C60.4962 168.801 60.8618 180.085 58.2447 179.087C55.6276 178.088 56.2307 175.418 53.9881 170.739C51.6959 165.954 49.2964 161.686 48.0485 158.953C45.8735 154.192 54.3727 148.209 54.3727 148.209Z" fill="#FFC0AF"/>
<path fill-rule="evenodd" clip-rule="evenodd" d="M48.4501 157.436C48.4501 157.436 31.1825 149.778 25.833 145.739L35.3576 135.99L54.3938 147.847C54.3938 147.847 56.685 158.464 48.4501 157.436Z" fill="#FFC0AF"/>
<path fill-rule="evenodd" clip-rule="evenodd" d="M51.6665 165.769C51.6665 165.769 54.1594 172.62 53.8226 175.865C53.459 179.383 55.9181 181.419 56.8461 175.733C57.7741 170.046 51.6665 165.769 51.6665 165.769Z" fill="#EFA593"/>
<path fill-rule="evenodd" clip-rule="evenodd" d="M56.7079 75.2669C55.2911 74.3756 54.8668 68.7464 50.4284 71.0086C48.8983 71.7888 44.8991 75.6144 44.0009 77.0775L13.4311 126.859C10.6779 131.456 11.7847 137.381 16.0115 140.675L30.3659 153.69C35.1083 147.802 39.8497 141.916 44.5911 136.03L36.4844 129.711L36.8798 129.051L37.2147 128.489L60.4736 90.8959C63.4862 85.8642 61.6719 78.3917 56.7079 75.2669Z" fill="#6B74A5"/>
<path fill-rule="evenodd" clip-rule="evenodd" d="M51.8306 103.13C52.0214 103.73 52.2131 104.326 52.398 104.918C54.5968 111.937 56.4389 118.535 56.2263 122.892C55.6341 134.973 53.1084 161.691 53.1084 161.691C71.6845 173.163 106.673 159.315 106.673 159.315C103.337 146.382 102.399 136.509 104.325 122.08C104.77 118.748 105.769 114.824 106.927 110.665C107.079 110.121 107.235 109.573 107.392 109.021C111.207 95.5455 116.104 80.1677 109.027 74.6547C102.229 69.361 96.4979 65.8927 91.9776 63.84C90.1335 62.9972 88.9988 62.5356 88.9988 62.5356L73.3438 63.2374C73.3438 63.2374 72.1098 63.3536 70.1802 63.6494C64.0041 64.5914 50.064 68.9153 46.7802 73.798C43.6295 78.4852 48.0391 91.1849 51.8306 103.13Z" fill="#6B74A5"/>
<path fill-rule="evenodd" clip-rule="evenodd" d="M70.5449 63.6434C70.6313 64.6549 70.9423 65.8699 71.3835 67.1821C73.4412 73.2491 78.4688 81.4026 78.4688 81.4026L89.3436 67.6338V67.6239L89.3536 67.6129L92.3363 63.837C90.4952 62.9873 89.3536 62.5356 89.3536 62.5356L73.7095 63.2345C73.7095 63.2345 72.4715 63.3426 70.5449 63.6434Z" fill="#FFC0AF"/>
<path fill-rule="evenodd" clip-rule="evenodd" d="M71.5386 67.4988C73.5963 73.5657 78.6238 81.7192 78.6238 81.7192L89.4987 67.9504V67.9405C89.0675 68.1331 78.451 72.9741 71.5386 67.4988Z" fill="white"/>
<path fill-rule="evenodd" clip-rule="evenodd" d="M81.5707 359.332C81.5707 359.332 76.7627 361.288 76.5858 368.047C76.407 374.807 76.5858 392.238 76.5858 392.238H79.038L80.3684 386.091C80.3684 386.091 81.2149 392.772 84.5971 397.042C87.9803 401.311 95.2799 401.489 100.088 400.777C104.895 400.065 101.334 391.171 99.3759 386.19C97.4169 381.21 93.3199 369.293 93.3199 369.293L81.5707 359.332Z" fill="#434862"/>
<path fill-rule="evenodd" clip-rule="evenodd" d="M83.213 349.405C83.213 349.405 83.366 357.647 81.9412 359.072C80.5174 360.494 78.558 365.12 79.9828 370.811C81.4066 376.503 82.3565 384.805 85.6801 388.362C89.0036 391.92 97.6692 392.039 98.3812 389.192C99.0932 386.345 93.9892 375.792 93.7522 370.336C93.5142 364.881 92.5656 350.177 92.5656 350.177L83.213 349.405Z" fill="#FFC0AF"/>
<path fill-rule="evenodd" clip-rule="evenodd" d="M81.7383 281.686C80.1873 286.953 79.6369 309.178 79.6577 322.442C79.6697 327.711 82.563 347.745 82.4934 356.385L92.7075 356.813C94.9507 339.844 100.716 312.377 103.34 297.592C103.457 296.942 103.565 296.318 103.666 295.718C104.123 293.057 104.449 290.919 104.593 289.476C104.837 287.055 105.136 283.339 105.468 278.749C105.512 278.153 105.556 277.534 105.606 276.915C105.974 271.734 106.381 265.597 106.798 259.039C106.992 256 107.184 252.872 107.384 249.703C109.06 222.562 110.729 192.57 110.729 192.57L79.4868 195.347C79.4868 195.347 81.0031 227.114 81.7353 252.173C81.8099 254.646 81.8774 257.055 81.9291 259.363C82.2093 270.977 82.2391 279.99 81.7383 281.686Z" fill="#FFC0AF"/>
<path fill-rule="evenodd" clip-rule="evenodd" d="M10.2338 384.405C12.5946 380.602 33.7551 360.324 33.7551 360.324C33.7551 360.324 38.0812 363.711 37.8715 367.442C37.6718 370.994 37.8219 389.689 37.7692 391.66H35.2018L33.7551 383.13C33.7551 383.13 27.9048 392.481 23.5122 395.682C19.1205 398.884 4.27932 398.308 0.718252 397.834C-2.84277 397.36 7.87312 388.209 10.2338 384.405Z" fill="#434862"/>
<path fill-rule="evenodd" clip-rule="evenodd" d="M36.2216 351.938L33.4107 360.28C33.4107 360.28 34.5991 363.006 33.4107 367.039C32.2244 371.07 26.0522 377.356 23.44 382.218C20.8289 387.08 11.8071 390.4 9.43443 389.334C7.05973 388.267 13.9443 380.084 15.9623 375.814C17.9803 371.545 19.5839 367.069 21.0664 363.718C22.3839 360.74 25.6826 351.391 25.6826 351.391L36.2216 351.938Z" fill="#FFC0AF"/>
<path fill-rule="evenodd" clip-rule="evenodd" d="M23.8462 356.712C29.303 357.657 29.0536 356.5 34.5521 357.141C39.3015 342.855 53.5485 313.943 56.1508 307.212C61.23 294.109 61.8937 275.659 61.8937 275.659L89.0902 195.388L55.029 191.577L40.2911 270.575L39.9821 272.274L23.8462 356.712Z" fill="#FFC0AF"/>
<path fill-rule="evenodd" clip-rule="evenodd" d="M30.8013 251.775C30.8013 251.775 39.4118 253.418 51.3498 254.984C51.9847 255.068 52.6295 255.149 53.2823 255.232C75.1304 257.992 106.624 260.208 118.01 252.159C118.01 252.159 126.6 198.91 109.21 158.714C108.986 158.191 108.754 157.67 108.521 157.152C107.396 154.669 106.168 152.243 104.83 149.887C86.0509 155.559 69.1003 158.435 53.8973 154.548C53.8973 154.548 52.9922 158.284 51.5386 164.296C51.4124 164.828 51.2802 165.377 51.1411 165.943C45.273 190.254 31.9708 245.506 30.8013 251.775Z" fill="#434862"/>
<path fill-rule="evenodd" clip-rule="evenodd" d="M114.944 168.747C114.944 168.747 115.113 172.49 117.076 175.489C119.04 178.487 116.088 180.063 114.722 176.315C113.572 173.156 114.944 168.747 114.944 168.747Z" fill="#FFC0AF"/>
<path fill-rule="evenodd" clip-rule="evenodd" d="M107.628 150.558C107.628 150.558 105.575 148.713 102.994 151.143C100.413 153.572 99.5967 158.79 101.112 159.72C102.627 160.649 103.627 155.37 105.468 155.558C107.31 155.745 107.157 166.218 107.339 169.128C107.522 172.039 110.333 182.974 112.566 181.283C114.799 179.592 113.47 177.198 114.311 172.079C115.172 166.845 116.279 162.075 116.711 159.103C117.463 153.924 107.628 150.558 107.628 150.558Z" fill="#FFC0AF"/>
<path fill-rule="evenodd" clip-rule="evenodd" d="M111.946 159.139C111.946 159.139 128.748 150.511 133.858 146.174L123.795 136.983L105.464 149.905C105.464 149.905 103.782 160.635 111.946 159.139Z" fill="#FFC0AF"/>
<path fill-rule="evenodd" clip-rule="evenodd" d="M115.184 165.769C115.184 165.769 114.711 173.043 115.945 176.065C117.279 179.339 115.49 181.983 113.005 176.783C110.52 171.584 115.184 165.769 115.184 165.769Z" fill="#FFC0AF"/>
<path fill-rule="evenodd" clip-rule="evenodd" d="M100.052 77.2684C101.416 76.2976 104.407 73.0884 108.966 75.0945C110.539 75.7854 110.882 75.5332 111.862 76.9428L146.2 126.315C149.212 130.747 148.445 136.726 144.413 140.255L130.822 154.065C125.753 148.458 120.684 142.85 115.615 137.243L122.466 131.244L123.261 130.549L123.349 130.473L122.915 129.836L122.549 129.295L97.1851 93.0859C93.8901 88.2339 95.2761 80.6701 100.052 77.2684Z" fill="#6B74A5"/>
</mask>
<g mask="url(#mask0_853_10830)">
<rect x="-35" y="-70" width="217" height="502" fill="black" fill-opacity="0.25"/>
</g>
</svg>
