<svg width="100" height="88" viewBox="0 0 100 88" fill="none" xmlns="http://www.w3.org/2000/svg">
<path fill-rule="evenodd" clip-rule="evenodd" d="M51.0361 6.01179C51.0361 6.01179 60.4208 -5.81925 70.7637 4.41389C81.1058 14.6478 65.7749 34.3894 69.4183 44.2702C73.0618 54.1518 85.3198 44.2702 85.3198 44.2702C85.3198 44.2702 79.299 57.5185 69.4183 57.2662C53.8727 56.8679 54.2517 27.1811 54.2517 27.1811C54.2517 27.1811 57.823 3.22958 51.0361 6.01179Z" fill="#434862"/>
<path fill-rule="evenodd" clip-rule="evenodd" d="M49.735 40.478H55.7101C60.9217 40.478 65.5507 37.1662 67.3039 32.2265L67.3367 32.1346C73.5675 14.6521 59.775 2.734 45.9 5.4759C32.0266 8.2186 32.61 22.8335 32.61 22.8335V23.2479C32.61 32.7635 40.2774 40.478 49.735 40.478Z" fill="#434862"/>
<path fill-rule="evenodd" clip-rule="evenodd" d="M56.278 51.0105C47.6498 60.3479 41.8037 55.6703 41.8037 55.6703L40.6194 44.4238L50.5945 38.1418L53.1634 36.5254L53.2428 36.8979L53.387 37.5791L56.278 51.0105Z" fill="#FFC0AF"/>
<path fill-rule="evenodd" clip-rule="evenodd" d="M40.6243 21.5088C40.6243 21.5088 35.5066 18.1534 32.7205 23.1237C29.9336 28.0931 33.9352 32.3128 39.0074 31.2679L40.6243 21.5088Z" fill="#FFC0AF"/>
<path fill-rule="evenodd" clip-rule="evenodd" d="M60.9203 27.1085C59.8057 29.0643 58.248 31.4378 56.4259 33.8096C55.7504 34.6876 55.0389 35.5631 54.3009 36.4193C48.2224 43.4502 40.0557 46.093 36.1062 41.4516C33.2456 38.0906 32.2656 33.342 32.7079 29.1603C32.7801 28.475 32.8778 27.7937 32.9972 27.1198C34.3281 19.5414 38.248 13.0483 38.248 13.0483C42.5357 6.88566 47.7456 5.47157 53.3914 7.14848C58.486 8.65689 66.7095 16.9519 60.9203 27.1085Z" fill="#FFC0AF"/>
<path d="M38.4319 35.2221C38.9507 35.7958 41.0563 36.5763 42.1819 34.6211" stroke="#333333" stroke-width="0.3" stroke-miterlimit="10" stroke-linecap="round"/>
<path fill-rule="evenodd" clip-rule="evenodd" d="M62.3454 30.1602C62.1755 32.607 61.0353 34.2428 59.4984 35.0208C59.202 35.17 58.8919 35.2885 58.5698 35.3747C56.6795 35.8794 54.4231 35.2675 52.6387 33.4737L56.6315 24.4321C56.6315 24.4321 62.7412 24.4684 62.3454 30.1602Z" fill="#FFC0AF"/>
<path fill-rule="evenodd" clip-rule="evenodd" d="M53.8966 14.6191C53.8966 14.6191 50.8293 17.8834 47.8846 17.4924C44.9399 17.1006 49.516 12.7254 49.516 12.7254C49.516 12.7254 45.4295 16.055 43.4006 15.9252C41.371 15.7946 43.7716 11.6442 43.7716 11.6442C43.7716 11.6442 40.1378 16.1203 38.0617 15.1415C35.9839 14.162 39.2556 9.78674 42.9415 7.82766C46.6282 5.86859 57.532 3.63379 62.1586 10.8316C65.9407 16.7169 63.8774 24.1485 61.0745 26.5163C61.0745 26.5163 57.7516 24.0977 55.629 26.1495C53.508 28.2012 53.0529 30.5247 51.6899 29.5919C50.3277 28.6584 54.4799 23.4342 54.5457 19.516C54.6114 15.5979 53.8966 14.6191 53.8966 14.6191Z" fill="#434862"/>
<path fill-rule="evenodd" clip-rule="evenodd" d="M29.4607 61.377C28.3181 60.6531 27.9759 56.0811 24.3966 57.9184C23.1626 58.5521 19.9375 61.6592 19.2131 62.8475L-5.43992 103.279C-7.66027 107.013 -6.76765 111.825 -3.35899 114.501L8.21713 125.071C12.0416 120.29 15.8654 115.509 19.6891 110.728L13.1514 105.596L13.4703 105.06L13.7404 104.603L32.4976 74.0707C34.9271 69.9841 33.4639 63.915 29.4607 61.377Z" fill="#FFCE50"/>
<path fill-rule="evenodd" clip-rule="evenodd" d="M25.5274 84.0076C25.6812 84.4946 25.8359 84.9791 25.9849 85.4596C27.7581 91.1603 29.2437 96.5191 29.0722 100.058C28.5947 109.87 26.5578 131.57 26.5578 131.57C41.5386 140.888 69.7549 129.64 69.7549 129.64C67.065 119.136 66.3086 111.118 67.8615 99.3989C68.2205 96.6924 69.0258 93.5055 69.9601 90.1275C70.0827 89.6857 70.2085 89.2407 70.3351 88.7925C73.4112 77.8474 77.3607 65.3577 71.6532 60.8801C66.1708 56.5806 61.549 53.7637 57.904 52.0965C56.4168 51.412 55.5017 51.0371 55.5017 51.0371L42.8767 51.6071C42.8767 51.6071 41.8815 51.7014 40.3254 51.9417C35.3447 52.7068 24.1027 56.2186 21.4545 60.1843C18.9136 63.9912 22.4697 74.3058 25.5274 84.0076Z" fill="#FFCE50"/>
<path fill-rule="evenodd" clip-rule="evenodd" d="M40.6194 51.9368C40.6891 52.7584 40.9399 53.7452 41.2957 54.811C42.9551 59.7385 47.0096 66.3606 47.0096 66.3606L55.7796 55.1778V55.1697L55.7877 55.1608L58.1931 52.094C56.7083 51.4039 55.7877 51.0371 55.7877 51.0371L43.1715 51.6047C43.1715 51.6047 42.1731 51.6926 40.6194 51.9368Z" fill="#FFC0AF"/>
<path fill-rule="evenodd" clip-rule="evenodd" d="M41.4207 55.0679C43.0801 59.9954 47.1346 66.6175 47.1346 66.6175L55.9046 55.4347V55.4266C55.5569 55.583 46.9952 59.5149 41.4207 55.0679Z" fill="white"/>
<path fill-rule="evenodd" clip-rule="evenodd" d="M64.4154 63.0027C65.5156 62.2142 67.9274 59.6078 71.6045 61.2371C72.8729 61.7982 73.1494 61.5934 73.9394 62.7383L101.632 102.838C104.06 106.438 103.442 111.294 100.19 114.16L89.2303 125.376C85.1422 120.822 81.054 116.268 76.9659 111.714L82.4915 106.841L83.1325 106.276L83.203 106.215L82.8529 105.698L82.558 105.258L62.1037 75.8496C59.4459 71.9088 60.5636 65.7656 64.4154 63.0027Z" fill="#FFCE50"/>
</svg>
