<svg width="100" height="101" viewBox="0 0 100 101" fill="none" xmlns="http://www.w3.org/2000/svg">
<circle cx="50" cy="50.2539" r="50" fill="white"/>
<mask id="mask0_202_15671" style="mask-type:alpha" maskUnits="userSpaceOnUse" x="0" y="0" width="100" height="101">
<circle cx="50" cy="50.2539" r="50" fill="#FFF1E0"/>
<circle cx="50" cy="50.2539" r="50" fill="#FFF1E0"/>
</mask>
<g mask="url(#mask0_202_15671)">
<circle cx="50" cy="50.2539" r="50" fill="#FFF1E0"/>
<circle cx="50" cy="50.2539" r="50" fill="#FFF1E0"/>
<path fill-rule="evenodd" clip-rule="evenodd" d="M45.5938 21.7688C45.5938 21.7688 56.2729 8.40044 68.0436 19.9633C79.8125 31.527 62.3666 53.8337 66.5119 64.9985C70.6582 76.1641 84.6076 64.9985 84.6076 64.9985C84.6076 64.9985 77.7559 79.9682 66.5119 79.6831C48.8217 79.2331 49.253 45.6888 49.253 45.6888C49.253 45.6888 53.3171 18.6251 45.5938 21.7688Z" fill="#434862"/>
<path fill-rule="evenodd" clip-rule="evenodd" d="M44.114 60.7163H50.9136C56.8444 60.7163 62.1121 56.9741 64.1073 51.3927L64.1449 51.2888C71.2352 31.5346 55.5394 18.0679 39.7499 21.166C23.9623 24.2651 24.6261 40.7791 24.6261 40.7791V41.2473C24.6261 51.9994 33.3515 60.7163 44.114 60.7163Z" fill="#434862"/>
<path fill-rule="evenodd" clip-rule="evenodd" d="M51.5604 72.6134C41.7418 83.1641 35.0889 77.8787 35.0889 77.8787L33.7412 65.1708L45.0927 58.0726L48.0161 56.2461L48.1064 56.667L48.2706 57.4367L51.5604 72.6134Z" fill="#FFC0AF"/>
<path fill-rule="evenodd" clip-rule="evenodd" d="M33.7459 39.2787C33.7459 39.2787 27.9221 35.4873 24.7516 41.1034C21.5802 46.7185 26.1339 51.4866 31.9059 50.3059L33.7459 39.2787Z" fill="#FFC0AF"/>
<path fill-rule="evenodd" clip-rule="evenodd" d="M56.8425 45.8337C55.5742 48.0437 53.8017 50.7256 51.7281 53.4056C50.9595 54.3977 50.1497 55.387 49.3099 56.3543C42.3927 64.2989 33.0991 67.285 28.6047 62.0406C25.3494 58.2428 24.2343 52.8773 24.7376 48.1521C24.8197 47.3778 24.9309 46.608 25.0668 45.8465C26.5814 37.2834 31.0421 29.9465 31.0421 29.9465C35.9213 22.9831 41.8501 21.3853 48.275 23.2801C54.0725 24.9846 63.4309 34.3574 56.8425 45.8337Z" fill="#FFC0AF"/>
<path d="M31.1748 53.0654C31.5554 53.3927 33.1002 53.8379 33.926 52.7227" stroke="#333333" stroke-width="0.863333" stroke-miterlimit="10" stroke-linecap="round"/>
<path fill-rule="evenodd" clip-rule="evenodd" d="M58.4639 49.0544C58.2712 51.8192 56.9735 53.6675 55.2243 54.5466C54.8866 54.7151 54.5342 54.849 54.1675 54.9465C52.0164 55.5167 49.4486 54.8253 47.418 52.7984L51.9617 42.582C51.9617 42.582 58.9145 42.6231 58.4639 49.0544Z" fill="#FFC0AF"/>
<path fill-rule="evenodd" clip-rule="evenodd" d="M48.8503 31.4966C48.8503 31.4966 45.3597 35.1851 42.0087 34.7433C38.6576 34.3006 43.8652 29.3568 43.8652 29.3568C43.8652 29.3568 39.2148 33.119 36.9061 32.9723C34.5963 32.8248 37.3282 28.1352 37.3282 28.1352C37.3282 28.1352 33.193 33.1928 30.8304 32.0869C28.466 30.98 32.1891 26.0363 36.3835 23.8227C40.5789 21.609 52.9873 19.0838 58.2526 27.2169C62.5559 33.8669 60.2083 42.2641 57.0183 44.9397C57.0183 44.9397 53.2371 42.2068 50.8216 44.5251C48.408 46.8436 47.89 49.4689 46.339 48.415C44.7889 47.3601 49.5141 41.4571 49.5889 37.0298C49.6636 32.6025 48.8503 31.4966 48.8503 31.4966Z" fill="#434862"/>
<path fill-rule="evenodd" clip-rule="evenodd" d="M21.0427 84.3298C19.7425 83.5118 19.3531 78.3457 15.2799 80.4218C13.8757 81.1378 10.2055 84.6487 9.38121 85.9914L-18.6735 131.677C-21.2002 135.896 -20.1844 141.333 -16.3054 144.356L-3.13198 156.301C1.22025 150.897 5.57155 145.495 9.92285 140.094L2.48313 134.295L2.84599 133.689L3.15334 133.173L24.4986 98.6729C27.2634 94.0552 25.5983 87.1975 21.0427 84.3298Z" fill="#FFCE50"/>
<path fill-rule="evenodd" clip-rule="evenodd" d="M16.5659 109.899C16.741 110.45 16.9169 110.997 17.0866 111.54C19.1045 117.981 20.7951 124.037 20.6 128.035C20.0565 139.122 17.7386 163.642 17.7386 163.642C34.7863 174.17 66.8961 161.461 66.8961 161.461C63.8345 149.593 62.9737 140.532 64.7413 127.29C65.1497 124.232 66.0665 120.631 67.1292 116.814C67.2687 116.315 67.4118 115.812 67.5559 115.305C71.0571 102.939 75.5512 88.826 69.0564 83.7665C62.8177 78.9084 57.5582 75.7254 53.4098 73.8416C51.7175 73.0682 50.6761 72.6445 50.6761 72.6445L36.3091 73.2886C36.3091 73.2886 35.1766 73.3952 33.4058 73.6667C27.7378 74.5312 14.9447 78.4993 11.931 82.9803C9.03955 87.2819 13.0864 98.9367 16.5659 109.899Z" fill="#FFCE50"/>
<path fill-rule="evenodd" clip-rule="evenodd" d="M33.7412 73.6612C33.8205 74.5895 34.1059 75.7045 34.5108 76.9087C36.3992 82.4766 41.0132 89.9593 41.0132 89.9593L50.9933 77.3233V77.3142L51.0024 77.3041L53.7397 73.8389C52.0501 73.0591 51.0024 72.6445 51.0024 72.6445L36.6454 73.2859C36.6454 73.2859 35.5093 73.3851 33.7412 73.6612Z" fill="#FFC0AF"/>
<path fill-rule="evenodd" clip-rule="evenodd" d="M34.6533 77.1992C36.5417 82.767 41.1556 90.2496 41.1556 90.2496L51.1358 77.6137V77.6046C50.74 77.7813 40.997 82.224 34.6533 77.1992Z" fill="white"/>
<path fill-rule="evenodd" clip-rule="evenodd" d="M60.8205 86.1632C62.0723 85.2723 64.8172 82.3271 69.0011 84.1682C70.4447 84.8023 70.7594 84.5708 71.6588 85.8644L103.172 131.175C105.936 135.242 105.232 140.729 101.532 143.968L89.0589 156.641C84.4069 151.496 79.755 146.349 75.103 141.203L81.3904 135.698L82.12 135.06L82.2007 134.99L81.8024 134.406L81.4665 133.909L58.1894 100.679C55.1654 96.2266 56.4374 89.2851 60.8205 86.1632Z" fill="#FFCE50"/>
</g>
<circle cx="50" cy="50.2539" r="49" stroke="#FFCE50" stroke-width="2"/>
</svg>
